<svg width="181" height="136" viewBox="0 0 181 136" fill="none" xmlns="http://www.w3.org/2000/svg">
<path d="M90.302 135.384C136.905 135.384 175.303 100.192 180.427 54.9C181.05 49.3837 176.714 44.5581 171.174 44.5581H9.43017C3.88524 44.5581 -0.450375 49.3837 0.176677 54.9C5.30507 100.192 43.6986 135.384 90.302 135.384Z" fill="#8BB704"/>
<path d="M155.578 107.618L91.4441 44.5581V135.37C116.62 135.061 139.328 124.481 155.578 107.618Z" fill="#AEC90B"/>
<path d="M90.3019 135.384C90.6827 135.384 91.0634 135.375 91.4396 135.37V44.5581L26.4725 109.085C42.861 125.342 65.4125 135.384 90.3019 135.384Z" fill="#C7D825"/>
<path d="M91.4396 44.5581H9.43017C3.88524 44.5581 -0.450375 49.3837 0.176677 54.9C2.56395 76.0008 12.1758 94.9086 26.4726 109.085L91.4396 44.5581Z" fill="#E0E836"/>
<path d="M91.4396 91.8634C117.529 91.8634 138.683 70.6864 138.683 44.5581H44.2002C44.2002 70.6819 65.3498 91.8634 91.4441 91.8634H91.4396Z" fill="#32324D"/>
<path d="M116.544 71.1932L96.0708 59.5328C94.6062 59.9902 93.052 60.2324 91.4396 60.2324C82.7953 60.2324 75.7857 53.2137 75.7857 44.5581H107.094C107.094 48.7603 105.441 52.5814 102.749 55.3933L116.544 71.1932Z" fill="#AEC90B"/>
<path d="M126.926 0.616455C115.81 0.625425 106.659 9.02092 105.445 19.8247C105.297 21.1388 106.332 22.2913 107.653 22.2913L146.226 22.2689C147.547 22.2689 148.582 21.1163 148.43 19.8023C147.202 9.00299 138.039 0.611975 126.922 0.620944L126.926 0.616455Z" fill="#8BB704"/>
<path d="M55.935 0.616455C44.8183 0.625425 35.6678 9.02092 34.454 19.8247C34.3062 21.1388 35.3409 22.2913 36.6621 22.2913L75.2348 22.2689C76.5561 22.2689 77.5907 21.1163 77.4384 19.8023C76.2112 9.00299 67.0473 0.611975 55.9306 0.620944L55.935 0.616455Z" fill="#8BB704"/>
</svg>
