<svg width="81" height="80" fill="none" xmlns="http://www.w3.org/2000/svg"><path d="M70.291 0H11.044C5.313 0 .667 4.815.667 10.755v58.49C.667 75.185 5.312 80 11.043 80H70.29c5.73 0 10.376-4.815 10.376-10.755v-58.49C80.667 4.815 76.022 0 70.291 0Z" fill="#E1DFFF"/><path d="M63.493 24.08c0-1.66-1.13-3.73-2.52-4.64l-13.46-8.77c-.7-.44-1.61-.67-2.51-.67v6.04c1.82 0 3.3 1.48 3.3 3.3 0 1.82-1.48 3.3-3.3 3.3v47.33h15.5c1.66 0 3-1.34 3-3V24.09l-.01-.01Z" fill="#0F303F"/><path d="M41.703 19.34c0-1.82 1.48-3.3 3.3-3.3V10c-.91 0-1.83.22-2.52.68l-13.46 8.77c-1.39.9-2.51 2.98-2.51 4.64v42.88c0 1.66 1.34 3 3 3h15.5V22.64c-1.82 0-3.3-1.48-3.3-3.3h-.01Z" fill="#2C5871"/><path d="M60.503 67.47h-31.5V24.08c0-.81.7-2.1 1.38-2.54l13.46-8.77c.2-.13.61-.27 1.15-.27.54 0 .95.14 1.15.27l13.47 8.77c.69.45 1.38 1.73 1.38 2.54v43.38h-.5l.01.01Zm-30.5-1h30V24.09c0-.47-.53-1.45-.93-1.71l-13.47-8.77s-.26-.11-.6-.11c-.34 0-.56.08-.6.11l-13.46 8.77c-.4.26-.92 1.23-.92 1.7v42.38l-.02.01Z" fill="#fff"/><path d="M41.703 35.98c.53 0 .96-.19 1.26-.56.31-.37.61-1.04.9-2 .48-1.62 1.06-2.84 1.72-3.68.67-.84 1.57-1.26 2.72-1.26 1.15 0 2.09.47 2.82 1.41s1.1 2.14 1.1 3.61c0 1.56-.39 2.81-1.18 3.76-.79.95-1.81 1.41-3.09 1.38l-.06-.02V35.9c.7 0 1.24-.21 1.62-.64.38-.43.56-1.03.56-1.79 0-.7-.17-1.23-.5-1.6-.33-.37-.76-.55-1.29-.55-.48 0-.87.2-1.17.61-.31.41-.63 1.12-.97 2.12-.44 1.56-1 2.74-1.69 3.55-.69.81-1.6 1.22-2.75 1.22-1.21 0-2.17-.47-2.89-1.42-.71-.95-1.07-2.19-1.07-3.73s.38-2.8 1.13-3.89c.75-1.08 1.88-1.61 3.37-1.58l.06.02v2.73c-.83 0-1.44.24-1.83.73-.39.49-.59 1.15-.59 1.98 0 .75.17 1.33.5 1.72.34.4.77.59 1.3.59l.02.01ZM44.143 48.87v-5.22h-4.02v6.21h-2.16v-9.03h14.06v9h-2.17v-6.18h-3.53v5.22H44.143ZM43.733 63.2c-1.73 0-3.16-.54-4.28-1.63-1.12-1.09-1.68-2.5-1.68-4.25s.56-3.15 1.69-4.23c1.13-1.08 2.55-1.62 4.28-1.62h2.53c1.72 0 3.14.54 4.27 1.62 1.13 1.08 1.69 2.48 1.69 4.21s-.57 3.16-1.69 4.26c-1.13 1.09-2.55 1.64-4.27 1.64H43.733Zm2.54-2.81c1.09 0 1.99-.27 2.69-.82.7-.55 1.05-1.3 1.05-2.27s-.35-1.69-1.05-2.23c-.7-.53-1.6-.8-2.69-.8h-2.55c-1.11 0-2.02.27-2.72.8-.7.53-1.05 1.28-1.05 2.24 0 .96.35 1.72 1.05 2.26.7.54 1.61.81 2.72.81h2.55v.01Z" fill="#fff"/><path d="M45.983 19.83s-.09.17-.25.5c-.16.31-.41.75-.77 1.29-.7 1.07-1.8 2.54-3.46 4.02a18.526 18.526 0 0 1-6.59 3.81c-1.34.44-2.79.75-4.27.88l-1.11.08s-.37.02-.34.04l-.23.06c-.34.11-.67.31-.99.61-.66.6-1.25 1.59-1.71 2.66-.46 1.07-.81 2.24-1.09 3.4-.56 2.32-.84 4.61-1.01 6.56-.16 1.96-.2 3.6-.2 4.74 0 1.14.04 1.75.04 1.75.1 1.66-1.16 3.08-2.82 3.18-1.66.1-3.08-1.16-3.18-2.82v-.36s.03-.75.13-2.02c.11-1.27.31-3.05.67-5.17.37-2.12.89-4.59 1.77-7.21.44-1.31.98-2.66 1.71-4.01.74-1.34 1.65-2.73 3.13-3.87.74-.56 1.65-1.02 2.65-1.23.25-.05.47-.09.78-.11.37-.03.35 0 .68-.01l.92.02a15.55 15.55 0 0 0 9.3-3.13c1.53-1.14 2.62-2.35 3.31-3.23a12.274 12.274 0 0 0 .97-1.41l.05-.08c.32-.52 1-.68 1.52-.36.49.3.65.93.4 1.43l-.01-.01Z" fill="#FDA014"/></svg>