<svg width="81" height="80" fill="none" xmlns="http://www.w3.org/2000/svg"><path d="M69.958 0H10.709C4.979 0 .333 4.815.333 10.755v58.49C.333 75.185 4.98 80 10.71 80h59.249c5.73 0 10.376-4.815 10.376-10.755v-58.49C80.334 4.815 75.688 0 69.957 0Z" fill="#9FDAFA"/><path d="M44.38 46.928h-9.496v2.077h9.496v-2.077Z" fill="#0593A1"/><path d="M44.276 56.37c0 4.767-4.65 10.956-4.65 10.956s-4.648-6.183-4.648-10.955 2.083-6.313 4.649-6.313c2.565 0 4.649 1.541 4.649 6.313Z" fill="#F07934"/><path d="M42.76 54.299c0 3.212-3.133 7.378-3.133 7.378s-3.133-4.166-3.133-7.378c0-3.212 1.402-4.254 3.133-4.254s3.133 1.042 3.133 4.254Z" fill="#F7C31E"/><path d="M41.413 52.482c0 1.836-1.788 4.219-1.788 4.219s-1.788-2.383-1.788-4.219c0-1.835.8-2.43 1.788-2.43s1.788.595 1.788 2.43Z" fill="#fff"/><path d="m46.802 27.665-.642 19.94H33.1l-.642-19.94c-.108-3.624.976-7.272 3.213-10.537.108-.17.238-.336.357-.506l3.61-4.96 3.61 4.96.358.506c2.225 3.26 3.32 6.913 3.201 10.537h-.005Z" fill="#EDEDED"/><path d="M43.597 17.127a37.128 37.128 0 0 1-7.935 0c.108-.17.238-.335.357-.506l3.61-4.96 3.61 4.96.358.506Z" fill="#DF4937"/><path opacity=".5" d="M41.698 26.436c1.703 1.135 2.203 3.489 1.107 5.254-1.095 1.765-3.366 2.282-5.069 1.153-1.702-1.136-2.202-3.49-1.106-5.254 1.095-1.765 3.366-2.283 5.068-1.153Z" fill="#56E3DC"/><path d="M42.805 31.69c1.095-1.765.596-4.124-1.107-5.254-1.703-1.135-3.979-.612-5.069 1.154-1.095 1.765-.596 4.124 1.107 5.253 1.703 1.13 3.979.612 5.069-1.153Zm-.437-6.33c2.276 1.518 2.946 4.665 1.481 7.025-1.458 2.359-4.495 3.047-6.777 1.535-2.276-1.518-2.946-4.666-1.482-7.025 1.46-2.36 4.496-3.047 6.778-1.535Z" fill="#DF4937"/><path d="M40.645 26.218a3.302 3.302 0 0 0-1.896.012l-.107.035c-.46.16-.875.412-1.227.742l.574.659a2.51 2.51 0 0 1 .908-.553l.108-.036a2.44 2.44 0 0 1 1.407 0l.233-.853v-.006ZM39.363 33.172c.045 0 .09.006.136.012h.113a3.283 3.283 0 0 0 1.947-.547l-.352-.57a2.696 2.696 0 0 1-1.566.447h-.114a.602.602 0 0 0-.102-.012l-.068.67h.006Z" fill="#fff"/><path d="M39.626 53.7c1.147 0 2.077-3.49 2.077-7.795 0-4.306-.93-7.796-2.077-7.796-1.148 0-2.078 3.49-2.078 7.796 0 4.305.93 7.795 2.078 7.795ZM34.085 45.905c0 4.307-.068 7.796-1.277 7.796-1.21 0-3.1-3.49-3.1-7.796 0-4.307 1.89-7.796 3.1-7.796 1.209 0 1.277 3.49 1.277 7.796ZM45.17 45.904c0 4.307.067 7.796 1.277 7.796 1.209 0 3.099-3.489 3.099-7.796 0-4.306-1.89-7.795-3.1-7.795-1.209 0-1.277 3.489-1.277 7.795Z" fill="#DF4937"/></svg>