<svg width="81" height="80" fill="none" xmlns="http://www.w3.org/2000/svg"><path d="M69.958 0H10.709C4.979 0 .333 4.815.333 10.755v58.49C.333 75.185 4.98 80 10.71 80h59.249c5.73 0 10.376-4.815 10.376-10.755v-58.49C80.334 4.815 75.688 0 69.957 0Z" fill="#FF9381"/><path d="M39.983 23.82s-16.273 0-30.634 16.273C23.71 56.366 39.983 56.366 39.983 56.366s16.273 0 30.634-16.273C56.257 23.82 39.983 23.82 39.983 23.82Z" fill="#FBF18F"/><path d="M49.69 41.67c.862-5.35-2.775-10.386-8.125-11.248-5.35-.863-10.385 2.774-11.248 8.124-.862 5.35 2.775 10.386 8.125 11.248 5.35.863 10.385-2.775 11.248-8.124Z" fill="#6B7C7A"/><path d="M19.878 33.713a.796.796 0 0 1-.798-.798V22.602a3.412 3.412 0 0 1 3.409-3.41h10.313c.442 0 .798.357.798.8a.797.797 0 0 1-.798.798H22.488c-.999 0-1.811.812-1.811 1.812v10.313a.797.797 0 0 1-.799.798ZM60.085 33.713a.797.797 0 0 1-.798-.798V22.602c0-1-.813-1.812-1.812-1.812H47.162a.797.797 0 0 1-.799-.799c0-.442.356-.798.799-.798h10.313a3.412 3.412 0 0 1 3.409 3.409v10.313a.796.796 0 0 1-.799.798ZM32.802 60.993H22.488a3.412 3.412 0 0 1-3.408-3.409V47.271c0-.442.356-.798.798-.798.443 0 .799.356.799.798v10.313c0 1 .812 1.812 1.811 1.812h10.314c.442 0 .798.356.798.799a.797.797 0 0 1-.798.798ZM57.475 60.993H47.162a.797.797 0 0 1-.799-.798c0-.443.356-.799.799-.799h10.313c1 0 1.812-.812 1.812-1.812V47.271c0-.442.356-.798.798-.798.443 0 .799.356.799.798v10.313a3.412 3.412 0 0 1-3.409 3.41ZM39.98 27.16a.797.797 0 0 1-.798-.798V13.799c0-.443.356-.799.799-.799.442 0 .798.356.798.799v12.563a.797.797 0 0 1-.798.798ZM39.98 67.186a.797.797 0 0 1-.798-.799V53.824c0-.442.356-.798.799-.798.442 0 .798.356.798.798v12.563a.796.796 0 0 1-.798.799Z" fill="#D46D58"/></svg>