<svg width="80" height="80" fill="none" xmlns="http://www.w3.org/2000/svg"><path d="M69.624 0H10.377C4.646 0 0 4.815 0 10.755v58.49C0 75.185 4.645 80 10.376 80h59.248C75.355 80 80 75.185 80 69.245v-58.49C80 4.815 75.355 0 69.624 0Z" fill="#FFF2BD"/><path d="M35.195 32.466c-2.818 2.505-4.663 6.336-4.056 10.056.767 4.692 5.064 8.188 5.907 12.868.465 2.587-.154 5.417 1.066 7.745 1.238 2.364 4.286 3.508 6.85 2.777 2.564-.731 4.504-3.119 4.946-5.748.742-4.403-2.24-8.617-2.34-13.08-.053-2.364.707-4.657 1.379-6.92.672-2.264 1.273-4.64.89-6.968-.4-2.47-2.505-5.476-5.282-5.21-3.218.306-6.99 2.375-9.36 4.48ZM44.312 23.2c-.047-1.274.307-2.594.937-3.308.773-.878 2.199-1.208 3.154-.53.613.436.937 1.179 1.108 1.916.313 1.308.212 2.782-.584 3.866-.577.79-1.844 1.545-2.847 1.209-1.184-.401-1.72-1.745-1.774-3.148l.006-.006ZM39.396 25.97c.254.678.85 1.238 1.557 1.367.341.06.707.024 1.008-.153.37-.218.6-.63.69-1.05.088-.424.052-.86 0-1.29-.119-.967-.679-2.942-2.046-2.311-1.144.525-1.61 2.352-1.209 3.442v-.005ZM37.232 28.269c.36.094.772.082 1.073-.136.26-.189.4-.507.448-.825.047-.319 0-.643-.035-.961-.113-.878-.272-1.886-1.115-2.364-.607-.342-1.379-.336-1.827.236-.996 1.28-.041 3.649 1.456 4.05ZM32.851 30.35c.537.394 1.338.453 1.851.029.372-.307.537-.808.543-1.291a2.581 2.581 0 0 0-1.15-2.17c-.766-.5-1.922-.718-2.163.349-.23 1.02.047 2.434.92 3.082ZM29.334 32.66c.33.82 1.008 1.55 1.88 1.703.519.089 1.09-.047 1.444-.436.272-.3.39-.725.366-1.132-.047-.819-.625-1.532-1.326-1.963-.56-.341-1.563-.848-2.229-.483-.79.436-.4 1.662-.141 2.317l.006-.006Z" fill="#647C28"/><path d="M62.721 36.965c2.895-2.971 7.263-4.445 11.365-3.826-.2 2.783-.678 5.577-1.792 8.135-1.114 2.558-2.9 4.88-5.305 6.295-1.444.85-3.118 1.344-4.798 1.368-1.904.03-3.089-.1-3.178-2.116-.164-3.602 1.185-7.268 3.702-9.856h.006Z" fill="#C3D498"/><path d="M71.076 36.222c.837.23 1.703.383 2.57.495.047-.259.094-.524.135-.79-.795-.1-1.58-.241-2.352-.447a48.547 48.547 0 0 1 2.618-1.78c.017-.19.035-.372.047-.56-.177-.03-.36-.03-.542-.048-1.32.843-2.6 1.733-3.808 2.682a8.361 8.361 0 0 1 .819-2.652c-.324.041-.648.082-.967.147a8.93 8.93 0 0 0-.73 3.207 45.84 45.84 0 0 0-2.182 1.927c.06-1.526.325-3.041.76-4.503-.312.118-.624.23-.925.371-.43 1.604-.672 3.26-.66 4.922a44.542 44.542 0 0 0-1.857 1.957 10.41 10.41 0 0 1-.1-5.264 14.93 14.93 0 0 0-.967.867c-.241 1.71-.1 3.472.454 5.099-.719.843-1.397 1.71-2.028 2.593a10.064 10.064 0 0 1-1.19-3.678c-.207.466-.383.943-.537 1.427.26 1.037.66 2.04 1.22 2.965a35.88 35.88 0 0 0-1.638 2.658c.118.295.295.519.513.678.218-.395.442-.79.678-1.179a13.823 13.823 0 0 0 3.224 1.462 9.683 9.683 0 0 0 1.574-.419 13.062 13.062 0 0 1-4.38-1.715c.413-.648.849-1.29 1.309-1.927.913.5 1.868.901 2.865 1.178 1.172.325 2.387.49 3.607.496.3-.26.584-.525.86-.814a12.889 12.889 0 0 1-6.86-1.503 39 39 0 0 1 2.221-2.676c.018.023.036.053.065.07a14.147 14.147 0 0 0 4.616 2.235c.413.117.837.212 1.255.288.165-.235.325-.483.472-.725-2.116-.336-4.162-1.16-5.883-2.428h-.012a43.971 43.971 0 0 1 2.3-2.27c.011.006.017.018.029.03a14.603 14.603 0 0 0 3.4 1.415c.52.141 1.05.247 1.587.336.094-.248.17-.496.253-.749a14.215 14.215 0 0 1-4.65-1.586 46.964 46.964 0 0 1 2.363-1.939c.147.047.295.088.442.13l.012.017Z" fill="#748E4A"/><path d="M16.116 37.645C12.773 34.215 7.739 32.517 3 33.23c.23 3.213.784 6.437 2.063 9.39 1.285 2.954 3.348 5.636 6.119 7.263 1.668.978 3.595 1.55 5.535 1.573 2.193.03 3.56-.118 3.666-2.44.189-4.156-1.361-8.382-4.273-11.37h.006Z" fill="#AE4022"/><path d="M6.478 36.785c-.967.27-1.963.442-2.965.571-.053-.3-.106-.607-.153-.907a20.007 20.007 0 0 0 2.711-.52 51.2 51.2 0 0 0-3.018-2.05c-.018-.219-.041-.43-.053-.649.206-.03.419-.035.625-.053 1.52.973 3 1.998 4.397 3.095a9.43 9.43 0 0 0-.949-3.06c.372.047.743.095 1.114.171.501 1.167.802 2.417.843 3.702.867.72 1.704 1.462 2.511 2.228a20.689 20.689 0 0 0-.878-5.193c.36.136.725.265 1.073.43.495 1.851.778 3.761.76 5.677a55.057 55.057 0 0 1 2.146 2.258c.566-1.963.59-4.08.118-6.072.389.313.754.655 1.114 1.002.277 1.97.118 4.003-.525 5.883a47.7 47.7 0 0 1 2.34 2.989 11.741 11.741 0 0 0 1.374-4.239 15.8 15.8 0 0 1 .619 1.65c-.3 1.197-.76 2.359-1.409 3.42a41.602 41.602 0 0 1 1.886 3.065 1.797 1.797 0 0 1-.59.784 52.878 52.878 0 0 0-.777-1.362 15.783 15.783 0 0 1-3.72 1.686 10.854 10.854 0 0 1-1.815-.483 15.097 15.097 0 0 0 5.057-1.98 44.612 44.612 0 0 0-1.509-2.223 15.509 15.509 0 0 1-3.307 1.362 15.781 15.781 0 0 1-4.161.571 13.49 13.49 0 0 1-.99-.937c2.729.165 5.493-.43 7.916-1.733a44.637 44.637 0 0 0-2.564-3.083c-.024.03-.041.06-.077.083a16.272 16.272 0 0 1-6.773 2.906c-.194-.271-.371-.554-.548-.837 2.44-.383 4.798-1.338 6.785-2.806 0 0 .011 0 .011-.006a52.845 52.845 0 0 0-2.646-2.617c-.012.012-.024.023-.036.03a17.058 17.058 0 0 1-3.92 1.632 17.66 17.66 0 0 1-1.827.39c-.106-.284-.2-.573-.295-.861a16.296 16.296 0 0 0 5.37-1.834 50.483 50.483 0 0 0-2.729-2.234c-.17.053-.342.106-.513.154h-.023Z" fill="#748E4A"/><path d="M19.35 23.515c-1.345-2.44-3.903-4.173-6.668-4.51-.371 1.834-.56 3.726-.3 5.583.26 1.857 1.002 3.678 2.305 5.022a6.552 6.552 0 0 0 2.859 1.74c1.226.359 2.015.488 2.434-.802.755-2.3.536-4.91-.63-7.039v.006Z" fill="#455A29"/><path d="M14.08 21.54a12.52 12.52 0 0 1-1.75-.14l.053-.537c.53.076 1.067.13 1.603.13a32.184 32.184 0 0 0-1.373-1.622l.07-.371c.118.012.236.047.36.065a31.656 31.656 0 0 1 1.98 2.417 5.647 5.647 0 0 0-.052-1.863c.2.082.4.17.595.271.1.731.07 1.48-.1 2.205.377.536.725 1.084 1.06 1.638.237-.996.337-2.021.313-3.047.183.135.366.26.53.407a12.492 12.492 0 0 1-.453 3.3c.3.531.584 1.062.849 1.598a6.99 6.99 0 0 0 1.008-3.383c.17.235.324.483.465.73-.153 1.15-.554 2.264-1.208 3.219.312.678.595 1.356.849 2.04a6.709 6.709 0 0 0 1.426-2.164c.047.336.083.678.095 1.02a7.224 7.224 0 0 1-1.32 1.698c.23.672.418 1.338.583 2.01-.13.17-.283.283-.454.347-.07-.294-.148-.589-.224-.884-.76.224-1.55.348-2.346.372a6.553 6.553 0 0 1-.943-.549 8.717 8.717 0 0 0 3.142-.324c-.148-.495-.319-.99-.502-1.48a9.055 9.055 0 0 1-2.063.248c-.819 0-1.632-.112-2.422-.324a7.898 7.898 0 0 1-.407-.678 8.685 8.685 0 0 0 4.704.26 26.271 26.271 0 0 0-.96-2.129c-.019.012-.036.03-.054.036a9.476 9.476 0 0 1-4.25.578 10.061 10.061 0 0 1-.177-.555c1.427.165 2.894 0 4.238-.518h.006c-.33-.631-.695-1.262-1.078-1.875-.012 0-.018.012-.024.012a9.776 9.776 0 0 1-2.452.306c-.36 0-.725-.029-1.085-.064-.018-.177-.023-.354-.03-.53a9.392 9.392 0 0 0 3.296-.195 32.06 32.06 0 0 0-1.185-1.68h-.312v.006Z" fill="#748E4A"/><path d="M67.325 60.874c2.717-.613 5.087-2.594 6.177-5.158-1.662-.86-3.424-1.568-5.281-1.833-1.857-.26-3.808-.053-5.465.825a6.592 6.592 0 0 0-2.463 2.263c-.684 1.08-1.026 1.798.094 2.565 2.004 1.361 4.574 1.874 6.938 1.338Z" fill="#455A29"/><path d="M70.678 56.358c.16-.56.377-1.108.62-1.644.164.065.33.13.5.2-.218.49-.418.99-.566 1.503.655-.265 1.297-.56 1.934-.872.112.059.224.112.336.17-.047.113-.112.219-.165.325-.944.46-1.904.878-2.871 1.238.572.26 1.185.407 1.804.46a8.68 8.68 0 0 1-.425.5 6.03 6.03 0 0 1-2.092-.706c-.62.212-1.244.4-1.869.571.89.501 1.851.879 2.841 1.144-.176.135-.353.277-.536.4a12.478 12.478 0 0 1-3.048-1.35c-.59.142-1.184.272-1.774.378a6.993 6.993 0 0 0 2.977 1.904 8.04 8.04 0 0 1-.837.248 7.413 7.413 0 0 1-2.759-2.052c-.737.112-1.468.2-2.193.248a6.76 6.76 0 0 0 1.686 1.969 10.113 10.113 0 0 1-1.008-.195 7.235 7.235 0 0 1-1.267-1.739c-.708.036-1.403.03-2.093 0a.966.966 0 0 1-.206-.53c.3.011.607.023.914.023 0-.796.094-1.585.294-2.358.242-.277.507-.524.79-.754a8.742 8.742 0 0 0-.554 3.106c.519-.006 1.038-.03 1.562-.07a9.246 9.246 0 0 1 .33-2.052c.224-.784.56-1.538.985-2.24a8.66 8.66 0 0 1 .766-.206 8.665 8.665 0 0 0-1.55 4.45 28.74 28.74 0 0 0 2.31-.33c-.005-.017-.017-.04-.017-.059a9.469 9.469 0 0 1 .619-4.244c.194-.011.389-.017.583-.017a8.99 8.99 0 0 0-.672 4.214v.006a30.381 30.381 0 0 0 2.105-.519v-.029c.023-.82.153-1.645.383-2.44.1-.348.224-.69.365-1.026.171.035.348.077.519.118a9.467 9.467 0 0 0-.725 3.218c.648-.2 1.297-.43 1.94-.672.023-.1.052-.2.082-.3l-.018.011Z" fill="#748E4A"/></svg>