<svg width="81" height="80" fill="none" xmlns="http://www.w3.org/2000/svg"><path d="M70.291 0H11.044C5.313 0 .667 4.815.667 10.755v58.49C.667 75.185 5.312 80 11.043 80H70.29c5.73 0 10.376-4.815 10.376-10.755v-58.49C80.667 4.815 76.022 0 70.291 0Z" fill="#CEEF4E"/><path d="M7.003 18v44.82h66.5V18h-66.5Zm63.5 41.73h-60.5V21.09h60.5v38.64Z" fill="#0F303F"/><path d="M70.503 21.09h-60.5v6.3h60.5v-6.3Z" fill="#2C5871"/><path d="M59.773 22.85h-2.78v2.78h2.78v-2.78Z" fill="#FDC63A"/><path d="M63.883 22.85h-2.78v2.78h2.78v-2.78Z" fill="#C1D64B"/><path d="M68.003 22.85h-2.78v2.78h2.78v-2.78Z" fill="#FD692B"/><path d="M40.253 27.39h-30.25v32.34h30.25V27.39Z" fill="#16C1D1"/><path d="M70.503 27.39h-30.25v32.34h30.25V27.39Z" fill="#14B0BF"/><path d="M14.303 56.88c-.27 0-.54-.11-.74-.32a.996.996 0 0 1 .06-1.41l19.08-17.57 5.93 12.72 7.04-10.29 5.04 8.41 15.6-17.74c.36-.41 1-.46 1.41-.09.41.36.46 1 .09 1.41l-17.41 19.8-4.84-8.09-7.26 10.61-6.26-13.42-17.07 15.72c-.19.18-.44.26-.68.26h.01ZM28.363 29.75h-15.73v1.59h15.73v-1.59ZM22.553 33.28h-9.92v1.59h9.92v-1.59ZM10.683 29.1h-.68v1.44h.68V29.1ZM10.683 31.34h-.68v1.44h.68v-1.44ZM10.683 33.58h-.68v1.44h.68v-1.44ZM10.683 35.81h-.68v1.44h.68v-1.44ZM10.683 38.05h-.68v1.44h.68v-1.44ZM10.683 40.29h-.68v1.44h.68v-1.44ZM10.683 42.52h-.68v1.44h.68v-1.44ZM10.683 44.76h-.68v1.44h.68v-1.44ZM10.683 46.99h-.68v1.44h.68v-1.44ZM10.683 49.23h-.68v1.44h.68v-1.44ZM10.683 51.47h-.68v1.44h.68v-1.44ZM10.683 53.7h-.68v1.44h.68V53.7ZM10.683 55.94h-.68v1.44h.68v-1.44ZM13.573 59.05h-1.44v.68h1.44v-.68ZM15.983 59.05h-1.44v.68h1.44v-.68ZM18.383 59.05h-1.44v.68h1.44v-.68ZM20.793 59.05h-1.44v.68h1.44v-.68ZM23.193 59.05h-1.44v.68h1.44v-.68ZM25.603 59.05h-1.44v.68h1.44v-.68ZM28.013 59.05h-1.44v.68h1.44v-.68ZM30.413 59.05h-1.44v.68h1.44v-.68ZM32.823 59.05h-1.44v.68h1.44v-.68ZM35.233 59.05h-1.44v.68h1.44v-.68ZM37.633 59.05h-1.44v.68h1.44v-.68ZM40.043 59.05h-1.44v.68h1.44v-.68ZM42.443 59.05h-1.44v.68h1.44v-.68ZM44.853 59.05h-1.44v.68h1.44v-.68ZM47.263 59.05h-1.44v.68h1.44v-.68ZM49.663 59.05h-1.44v.68h1.44v-.68ZM52.073 59.05h-1.44v.68h1.44v-.68ZM54.483 59.05h-1.44v.68h1.44v-.68ZM56.883 59.05h-1.44v.68h1.44v-.68ZM59.293 59.05h-1.44v.68h1.44v-.68ZM61.693 59.05h-1.44v.68h1.44v-.68ZM64.103 59.05h-1.44v.68h1.44v-.68ZM66.513 59.05h-1.44v.68h1.44v-.68ZM68.913 59.05h-1.44v.68h1.44v-.68Z" fill="#fff"/></svg>