<svg width="80" height="80" fill="none" xmlns="http://www.w3.org/2000/svg"><path d="M69.624 0H10.377C4.646 0 0 4.815 0 10.755v58.49C0 75.185 4.645 80 10.376 80h59.248C75.355 80 80 75.185 80 69.245v-58.49C80 4.815 75.355 0 69.624 0Z" fill="#ACF1E9"/><path d="M62.064 19.277H11v32.808h51.064V19.277Z" fill="#000"/><path d="M47.01 62.545H27.633l5.267-7.048h8.845l5.267 7.048Z" fill="#ADADAD"/><path d="M58.32 58.908H14.744c-2.072 0-3.744-1.53-3.744-3.411v-3.412h51.064v3.412c0 1.889-1.68 3.411-3.744 3.411Z" fill="#DBDBDB"/><path d="M47.728 62.545H26.926v2.213h20.802v-2.213Z" fill="#000"/><path d="M37.317 20.775h-24.82v29.813h24.82V20.775Z" fill="#C1D64B"/><path d="M60.556 20.775h-23.24v29.813h23.24V20.775Z" fill="#9FB603"/><path d="M49.35 27.872s-4.867-.607-6.207 2.189c-1.34 2.804-1.947 7.913-3.287 8.162-1.34.242 9.494 2.188 13.03-5.6 3.528-7.796-3.528-4.75-3.528-4.75h-.008ZM54.593 23.77s2.513-1.989 6.373-4.385C64.778 17.022 69.57 15 69.57 15s-2.413 4.002-5.683 7.222c-2.879 2.846-5.766 5.642-5.766 5.642l-3.528-4.102v.008Z" fill="#3C2415"/><path d="M65.228 17.688S58.77 20.816 54.51 24.71c-4.26 3.894 1.14.483 1.14.483s5.4-5.034 9.577-7.506Z" fill="#896956"/><path d="m54.6 23.349-5.315 4.422 3.795 4.56 5.315-4.422-3.794-4.56Z" fill="#D8D8D8"/><path d="m51.06 26.298-1.771 1.474 3.794 4.56 1.772-1.473-3.795-4.56Z" fill="#16C1D1"/><path d="m54.51 24.02-2.92 2.388.69.815 2.838-2.438-.608-.765Z" fill="#fff"/><path d="M48.668 28.563s-3.245-.524-4.301 1.381c-1.057 1.906 1.789.849 4.301-1.381Z" fill="#A0887C"/></svg>