<svg width="439" height="366" fill="none" xmlns="http://www.w3.org/2000/svg"><g clip-path="url(#a)"><path d="m174.047 348.11-29.4 8.04c-7.736 2.116-15.793-2.482-17.909-10.214l-6.627-24.218c-2.116-7.736 2.482-15.792 10.215-17.908l29.4-8.041c7.737-2.116 15.793 2.482 17.909 10.214l6.627 24.218c2.116 7.736-2.482 15.792-10.215 17.909Z" fill="#C1DDA3"/><path d="M136.783 329.71c2.749 3.775 19.472 11.087 19.472 11.087s3.474-4.85 6.539-9.886c2.303-3.736 4.362-7.572 4.557-9.562.476-4.629-2.883-10.146-9.147-9.521-6.238.614-7.752 7.736-7.752 7.736s-4.93-5.36-10.637-2.707c-.992.462-1.815 1.041-2.475 1.712-3.161 3.1-2.814 8.049-.553 11.137l-.004.004Z" fill="#FF5050"/><path d="M438.666 1.24v269.216c0 4.712-3.694 8.533-8.242 8.533H8.646c-4.554 0-8.243-3.821-8.243-8.533V1.24c0-4.712 3.694-8.532 8.243-8.532h421.772c4.554 0 8.243 3.815 8.243 8.532h.005Z" fill="#fff"/><path d="M438.666 6.625V23.03H.403V6.625C.403 3.241 4.097.5 8.645.5h421.773c4.554 0 8.242 2.741 8.242 6.125h.006Z" fill="#2F6357"/><path d="M13.802 12.644c0-2.063 1.72-3.73 3.836-3.73 2.116 0 3.836 1.672 3.836 3.73 0 2.057-1.72 3.73-3.836 3.73-2.116 0-3.836-1.672-3.836-3.73ZM28.927 12.644c0-2.063 1.72-3.73 3.836-3.73 2.116 0 3.836 1.672 3.836 3.73 0 2.057-1.72 3.73-3.836 3.73-2.116 0-3.836-1.672-3.836-3.73ZM44.432 12.644c0-2.063 1.72-3.73 3.836-3.73 2.116 0 3.837 1.672 3.837 3.73 0 2.057-1.72 3.73-3.837 3.73-2.116 0-3.836-1.672-3.836-3.73Z" fill="#DCDCDC"/><path d="M35.176 52.953h103.072a5.09 5.09 0 0 1 5.087 5.087v50.186a5.09 5.09 0 0 1-5.087 5.087H35.176a5.09 5.09 0 0 1-5.087-5.087v-50.18a5.09 5.09 0 0 1 5.087-5.088v-.005Z" fill="#C0DCA2"/><path d="M74.611 99.673v-33.77l24.2 16.885-24.2 16.885Z" fill="#fff"/><path d="M169.444 52.954h236.762a7.562 7.562 0 0 1 7.556 7.556v184.462a7.562 7.562 0 0 1-7.556 7.556H169.444a7.561 7.561 0 0 1-7.556-7.556V60.51a7.562 7.562 0 0 1 7.556-7.556Z" fill="#C1DDA3"/><path d="M381.437 99.706c-6.261-.915-11.975 2.676-17.963 3.523-4.11.575-7.202-.102-10.45-.238-9.51-.44-21.408 2.541-21.486 13.279.548 8.706 7.24 13.753 16.281 13.313 8.101-.406 15.537-2.1 23.717-1.084 5.244.644 11.624 1.49 16.32-1.389 9.08-5.555 4.344-25.778-6.458-27.37l.039-.034ZM222.264 66.284c-4.554-.712-8.71 2.081-13.064 2.74-2.989.448-5.238-.08-7.6-.185-6.917-.342-15.569 1.976-15.626 10.328.398 6.771 5.265 10.697 11.84 10.355 5.892-.317 11.3-1.634 17.249-.844 3.814.501 8.453 1.16 11.869-1.08 6.603-4.32 3.159-20.05-4.696-21.288l.028-.026ZM298.958 76.268c-3.302-.508-6.315 1.486-9.472 1.957-2.167.32-3.797-.056-5.51-.132-5.015-.244-11.288 1.412-11.329 7.377.289 4.837 3.818 7.641 8.584 7.396 4.272-.225 8.193-1.166 12.506-.602 2.765.358 6.129.828 8.605-.771 4.787-3.087 2.29-14.322-3.405-15.206l.021-.02Z" fill="#fff"/><path fill-rule="evenodd" clip-rule="evenodd" d="M206.607 149.523c-5.035-29.862-5.353-49.201.953-48.848 6.306-.294 5.988 18.986.954 48.848 2.12.47 3.71 2.586 3.71 5.055 0 .647-.106 1.293-.318 1.822 26.072 10.17 41.439 19.575 38.048 25.512-2.915 6.231-17.964-3.821-38.949-23.807-.424.47-.901.882-1.431 1.176l5.299 93.875H200.3l5.3-93.875c-.583-.294-1.06-.706-1.484-1.235-20.879 19.869-35.876 29.921-38.79 23.69-3.392-5.937 11.923-15.284 37.889-25.453a6.002 6.002 0 0 1-.265-1.705c0-2.528 1.59-4.585 3.71-5.055h-.053Z" fill="#00785F"/><path fill-rule="evenodd" clip-rule="evenodd" d="M238.016 182.366c-3.595-21.36-3.823-35.194.682-34.942 4.504-.21 4.277 13.582.681 34.942 1.514.337 2.65 1.85 2.65 3.616 0 .463-.076.926-.227 1.304 18.622 7.274 29.599 14.002 27.177 18.249-2.082 4.457-12.832-2.733-27.821-17.03a4.017 4.017 0 0 1-1.022.841l3.785 67.152h-10.409l3.785-67.152a3.176 3.176 0 0 1-1.06-.883c-14.913 14.213-25.625 21.403-27.707 16.946-2.422-4.247 8.517-10.933 27.064-18.207a4.288 4.288 0 0 1-.189-1.22c0-1.808 1.135-3.279 2.649-3.616h-.038Z" fill="#2F6357"/><path fill-rule="evenodd" clip-rule="evenodd" d="M264.872 197.936c-2.681-15.911-2.85-26.216.507-26.028 3.358-.157 3.189 10.117.508 26.028 1.129.251 1.976 1.379 1.976 2.694 0 .345-.057.689-.17.971 13.883 5.419 22.066 10.43 20.26 13.594-1.552 3.32-9.566-2.036-20.739-12.686a3.02 3.02 0 0 1-.762.627l2.821 50.021h-7.759l2.821-50.021a2.38 2.38 0 0 1-.79-.658c-11.117 10.587-19.102 15.943-20.654 12.623-1.806-3.164 6.349-8.144 20.175-13.563a3.182 3.182 0 0 1-.141-.908c0-1.347.846-2.443 1.975-2.694h-.028Z" fill="#00785F"/><path fill-rule="evenodd" clip-rule="evenodd" d="m314.866 183.04 25.001 16.381v4.313h-20.37v2.826h20.37v2.827h-20.37v2.827h20.37v2.827h-20.37v2.826h20.37v2.827h-20.37v2.827h20.37v2.827h-20.37v2.827h20.37v2.863h-20.37v2.826h20.37v2.827h-20.37v2.827h20.37v2.827h-20.37v2.827h20.37v5.943h-25.001V183.04Z" fill="url(#b)"/><path fill-rule="evenodd" clip-rule="evenodd" d="m341.355 183.04 24.965 16.381v4.313h-20.37v2.826h20.37v2.827h-20.37v2.827h20.37v2.827h-20.37v2.826h20.37v2.827h-20.37v2.827h20.37v2.827h-20.37v2.827h20.37v2.863h-20.37v2.826h20.37v2.827h-20.37v2.827h20.37v2.827h-20.37v2.827h20.37v5.943h-24.965V183.04Z" fill="url(#c)"/><path fill-rule="evenodd" clip-rule="evenodd" d="m367.794 183.04 25.001 16.381v4.313h-20.369v2.826h20.369v2.827h-20.369v2.827h20.369v2.827h-20.369v2.826h20.369v2.827h-20.369v2.827h20.369v2.827h-20.369v2.827h20.369v2.863h-20.369v2.826h20.369v2.827h-20.369v2.827h20.369v2.827h-20.369v2.827h20.369v5.943h-25.001V183.04Z" fill="url(#d)"/><path d="M35.176 122.559h103.072a5.089 5.089 0 0 1 5.087 5.086v50.187a5.089 5.089 0 0 1-5.087 5.086H35.176a5.089 5.089 0 0 1-5.087-5.086v-50.181a5.09 5.09 0 0 1 5.087-5.087v-.005Z" fill="#67A370"/><path d="M74.611 169.278v-33.77l24.2 16.885-24.2 16.885Z" fill="#fff"/><path d="M35.176 192.172h103.072a5.089 5.089 0 0 1 5.087 5.087v50.186a5.09 5.09 0 0 1-5.087 5.087H35.176a5.09 5.09 0 0 1-5.087-5.087v-50.181a5.09 5.09 0 0 1 5.087-5.087v-.005Z" fill="url(#e)"/><path d="M74.611 238.887v-33.766l24.2 16.885-24.2 16.881Z" fill="#fff"/><path d="M32.614 260.225h-2.2v11.054h2.2v-11.054ZM38.933 260.225h-2.2v11.054h2.2v-11.054Z" fill="#9D9D9D"/><path d="m240.982 275.28-14.786-6.318c-3.889-1.662-5.712-6.203-4.049-10.092l5.204-12.178c1.663-3.889 6.204-5.711 10.093-4.049l14.786 6.318c3.889 1.662 5.711 6.203 4.049 10.092l-5.204 12.178c-1.663 3.889-6.204 5.711-10.093 4.049Z" fill="#C1DDA3"/><path d="M231.616 255.46c-.102 2.463 4.412 10.965 4.412 10.965s3.023-.865 5.944-1.94c2.177-.79 4.286-1.701 5.018-2.459 1.715-1.758 2.135-5.136-.656-6.936-2.78-1.792-5.742.656-5.742.656s-.279-3.832-3.508-4.606a4.474 4.474 0 0 0-1.586-.103c-2.322.244-3.801 2.402-3.882 4.423Z" fill="#FF5050"/><path d="m177.992 273.206-14.126 8.602a3.2 3.2 0 0 1-4.389-1.068l-8.602-14.126a3.199 3.199 0 0 1 1.068-4.388l14.126-8.602a3.2 3.2 0 0 1 4.389 1.068l8.602 14.126a3.2 3.2 0 0 1-1.068 4.388Z" fill="#568F64"/><path d="M159.571 266.444a3.952 3.952 0 0 1 1.319-5.429 3.949 3.949 0 0 1 5.429 1.319 3.947 3.947 0 0 1-1.319 5.429 3.948 3.948 0 0 1-5.429-1.319Z" fill="#fff"/><path d="m174.219 269.826-11.622 7.076a6.805 6.805 0 0 1 11.622-7.076Z" fill="#fff"/><path d="m207.923 304.309-17.603-8.563a3.794 3.794 0 0 1-1.747-5.052l8.564-17.603a3.794 3.794 0 0 1 5.052-1.746l17.604 8.563a3.798 3.798 0 0 1 1.746 5.056l-8.564 17.603a3.798 3.798 0 0 1-5.056 1.746l.004-.004Z" fill="#568F64"/><path d="M202.863 281.633a4.671 4.671 0 0 1 6.249-2.158 4.67 4.67 0 0 1 2.158 6.249 4.673 4.673 0 0 1-6.249 2.158 4.672 4.672 0 0 1-2.158-6.249Z" fill="#fff"/><path d="m208.868 298.384-14.481-7.046a8.05 8.05 0 0 1 10.764-3.718 8.052 8.052 0 0 1 3.717 10.764Z" fill="#fff"/><path d="m56.638 336.666-33.87-16.387c-8.91-4.312-12.673-15.129-8.36-24.039l13.5-27.901c4.313-8.91 15.13-12.673 24.04-8.361l33.873 16.387c8.91 4.312 12.674 15.128 8.362 24.038L80.68 328.305c-4.312 8.91-15.129 12.673-24.04 8.361h-.003Z" fill="#C1DDA3"/><path d="M36.915 289.305c-.507 5.742 9.11 26.117 9.11 26.117s7.163-1.689 14.107-3.885c5.177-1.605 10.206-3.5 11.998-5.193 4.202-3.916 5.552-11.774-.777-16.28-6.303-4.492-13.494.9-13.494.9s-.233-8.987-7.694-11.152c-1.297-.374-2.532-.504-3.695-.416-5.456.316-9.15 5.2-9.555 9.909Z" fill="#FF5050"/></g><defs><linearGradient id="b" x1="327.367" y1="183.04" x2="327.367" y2="252.115" gradientUnits="userSpaceOnUse"><stop stop-color="#2C5F46"/><stop offset="1" stop-color="#67A370"/></linearGradient><linearGradient id="c" x1="353.837" y1="183.04" x2="353.837" y2="252.115" gradientUnits="userSpaceOnUse"><stop stop-color="#2C5F46"/><stop offset="1" stop-color="#67A370"/></linearGradient><linearGradient id="d" x1="380.295" y1="183.04" x2="380.295" y2="252.115" gradientUnits="userSpaceOnUse"><stop stop-color="#2C5F46"/><stop offset="1" stop-color="#67A370"/></linearGradient><linearGradient id="e" x1="86.712" y1="192.172" x2="86.712" y2="252.532" gradientUnits="userSpaceOnUse"><stop stop-color="#2C5F46"/><stop offset="1" stop-color="#67A370"/></linearGradient><clipPath id="a"><rect y=".5" width="439" height="365" rx="12.715" fill="#fff"/></clipPath></defs></svg>