<svg width="443" height="444" fill="none" xmlns="http://www.w3.org/2000/svg"><path d="M317.797 421.202c110.016-53.184 156.088-185.484 102.904-295.5-53.184-110.016-185.484-156.088-295.5-102.904C15.185 75.982-30.887 208.282 22.297 318.298c53.184 110.016 185.484 156.088 295.5 102.904Z" fill="#C1DDA3"/><path d="m328.186 304.312 86.434-16.298-.126-1.299-79.52.754 73.864-24.719-.294-1.257-87.313 12.569 74.577-40.011-.545-1.215-74.618 23.546 59.41-44.411-.713-1.131-77.09 36.911 58.027-63.725-65.82 47.302 40.975-63.935-61.755 61.086 28.448-76.336-42.442 63.18 12.36-71.727-33.56 76.21-4.273-76.043-13.282 67.748-18.057-72.314-.377 79.771-36.869-73.822 15.962 71.057-45.667-61.63 32.26 75.121-64.94-58.907 44.159 62.342-68.291-44.997 61.169 61.505-79.017-34.146-.629 1.131 61.463 42.19-75.792-20.865-.502 1.215 76.42 37.247-87.984-9.427-.293 1.299 74.995 21.996-79.604 2.094-.084 1.299 87.02 13.156-86.391 16.256.126 1.299 194.108-.629.879-.042 190.17-4.986.084-1.298-87.062-13.114Z" fill="#E3EFD7"/><path d="M402.843 147.248c-4.692-.796-9.007 2.346-13.49 3.058-3.059.503-5.405-.083-7.835-.209-7.123-.377-16.089 2.178-16.172 11.563.419 7.584 5.446 11.941 12.276 11.564 6.116-.335 11.689-1.844 17.848-.964 3.938.545 8.714 1.299 12.275-1.215 6.83-4.818 3.268-22.415-4.86-23.797h-.042ZM215.4 53.689c-6.703-1.131-12.82 3.31-19.23 4.357-4.399.713-7.709-.125-11.187-.293-10.181-.545-22.917 3.142-23.001 16.424.586 10.767 7.751 17.01 17.429 16.465 8.673-.503 16.633-2.598 25.39-1.341 5.614.796 12.443 1.844 17.47-1.717 9.721-6.871 4.651-31.884-6.913-33.853l.042-.042ZM117.811 131.237c-4.693-.796-9.008 2.347-13.491 3.059-3.059.503-5.405-.084-7.835-.21-7.123-.377-16.088 2.179-16.172 11.564.418 7.583 5.447 11.94 12.275 11.563 6.118-.335 11.689-1.843 17.848-.963 3.938.544 8.714 1.299 12.276-1.215 6.829-4.818 3.268-22.415-4.86-23.798h-.041Z" fill="#fff"/><path d="M11.02 290.575C35.654 366.283 100.05 424.1 179.57 439.309c2.304-18.519 13.365-84.632 55.764-115.677 0 0-96.321-99.673-224.316-33.057Z" fill="url(#a)"/><path d="M221.261 443.291c101.516.084 187.111-68.208 213.255-161.428-27.82-7.29-123.722-27.443-190.17 19.733-39.048 27.736-61.421 73.948-66.491 137.38 14.036 2.807 28.532 4.273 43.406 4.315Z" fill="url(#b)"/><path fill-rule="evenodd" clip-rule="evenodd" d="M239.32 373.269h33.156v22.848H239.32v-22.848Zm11.737 30.774h3.023v-7.926h3.635v7.926h3.007v3.211h-9.665v-3.211Zm-9.767-28.814v8.298h13.453v-8.298H241.29Zm15.763 0v8.298h13.452v-8.298h-13.452Zm0 10.613v8.315h13.452v-8.315h-13.452Zm-15.763 0v8.315h13.453v-8.315H241.29ZM136.539 357.525h32.326v22.291h-32.326v-22.291Zm11.443 30.023h2.948v-7.732h3.544v7.732h2.931v3.133h-9.423v-3.133Zm-9.522-28.111v8.096h13.116v-8.096H138.46Zm15.368 0v8.096h13.116v-8.096h-13.116Zm0 10.354v8.112h13.116v-8.112h-13.116Zm-15.368 0v8.112h13.116v-8.112H138.46ZM85.148 335.14h33.985v23.405H85.148V335.14Zm12.03 31.524h3.099v-8.119h3.726v8.119h3.082v3.289h-9.907v-3.289Zm-10.01-29.516v8.5h13.788v-8.5H87.167Zm16.156 0v8.5h13.789v-8.5h-13.789Zm0 10.871v8.518h13.789v-8.518h-13.789Zm-16.157 0v8.518h13.789v-8.518H87.167Z" fill="#fff"/><path fill-rule="evenodd" clip-rule="evenodd" d="M95.915 180.73c-6.097-32.789-6.482-54.024 1.155-53.637 7.636-.323 7.251 20.848 1.155 53.637 2.567.516 4.492 2.84 4.492 5.551 0 .71-.129 1.42-.385 2.001 31.572 11.166 50.182 21.494 46.075 28.013-3.53 6.842-21.754-4.196-47.166-26.141-.514.516-1.091.968-1.733 1.291l6.417 103.079H88.278l6.417-103.079a5.3 5.3 0 0 1-1.796-1.356c-25.284 21.817-43.444 32.854-46.974 26.012-4.107-6.519 14.44-16.782 45.883-27.948a6.013 6.013 0 0 1-.32-1.872c0-2.775 1.924-5.035 4.491-5.551h-.064Z" fill="#2F6357"/><path fill-rule="evenodd" clip-rule="evenodd" d="M139.578 240.55c-3.365-18.18-3.578-29.954.637-29.739 4.216-.179 4.003 11.559.638 29.739 1.417.287 2.48 1.575 2.48 3.078 0 .394-.071.788-.213 1.11 17.428 6.191 27.7 11.917 25.433 15.531-1.948 3.794-12.008-2.326-26.035-14.494a3.71 3.71 0 0 1-.956.716l3.542 57.153h-9.741l3.542-57.153a2.923 2.923 0 0 1-.992-.751c-13.956 12.096-23.981 18.216-25.929 14.422-2.267-3.614 7.97-9.305 25.327-15.496a3.364 3.364 0 0 1-.177-1.038c0-1.539 1.062-2.791 2.479-3.078h-.035Z" fill="#2F6357"/><path fill-rule="evenodd" clip-rule="evenodd" d="M162.813 203.404c-5.268-28.406-5.6-46.803.998-46.468 6.597-.279 6.265 18.062.997 46.468 2.218.448 3.882 2.461 3.882 4.809 0 .615-.111 1.231-.333 1.734 27.278 9.674 43.357 18.621 39.809 24.268-3.05 5.928-18.796-3.634-40.752-22.647a5.813 5.813 0 0 1-1.497 1.119l5.545 89.301h-15.247l5.544-89.301a4.583 4.583 0 0 1-1.552-1.174c-21.845 18.9-37.536 28.462-40.585 22.535-3.549-5.648 12.475-14.539 39.642-24.213a5.247 5.247 0 0 1-.277-1.622c0-2.404 1.663-4.361 3.881-4.809h-.055Z" fill="#00785F"/><path fill-rule="evenodd" clip-rule="evenodd" d="M396.457 335.291h-121.32v-51.339h121.32v51.339Zm-94.748-39.555v24.31h11.783v-24.31h-11.783Zm-1.544 24.31v-24.31h-11.864v24.31h11.864Zm37.136-24.31v24.31h11.782v-24.31h-11.782Zm-1.626 24.31v-24.31h-11.863v24.31h11.863Zm37.136-24.31v24.31h11.783v-24.31h-11.783Zm-1.625 24.31v-24.31h-11.864v24.31h11.864Z" fill="#fff"/><path fill-rule="evenodd" clip-rule="evenodd" d="M275.164 283.952H238.76v51.339h36.404v-51.339Zm-16.821 17.223h5.526v13.432h-5.526v-13.432Zm-2.844 13.432h-5.607v-13.432h5.607v13.432Z" fill="#fff"/><path fill-rule="evenodd" clip-rule="evenodd" d="M275.137 283.943h121.32l-31.122-35.434h-81.341l-8.857 35.434Z" fill="#34664D"/><path fill-rule="evenodd" clip-rule="evenodd" d="M238.666 283.943h36.486l8.857-35.434-45.343 35.434ZM275.167 248.828s-.569-.412-.894-.659c-12.758-7.087-24.622-15.657-35.267-26.287 9.02 14.173 20.478 23.238 33.967 28.347-24.378 4.12-46.725-13.762-45.181-39.637 11.539-1.648 22.022.577 30.229 6.592-.244-10.3 3.738-20.766 12.514-28.759 19.177 14.503 23.89 37.412 6.988 59.909-4.144-14.092-6.582-28.677-6.826-43.84-2.031 9.971-2.194 19.2-.65 27.935 1.788 4.038 3.169 8.653 3.982 13.762.325.907.731 1.813 1.138 2.637Z" fill="#00785F"/><defs><linearGradient id="a" x1="123.177" y1="267.636" x2="123.177" y2="439.309" gradientUnits="userSpaceOnUse"><stop stop-color="#2E5F49"/><stop offset="1" stop-color="#B0C9B6"/></linearGradient><linearGradient id="b" x1="306.185" y1="271.304" x2="306.185" y2="443.291" gradientUnits="userSpaceOnUse"><stop stop-color="#2C5F46"/><stop offset="1" stop-color="#67A370"/></linearGradient></defs></svg>