<svg width="876" height="258" fill="none" xmlns="http://www.w3.org/2000/svg"><rect x="4.644" y="4.523" width="838.723" height="193.793" rx="19.615" stroke="#fff" stroke-width="7.846"/><path d="M847.29 60.228h19.614a7.845 7.845 0 0 1 7.846 7.846v55.706a7.846 7.846 0 0 1-7.846 7.846H847.29V60.228Z" fill="#fff"/><path d="M21.116 22.568h100.427L86.328 180.27H21.116V22.568Z" fill="#EB9928"/><path d="M97.632 22.545h366.609l-69.5 158h-332.5l35.391-158Z" fill="#EB9928"/><path d="M212.745 22.568h65.722l-35.49 157.702h-65.722l35.49-157.702ZM291.2 22.568h65.721L321.432 180.27H255.71L291.2 22.568Z" fill="#EB9928"/><path d="M479.678 22.545h249.563l-84.088 158H409.241l70.437-158Z" fill="#CCF6FF"/><path d="M681.923 22.568h65.722L694.741 180.27h-48.307l35.489-157.702Z" fill="#CCF6FF"/><path d="M760.109 22.568h65.212V180.27h-116.08l50.868-157.702Z" fill="#F9F871"/><path d="M721.421 234.78h4.6V237h-7.4v-13.96h2.8v11.74Zm5.659-3.36c0-1.12.22-2.114.66-2.98.454-.867 1.06-1.534 1.82-2a4.897 4.897 0 0 1 2.58-.7c.827 0 1.547.166 2.16.5.627.333 1.127.753 1.5 1.26v-1.58h2.82V237h-2.82v-1.62c-.36.52-.86.953-1.5 1.3-.626.333-1.353.5-2.18.5-.933 0-1.786-.24-2.56-.72-.76-.48-1.366-1.154-1.82-2.02-.44-.88-.66-1.887-.66-3.02Zm8.72.04c0-.68-.133-1.26-.4-1.74a2.722 2.722 0 0 0-1.08-1.12c-.453-.267-.94-.4-1.46-.4s-1 .126-1.44.38c-.44.253-.8.626-1.08 1.12-.266.48-.4 1.053-.4 1.72 0 .666.134 1.253.4 1.76.28.493.64.873 1.08 1.14.454.266.934.4 1.44.4.52 0 1.007-.127 1.46-.38.454-.267.814-.64 1.08-1.12.267-.494.4-1.08.4-1.76Zm15.401-3.24h-1.94V237h-2.84v-8.78h-1.26v-2.3h1.26v-.56c0-1.36.386-2.36 1.16-3 .773-.64 1.94-.94 3.5-.9v2.36c-.68-.014-1.154.1-1.42.34-.267.24-.4.673-.4 1.3v.46h1.94v2.3Zm3.234-3.62c-.493 0-.906-.154-1.24-.46-.32-.32-.48-.714-.48-1.18 0-.467.16-.854.48-1.16.334-.32.747-.48 1.24-.48.494 0 .9.16 1.22.48.334.306.5.693.5 1.16 0 .466-.166.86-.5 1.18-.32.306-.726.46-1.22.46Zm1.38 1.32V237h-2.8v-11.08h2.8Zm8.907-.16c1.32 0 2.386.42 3.2 1.26.813.826 1.22 1.986 1.22 3.48v6.5h-2.8v-6.12c0-.88-.22-1.554-.66-2.02-.44-.48-1.04-.72-1.8-.72-.774 0-1.387.24-1.84.72-.44.466-.66 1.14-.66 2.02V237h-2.8v-11.08h2.8v1.38c.373-.48.846-.854 1.42-1.12a4.395 4.395 0 0 1 1.92-.42Zm11.128 5.66c0-1.12.22-2.114.66-2.98.453-.867 1.067-1.534 1.84-2a4.892 4.892 0 0 1 2.58-.7c.72 0 1.407.16 2.06.48.653.306 1.173.72 1.56 1.24v-5.26h2.84V237h-2.84v-1.64c-.347.546-.833.986-1.46 1.32-.627.333-1.353.5-2.18.5-.933 0-1.787-.24-2.56-.72-.773-.48-1.387-1.154-1.84-2.02-.44-.88-.66-1.887-.66-3.02Zm8.72.04c0-.68-.133-1.26-.4-1.74a2.735 2.735 0 0 0-1.08-1.12c-.453-.267-.94-.4-1.46-.4s-1 .126-1.44.38c-.44.253-.8.626-1.08 1.12-.267.48-.4 1.053-.4 1.72 0 .666.133 1.253.4 1.76.28.493.64.873 1.08 1.14a2.8 2.8 0 0 0 1.44.4c.52 0 1.007-.127 1.46-.38.453-.267.813-.64 1.08-1.12.267-.494.4-1.08.4-1.76Zm15.855-.24c0 .4-.027.76-.08 1.08h-8.1c.066.8.346 1.426.84 1.88.493.453 1.1.68 1.82.68 1.04 0 1.78-.447 2.22-1.34h3.02c-.32 1.066-.934 1.946-1.84 2.64-.907.68-2.02 1.02-3.34 1.02-1.067 0-2.027-.234-2.88-.7a5.156 5.156 0 0 1-1.98-2.02c-.467-.867-.7-1.867-.7-3 0-1.147.233-2.154.7-3.02a4.874 4.874 0 0 1 1.96-2c.84-.467 1.806-.7 2.9-.7 1.053 0 1.993.226 2.82.68.84.453 1.486 1.1 1.94 1.94.466.826.7 1.78.7 2.86Zm-2.9-.8c-.014-.72-.274-1.294-.78-1.72-.507-.44-1.127-.66-1.86-.66-.694 0-1.28.213-1.76.64-.467.413-.754.993-.86 1.74h5.26Zm14.329 4 2.8-8.5h2.98l-4.1 11.08h-3.4l-4.08-11.08h3l2.8 8.5Zm8.773-9.82c-.494 0-.907-.154-1.24-.46-.32-.32-.48-.714-.48-1.18 0-.467.16-.854.48-1.16.333-.32.746-.48 1.24-.48.493 0 .9.16 1.22.48.333.306.5.693.5 1.16 0 .466-.167.86-.5 1.18-.32.306-.727.46-1.22.46Zm1.38 1.32V237h-2.8v-11.08h2.8Zm13.066 5.3c0 .4-.027.76-.08 1.08h-8.1c.067.8.347 1.426.84 1.88.493.453 1.1.68 1.82.68 1.04 0 1.78-.447 2.22-1.34h3.02c-.32 1.066-.933 1.946-1.84 2.64-.907.68-2.02 1.02-3.34 1.02-1.067 0-2.027-.234-2.88-.7a5.156 5.156 0 0 1-1.98-2.02c-.467-.867-.7-1.867-.7-3 0-1.147.233-2.154.7-3.02a4.88 4.88 0 0 1 1.96-2c.84-.467 1.807-.7 2.9-.7 1.053 0 1.993.226 2.82.68.84.453 1.487 1.1 1.94 1.94.467.826.7 1.78.7 2.86Zm-2.9-.8c-.013-.72-.273-1.294-.78-1.72-.507-.44-1.127-.66-1.86-.66-.693 0-1.28.213-1.76.64-.467.413-.753.993-.86 1.74h5.26Z" fill="#fff"/><path d="M751.61 91v-5.822h10.143v26.732h-6.518V91h-3.625Zm14.427 7.178c0-4.2.806-7.507 2.417-9.924 1.635-2.417 4.26-3.625 7.873-3.625 3.613 0 6.225 1.208 7.836 3.625 1.636 2.417 2.454 5.725 2.454 9.924 0 4.248-.818 7.58-2.454 9.997-1.611 2.417-4.223 3.625-7.836 3.625-3.613 0-6.238-1.208-7.873-3.625-1.611-2.417-2.417-5.749-2.417-9.997Zm14.428 0c0-2.466-.269-4.358-.806-5.676-.537-1.343-1.648-2.014-3.332-2.014-1.685 0-2.795.671-3.333 2.014-.537 1.318-.805 3.21-.805 5.676 0 1.66.097 3.039.293 4.138.195 1.074.586 1.953 1.172 2.636.61.659 1.501.989 2.673.989 1.172 0 2.05-.33 2.636-.989.611-.683 1.013-1.562 1.209-2.636.195-1.099.293-2.478.293-4.138Zm8.947-6.262c0-1.977.562-3.503 1.685-4.577 1.147-1.074 2.624-1.611 4.431-1.611 1.806 0 3.271.537 4.394 1.61 1.123 1.075 1.684 2.6 1.684 4.578 0 1.978-.561 3.503-1.684 4.577-1.123 1.075-2.588 1.612-4.394 1.612-1.807 0-3.284-.538-4.431-1.612-1.123-1.074-1.685-2.6-1.685-4.577Zm24.864-5.786-14.098 25.78h-6.042l14.098-25.78h6.042Zm-18.785 3.26c-1.172 0-1.758.842-1.758 2.526 0 1.66.586 2.49 1.758 2.49.561 0 1.001-.207 1.318-.622.318-.415.476-1.038.476-1.868 0-1.684-.598-2.527-1.794-2.527Zm11.352 16.734c0-1.977.561-3.503 1.684-4.577 1.123-1.074 2.588-1.611 4.394-1.611 1.807 0 3.272.537 4.395 1.611 1.123 1.074 1.684 2.6 1.684 4.577 0 1.978-.561 3.503-1.684 4.577-1.123 1.075-2.588 1.612-4.395 1.612-1.806 0-3.271-.537-4.394-1.612-1.123-1.074-1.684-2.599-1.684-4.577Zm6.042-2.527c-.562 0-1.001.208-1.319.623-.292.415-.439 1.05-.439 1.904 0 1.66.586 2.49 1.758 2.49.561 0 1.001-.207 1.318-.622.317-.415.476-1.038.476-1.868 0-.83-.159-1.452-.476-1.867-.317-.44-.757-.66-1.318-.66Z" fill="#262626"/><path d="M483.421 221.009v14.8h-2.8v-14.8h2.8Zm13.066 9.02c0 .4-.027.76-.08 1.08h-8.1c.067.8.347 1.427.84 1.88.493.454 1.1.68 1.82.68 1.04 0 1.78-.446 2.22-1.34h3.02c-.32 1.067-.933 1.947-1.84 2.64-.907.68-2.02 1.02-3.34 1.02-1.067 0-2.027-.233-2.88-.7a5.15 5.15 0 0 1-1.98-2.02c-.467-.866-.7-1.866-.7-3 0-1.146.233-2.153.7-3.02a4.892 4.892 0 0 1 1.96-2c.84-.466 1.807-.7 2.9-.7 1.053 0 1.993.227 2.82.68.84.454 1.487 1.1 1.94 1.94.467.827.7 1.78.7 2.86Zm-2.9-.8c-.013-.72-.273-1.293-.78-1.72-.507-.44-1.127-.66-1.86-.66-.693 0-1.28.214-1.76.64-.467.414-.753.994-.86 1.74h5.26Zm9.184 6.76c-.907 0-1.72-.16-2.44-.48-.72-.333-1.293-.78-1.72-1.34a3.412 3.412 0 0 1-.68-1.86h2.82c.053.427.26.78.62 1.06.373.28.833.42 1.38.42.533 0 .947-.106 1.24-.32.307-.213.46-.486.46-.82 0-.36-.187-.626-.56-.8-.36-.186-.94-.386-1.74-.6-.827-.2-1.507-.406-2.04-.62a3.625 3.625 0 0 1-1.36-.98c-.373-.44-.56-1.033-.56-1.78 0-.613.173-1.173.52-1.68.36-.506.867-.906 1.52-1.2.667-.293 1.447-.44 2.34-.44 1.32 0 2.373.334 3.16 1 .787.654 1.22 1.54 1.3 2.66h-2.68c-.04-.44-.227-.786-.56-1.04-.32-.266-.753-.4-1.3-.4-.507 0-.9.094-1.18.28a.899.899 0 0 0-.4.78c0 .374.187.66.56.86.373.187.953.38 1.74.58.8.2 1.46.407 1.98.62.52.214.967.547 1.34 1 .387.44.587 1.027.6 1.76 0 .64-.18 1.214-.54 1.72-.347.507-.853.907-1.52 1.2-.653.28-1.42.42-2.3.42Zm21.884-11.26v11.08h-2.82v-1.4c-.36.48-.833.86-1.42 1.14-.573.267-1.2.4-1.88.4-.867 0-1.633-.18-2.3-.54a4.017 4.017 0 0 1-1.58-1.62c-.373-.72-.56-1.573-.56-2.56v-6.5h2.8v6.1c0 .88.22 1.56.66 2.04.44.467 1.04.7 1.8.7.773 0 1.38-.233 1.82-.7.44-.48.66-1.16.66-2.04v-6.1h2.82Zm7.003 11.26c-.907 0-1.72-.16-2.44-.48-.72-.333-1.294-.78-1.72-1.34a3.405 3.405 0 0 1-.68-1.86h2.82c.053.427.26.78.62 1.06.373.28.833.42 1.38.42.533 0 .946-.106 1.24-.32.306-.213.46-.486.46-.82 0-.36-.187-.626-.56-.8-.36-.186-.94-.386-1.74-.6-.827-.2-1.507-.406-2.04-.62a3.617 3.617 0 0 1-1.36-.98c-.374-.44-.56-1.033-.56-1.78 0-.613.173-1.173.52-1.68.36-.506.866-.906 1.52-1.2.666-.293 1.446-.44 2.34-.44 1.32 0 2.373.334 3.16 1 .786.654 1.22 1.54 1.3 2.66h-2.68c-.04-.44-.227-.786-.56-1.04-.32-.266-.754-.4-1.3-.4-.507 0-.9.094-1.18.28a.899.899 0 0 0-.4.78c0 .374.186.66.56.86.373.187.953.38 1.74.58.8.2 1.46.407 1.98.62.52.214.966.547 1.34 1 .386.44.586 1.027.6 1.76 0 .64-.18 1.214-.54 1.72-.347.507-.854.907-1.52 1.2-.654.28-1.42.42-2.3.42Zm5.938-5.76c0-1.12.22-2.113.66-2.98.453-.866 1.06-1.533 1.82-2a4.902 4.902 0 0 1 2.58-.7c.827 0 1.547.167 2.16.5.627.334 1.127.754 1.5 1.26v-1.58h2.82v11.08h-2.82v-1.62c-.36.52-.86.954-1.5 1.3-.627.334-1.353.5-2.18.5-.933 0-1.787-.24-2.56-.72-.76-.48-1.367-1.153-1.82-2.02-.44-.88-.66-1.886-.66-3.02Zm8.72.04c0-.68-.133-1.26-.4-1.74a2.747 2.747 0 0 0-1.08-1.12c-.453-.266-.94-.4-1.46-.4s-1 .127-1.44.38c-.44.254-.8.627-1.08 1.12-.267.48-.4 1.054-.4 1.72 0 .667.133 1.254.4 1.76.28.494.64.874 1.08 1.14.453.267.933.4 1.44.4.52 0 1.007-.126 1.46-.38a2.91 2.91 0 0 0 1.08-1.12c.267-.493.4-1.08.4-1.76Zm9.895-5.72c.826 0 1.553.167 2.18.5.626.32 1.12.74 1.48 1.26v-1.58h2.82v11.16c0 1.027-.207 1.94-.62 2.74a4.528 4.528 0 0 1-1.86 1.92c-.827.48-1.827.72-3 .72-1.574 0-2.867-.366-3.88-1.1-1-.733-1.567-1.733-1.7-3h2.78c.146.507.46.907.94 1.2.493.307 1.086.46 1.78.46.813 0 1.473-.246 1.98-.74.506-.48.76-1.213.76-2.2v-1.72c-.36.52-.86.954-1.5 1.3-.627.347-1.347.52-2.16.52-.934 0-1.787-.24-2.56-.72-.774-.48-1.387-1.153-1.84-2.02-.44-.88-.66-1.886-.66-3.02 0-1.12.22-2.113.66-2.98.453-.866 1.06-1.533 1.82-2a4.902 4.902 0 0 1 2.58-.7Zm3.66 5.72c0-.68-.134-1.26-.4-1.74a2.747 2.747 0 0 0-1.08-1.12 2.84 2.84 0 0 0-1.46-.4c-.52 0-1 .127-1.44.38-.44.254-.8.627-1.08 1.12-.267.48-.4 1.054-.4 1.72 0 .667.133 1.254.4 1.76.28.494.64.874 1.08 1.14.453.267.933.4 1.44.4a2.94 2.94 0 0 0 1.46-.38 2.91 2.91 0 0 0 1.08-1.12c.266-.493.4-1.08.4-1.76Zm15.854-.24c0 .4-.026.76-.08 1.08h-8.1c.067.8.347 1.427.84 1.88.494.454 1.1.68 1.82.68 1.04 0 1.78-.446 2.22-1.34h3.02c-.32 1.067-.933 1.947-1.84 2.64-.906.68-2.02 1.02-3.34 1.02-1.066 0-2.026-.233-2.88-.7a5.15 5.15 0 0 1-1.98-2.02c-.466-.866-.7-1.866-.7-3 0-1.146.234-2.153.7-3.02a4.892 4.892 0 0 1 1.96-2c.84-.466 1.807-.7 2.9-.7 1.054 0 1.994.227 2.82.68.84.454 1.487 1.1 1.94 1.94.467.827.7 1.78.7 2.86Zm-2.9-.8c-.013-.72-.273-1.293-.78-1.72-.506-.44-1.126-.66-1.86-.66-.693 0-1.28.214-1.76.64-.466.414-.753.994-.86 1.74h5.26Zm9.184 6.76c-.907 0-1.72-.16-2.44-.48-.72-.333-1.293-.78-1.72-1.34a3.412 3.412 0 0 1-.68-1.86h2.82c.053.427.26.78.62 1.06.373.28.833.42 1.38.42.533 0 .947-.106 1.24-.32.307-.213.46-.486.46-.82 0-.36-.187-.626-.56-.8-.36-.186-.94-.386-1.74-.6-.827-.2-1.507-.406-2.04-.62a3.625 3.625 0 0 1-1.36-.98c-.373-.44-.56-1.033-.56-1.78 0-.613.173-1.173.52-1.68.36-.506.867-.906 1.52-1.2.667-.293 1.447-.44 2.34-.44 1.32 0 2.373.334 3.16 1 .787.654 1.22 1.54 1.3 2.66h-2.68c-.04-.44-.227-.786-.56-1.04-.32-.266-.753-.4-1.3-.4-.507 0-.9.094-1.18.28a.899.899 0 0 0-.4.78c0 .374.187.66.56.86.373.187.953.38 1.74.58.8.2 1.46.407 1.98.62.52.214.967.547 1.34 1 .387.44.587 1.027.6 1.76 0 .64-.18 1.214-.54 1.72-.347.507-.853.907-1.52 1.2-.653.28-1.42.42-2.3.42Z" fill="#fff"/><path d="M539.779 106.785v-5.054l11.572-16.551h6.994v16.185h3.003v5.42h-3.003v4.76h-6.262v-4.76h-12.304Zm12.744-14.721-6.152 9.301h6.152v-9.301Zm11.892 5.749c0-4.199.806-7.507 2.417-9.924 1.635-2.416 4.26-3.625 7.873-3.625 3.613 0 6.225 1.209 7.836 3.625 1.636 2.417 2.454 5.725 2.454 9.924 0 4.248-.818 7.58-2.454 9.997-1.611 2.417-4.223 3.625-7.836 3.625-3.613 0-6.238-1.208-7.873-3.625-1.611-2.417-2.417-5.749-2.417-9.997Zm14.428 0c0-2.466-.269-4.358-.806-5.676-.537-1.343-1.648-2.014-3.332-2.014-1.685 0-2.795.671-3.333 2.014-.537 1.318-.805 3.21-.805 5.676 0 1.66.098 3.039.293 4.138.195 1.074.586 1.953 1.172 2.636.61.66 1.501.989 2.673.989 1.172 0 2.05-.329 2.636-.989.611-.683 1.013-1.562 1.209-2.636.195-1.099.293-2.478.293-4.138Zm8.947-6.262c0-1.977.562-3.503 1.685-4.577 1.147-1.074 2.624-1.611 4.431-1.611 1.806 0 3.271.537 4.394 1.61 1.123 1.075 1.684 2.6 1.684 4.578 0 1.978-.561 3.503-1.684 4.578-1.123 1.074-2.588 1.61-4.394 1.61-1.807 0-3.284-.536-4.431-1.61-1.123-1.075-1.685-2.6-1.685-4.578Zm24.864-5.785-14.098 25.779h-6.042l14.098-25.78h6.042Zm-18.785 3.259c-1.172 0-1.758.842-1.758 2.526 0 1.66.586 2.49 1.758 2.49.561 0 1.001-.207 1.318-.622.318-.415.476-1.038.476-1.868 0-1.684-.598-2.526-1.794-2.526Zm11.352 16.734c0-1.977.561-3.503 1.684-4.577 1.123-1.074 2.588-1.611 4.394-1.611 1.807 0 3.272.537 4.395 1.611 1.123 1.074 1.684 2.6 1.684 4.577 0 1.978-.561 3.503-1.684 4.578-1.123 1.074-2.588 1.611-4.395 1.611-1.806 0-3.271-.537-4.394-1.611-1.123-1.075-1.684-2.6-1.684-4.578Zm6.042-2.526c-.562 0-1.001.207-1.318.622-.293.415-.44 1.05-.44 1.904 0 1.66.586 2.49 1.758 2.49.561 0 1.001-.207 1.318-.622.317-.415.476-1.038.476-1.868 0-.83-.159-1.452-.476-1.867-.317-.44-.757-.659-1.318-.659Z" fill="#262626"/><path d="M35.06 234.325h4.6v2.22h-7.4v-13.96h2.8v11.74Zm5.66-3.36c0-1.12.22-2.113.66-2.98.454-.867 1.06-1.533 1.82-2a4.894 4.894 0 0 1 2.58-.7c.827 0 1.547.167 2.16.5.627.333 1.127.753 1.5 1.26v-1.58h2.82v11.08h-2.82v-1.62c-.36.52-.86.953-1.5 1.3-.626.333-1.353.5-2.18.5-.933 0-1.786-.24-2.56-.72-.76-.48-1.366-1.153-1.82-2.02-.44-.88-.66-1.887-.66-3.02Zm8.72.04c0-.68-.133-1.26-.4-1.74a2.737 2.737 0 0 0-1.08-1.12c-.453-.267-.94-.4-1.46-.4s-1 .127-1.44.38c-.44.253-.8.627-1.08 1.12-.266.48-.4 1.053-.4 1.72s.134 1.253.4 1.76c.28.493.64.873 1.08 1.14.454.267.934.4 1.44.4.52 0 1.007-.127 1.46-.38.454-.267.814-.64 1.08-1.12.267-.493.4-1.08.4-1.76Zm18.94-8.42v2.26h-5.82v3.58h4.46v2.22h-4.46v5.9h-2.8v-13.96h8.62Zm1.266 8.38c0-1.12.22-2.113.66-2.98.453-.867 1.06-1.533 1.82-2a4.894 4.894 0 0 1 2.58-.7c.827 0 1.547.167 2.16.5.627.333 1.127.753 1.5 1.26v-1.58h2.82v11.08h-2.82v-1.62c-.36.52-.86.953-1.5 1.3-.627.333-1.353.5-2.18.5-.933 0-1.787-.24-2.56-.72-.76-.48-1.367-1.153-1.82-2.02-.44-.88-.66-1.887-.66-3.02Zm8.72.04c0-.68-.133-1.26-.4-1.74a2.737 2.737 0 0 0-1.08-1.12c-.453-.267-.94-.4-1.46-.4s-1 .127-1.44.38c-.44.253-.8.627-1.08 1.12-.267.48-.4 1.053-.4 1.72s.133 1.253.4 1.76c.28.493.64.873 1.08 1.14.453.267.933.4 1.44.4.52 0 1.007-.127 1.46-.38.453-.267.813-.64 1.08-1.12.267-.493.4-1.08.4-1.76Zm8.355-3.92c.36-.533.853-.967 1.48-1.3.64-.333 1.366-.5 2.18-.5.946 0 1.8.233 2.56.7.773.467 1.38 1.133 1.82 2 .453.853.68 1.847.68 2.98s-.227 2.14-.68 3.02c-.44.867-1.047 1.54-1.82 2.02-.76.48-1.614.72-2.56.72-.827 0-1.554-.16-2.18-.48a4.33 4.33 0 0 1-1.48-1.28v1.58h-2.8v-14.8h2.8v5.34Zm5.86 3.88c0-.667-.14-1.24-.42-1.72a2.737 2.737 0 0 0-1.08-1.12 2.84 2.84 0 0 0-1.44-.38c-.507 0-.987.133-1.44.4-.44.253-.8.627-1.08 1.12-.267.493-.4 1.073-.4 1.74s.133 1.247.4 1.74c.28.493.64.873 1.08 1.14.453.253.933.38 1.44.38.52 0 1-.133 1.44-.4a2.88 2.88 0 0 0 1.08-1.14c.28-.493.42-1.08.42-1.76Zm7.694-3.78a3.96 3.96 0 0 1 1.4-1.38c.587-.333 1.254-.5 2-.5v2.94h-.74c-.88 0-1.546.207-2 .62-.44.413-.66 1.133-.66 2.16v5.52h-2.8v-11.08h2.8v1.72Zm6.706-3.04c-.493 0-.906-.153-1.24-.46-.32-.32-.48-.713-.48-1.18 0-.467.16-.853.48-1.16.334-.32.747-.48 1.24-.48.494 0 .9.16 1.22.48.334.307.5.693.5 1.16 0 .467-.166.86-.5 1.18-.32.307-.726.46-1.22.46Zm1.38 1.32v11.08h-2.8v-11.08h2.8Zm2.047 5.54c0-1.147.233-2.147.7-3a4.914 4.914 0 0 1 1.94-2c.826-.48 1.773-.72 2.84-.72 1.373 0 2.506.347 3.4 1.04.906.68 1.513 1.64 1.82 2.88h-3.02a2.141 2.141 0 0 0-.82-1.12c-.374-.28-.84-.42-1.4-.42-.8 0-1.434.293-1.9.88-.467.573-.7 1.393-.7 2.46 0 1.053.233 1.873.7 2.46.466.573 1.1.86 1.9.86 1.133 0 1.873-.507 2.22-1.52h3.02c-.307 1.2-.914 2.153-1.82 2.86-.907.707-2.04 1.06-3.4 1.06-1.067 0-2.014-.233-2.84-.7a5.085 5.085 0 0 1-1.94-2c-.467-.867-.7-1.873-.7-3.02Zm12.031-.04c0-1.12.22-2.113.66-2.98.453-.867 1.06-1.533 1.82-2a4.892 4.892 0 0 1 2.58-.7c.827 0 1.547.167 2.16.5.627.333 1.127.753 1.5 1.26v-1.58h2.82v11.08h-2.82v-1.62c-.36.52-.86.953-1.5 1.3-.627.333-1.353.5-2.18.5-.933 0-1.787-.24-2.56-.72-.76-.48-1.367-1.153-1.82-2.02-.44-.88-.66-1.887-.66-3.02Zm8.72.04c0-.68-.133-1.26-.4-1.74a2.74 2.74 0 0 0-1.08-1.12c-.453-.267-.94-.4-1.46-.4s-1 .127-1.44.38c-.44.253-.8.627-1.08 1.12-.267.48-.4 1.053-.4 1.72s.133 1.253.4 1.76c.28.493.64.873 1.08 1.14.453.267.933.4 1.44.4.52 0 1.007-.127 1.46-.38.453-.267.813-.64 1.08-1.12.267-.493.4-1.08.4-1.76Zm8.815-3.24v5.36c0 .373.086.647.26.82.186.16.493.24.92.24h1.3v2.36h-1.76c-2.36 0-3.54-1.147-3.54-3.44v-5.34h-1.32v-2.3h1.32v-2.74h2.82v2.74h2.48v2.3h-2.48Zm5.914-3.62c-.494 0-.907-.153-1.24-.46-.32-.32-.48-.713-.48-1.18 0-.467.16-.853.48-1.16.333-.32.746-.48 1.24-.48.493 0 .9.16 1.22.48.333.307.5.693.5 1.16 0 .467-.167.86-.5 1.18-.32.307-.727.46-1.22.46Zm1.38 1.32v11.08h-2.8v-11.08h2.8Zm7.686 11.26c-1.067 0-2.027-.233-2.88-.7a5.249 5.249 0 0 1-2.02-2.02c-.48-.867-.72-1.867-.72-3s.247-2.133.74-3a5.21 5.21 0 0 1 2.06-2c.867-.48 1.833-.72 2.9-.72s2.033.24 2.9.72a5.072 5.072 0 0 1 2.04 2c.507.867.76 1.867.76 3s-.26 2.133-.78 3a5.314 5.314 0 0 1-2.08 2.02c-.867.467-1.84.7-2.92.7Zm0-2.44c.507 0 .98-.12 1.42-.36a2.74 2.74 0 0 0 1.08-1.12c.267-.493.4-1.093.4-1.8 0-1.053-.28-1.86-.84-2.42a2.683 2.683 0 0 0-2.02-.86c-.8 0-1.473.287-2.02.86-.533.56-.8 1.367-.8 2.42s.26 1.867.78 2.44c.533.56 1.2.84 2 .84Zm13.974-8.98c1.32 0 2.387.42 3.2 1.26.813.827 1.22 1.987 1.22 3.48v6.5h-2.8v-6.12c0-.88-.22-1.553-.66-2.02-.44-.48-1.04-.72-1.8-.72-.773 0-1.387.24-1.84.72-.44.467-.66 1.14-.66 2.02v6.12h-2.8v-11.08h2.8v1.38a3.8 3.8 0 0 1 1.42-1.12 4.402 4.402 0 0 1 1.92-.42Zm11.128 5.66c0-1.12.22-2.113.66-2.98.454-.867 1.067-1.533 1.84-2a4.897 4.897 0 0 1 2.58-.7c.72 0 1.407.16 2.06.48.654.307 1.174.72 1.56 1.24v-5.26h2.84v14.8h-2.84v-1.64c-.346.547-.833.987-1.46 1.32-.626.333-1.353.5-2.18.5-.933 0-1.786-.24-2.56-.72-.773-.48-1.386-1.153-1.84-2.02-.44-.88-.66-1.887-.66-3.02Zm8.72.04c0-.68-.133-1.26-.4-1.74a2.728 2.728 0 0 0-1.08-1.12c-.453-.267-.94-.4-1.46-.4s-1 .127-1.44.38c-.44.253-.8.627-1.08 1.12-.266.48-.4 1.053-.4 1.72s.134 1.253.4 1.76c.28.493.64.873 1.08 1.14.454.267.934.4 1.44.4.52 0 1.007-.127 1.46-.38.454-.267.814-.64 1.08-1.12.267-.493.4-1.08.4-1.76Zm15.855-.24c0 .4-.027.76-.08 1.08h-8.1c.067.8.347 1.427.84 1.88.493.453 1.1.68 1.82.68 1.04 0 1.78-.447 2.22-1.34h3.02c-.32 1.067-.933 1.947-1.84 2.64-.907.68-2.02 1.02-3.34 1.02-1.067 0-2.027-.233-2.88-.7a5.15 5.15 0 0 1-1.98-2.02c-.467-.867-.7-1.867-.7-3 0-1.147.233-2.153.7-3.02a4.886 4.886 0 0 1 1.96-2c.84-.467 1.807-.7 2.9-.7 1.053 0 1.993.227 2.82.68.84.453 1.487 1.1 1.94 1.94.467.827.7 1.78.7 2.86Zm-2.9-.8c-.013-.72-.273-1.293-.78-1.72-.507-.44-1.127-.66-1.86-.66-.693 0-1.28.213-1.76.64-.467.413-.753.993-.86 1.74h5.26Zm9.184 6.76c-.907 0-1.72-.16-2.44-.48-.72-.333-1.294-.78-1.72-1.34a3.405 3.405 0 0 1-.68-1.86h2.82c.053.427.26.78.62 1.06.373.28.833.42 1.38.42.533 0 .946-.107 1.24-.32.306-.213.46-.487.46-.82 0-.36-.187-.627-.56-.8-.36-.187-.94-.387-1.74-.6-.827-.2-1.507-.407-2.04-.62a3.617 3.617 0 0 1-1.36-.98c-.374-.44-.56-1.033-.56-1.78 0-.613.173-1.173.52-1.68.36-.507.866-.907 1.52-1.2.666-.293 1.446-.44 2.34-.44 1.32 0 2.373.333 3.16 1 .786.653 1.22 1.54 1.3 2.66h-2.68c-.04-.44-.227-.787-.56-1.04-.32-.267-.754-.4-1.3-.4-.507 0-.9.093-1.18.28a.899.899 0 0 0-.4.78c0 .373.186.66.56.86.373.187.953.38 1.74.58.8.2 1.46.407 1.98.62.52.213.966.547 1.34 1 .386.44.586 1.027.6 1.76 0 .64-.18 1.213-.54 1.72-.347.507-.854.907-1.52 1.2-.654.28-1.42.42-2.3.42Zm21.724-5.96c0 .4-.027.76-.08 1.08h-8.1c.066.8.346 1.427.84 1.88.493.453 1.1.68 1.82.68 1.04 0 1.78-.447 2.22-1.34h3.02c-.32 1.067-.934 1.947-1.84 2.64-.907.68-2.02 1.02-3.34 1.02-1.067 0-2.027-.233-2.88-.7a5.15 5.15 0 0 1-1.98-2.02c-.467-.867-.7-1.867-.7-3 0-1.147.233-2.153.7-3.02a4.88 4.88 0 0 1 1.96-2c.84-.467 1.806-.7 2.9-.7 1.053 0 1.993.227 2.82.68.84.453 1.486 1.1 1.94 1.94.466.827.7 1.78.7 2.86Zm-2.9-.8c-.014-.72-.274-1.293-.78-1.72-.507-.44-1.127-.66-1.86-.66-.694 0-1.28.213-1.76.64-.467.413-.754.993-.86 1.74h5.26Zm-.42-7.42-4.6 2.1v-2l4.6-2.38v2.28Zm4.643 8.44c0-1.107.227-2.087.68-2.94.467-.867 1.094-1.54 1.88-2.02a4.898 4.898 0 0 1 2.6-.72c.787 0 1.48.153 2.08.46.614.293 1.107.673 1.48 1.14v-1.44h2.82v16.36h-2.82v-6.8c-.373.48-.873.88-1.5 1.2-.626.32-1.333.48-2.12.48-.933 0-1.793-.24-2.58-.72-.773-.493-1.386-1.173-1.84-2.04-.453-.867-.68-1.853-.68-2.96Zm8.72.02c0-.68-.14-1.267-.42-1.76a2.864 2.864 0 0 0-1.1-1.12 2.801 2.801 0 0 0-1.42-.38c-.493 0-.966.127-1.42.38-.44.253-.8.627-1.08 1.12-.28.48-.42 1.06-.42 1.74 0 .68.14 1.273.42 1.78.28.493.64.867 1.08 1.12.454.253.927.38 1.42.38.507 0 .98-.127 1.42-.38.454-.253.82-.627 1.1-1.12.28-.493.42-1.08.42-1.76Zm16.015-5.54v11.08h-2.82v-1.4c-.36.48-.833.86-1.42 1.14-.573.267-1.2.4-1.88.4-.866 0-1.633-.18-2.3-.54a4.023 4.023 0 0 1-1.58-1.62c-.373-.72-.56-1.573-.56-2.56v-6.5h2.8v6.1c0 .88.22 1.56.66 2.04.44.467 1.04.7 1.8.7.774 0 1.38-.233 1.82-.7.44-.48.66-1.16.66-2.04v-6.1h2.82Zm4.183-1.32c-.493 0-.907-.153-1.24-.46-.32-.32-.48-.713-.48-1.18 0-.467.16-.853.48-1.16.333-.32.747-.48 1.24-.48s.9.16 1.22.48c.333.307.5.693.5 1.16 0 .467-.167.86-.5 1.18-.32.307-.727.46-1.22.46Zm1.38 1.32v11.08h-2.8v-11.08h2.8Zm5.566 1.6c.36-.507.854-.927 1.48-1.26.64-.347 1.367-.52 2.18-.52.947 0 1.8.233 2.56.7.774.467 1.38 1.133 1.82 2 .454.853.68 1.847.68 2.98s-.226 2.14-.68 3.02c-.44.867-1.046 1.54-1.82 2.02-.76.48-1.613.72-2.56.72-.813 0-1.533-.167-2.16-.5a4.641 4.641 0 0 1-1.5-1.26v6.86h-2.8v-16.36h2.8v1.6Zm5.86 3.9c0-.667-.14-1.24-.42-1.72a2.728 2.728 0 0 0-1.08-1.12 2.84 2.84 0 0 0-1.44-.38c-.506 0-.986.133-1.44.4-.44.253-.8.627-1.08 1.12-.266.493-.4 1.073-.4 1.74s.134 1.247.4 1.74c.28.493.64.873 1.08 1.14.454.253.934.38 1.44.38.52 0 1-.133 1.44-.4a2.87 2.87 0 0 0 1.08-1.14c.28-.493.42-1.08.42-1.76Zm15.195-.2c0 .4-.027.76-.08 1.08h-8.1c.067.8.347 1.427.84 1.88.493.453 1.1.68 1.82.68 1.04 0 1.78-.447 2.22-1.34h3.02c-.32 1.067-.933 1.947-1.84 2.64-.907.68-2.02 1.02-3.34 1.02-1.067 0-2.027-.233-2.88-.7a5.15 5.15 0 0 1-1.98-2.02c-.467-.867-.7-1.867-.7-3 0-1.147.233-2.153.7-3.02a4.886 4.886 0 0 1 1.96-2c.84-.467 1.807-.7 2.9-.7 1.053 0 1.993.227 2.82.68.84.453 1.487 1.1 1.94 1.94.467.827.7 1.78.7 2.86Zm-2.9-.8c-.013-.72-.273-1.293-.78-1.72-.507-.44-1.127-.66-1.86-.66-.693 0-1.28.213-1.76.64-.467.413-.753.993-.86 1.74h5.26Zm18.704-4.66c1.36 0 2.453.42 3.28 1.26.84.827 1.26 1.987 1.26 3.48v6.5h-2.8v-6.12c0-.867-.22-1.527-.66-1.98-.44-.467-1.04-.7-1.8-.7s-1.367.233-1.82.7c-.44.453-.66 1.113-.66 1.98v6.12h-2.8v-6.12c0-.867-.22-1.527-.66-1.98-.44-.467-1.04-.7-1.8-.7-.774 0-1.387.233-1.84.7-.44.453-.66 1.113-.66 1.98v6.12h-2.8v-11.08h2.8v1.34c.36-.467.82-.833 1.38-1.1.573-.267 1.2-.4 1.88-.4.866 0 1.64.187 2.32.56.68.36 1.206.88 1.58 1.56.36-.64.88-1.153 1.56-1.54a4.52 4.52 0 0 1 2.24-.58Zm17.497 5.46c0 .4-.027.76-.08 1.08h-8.1c.066.8.346 1.427.84 1.88.493.453 1.1.68 1.82.68 1.04 0 1.78-.447 2.22-1.34h3.02c-.32 1.067-.934 1.947-1.84 2.64-.907.68-2.02 1.02-3.34 1.02-1.067 0-2.027-.233-2.88-.7a5.15 5.15 0 0 1-1.98-2.02c-.467-.867-.7-1.867-.7-3 0-1.147.233-2.153.7-3.02a4.88 4.88 0 0 1 1.96-2c.84-.467 1.806-.7 2.9-.7 1.053 0 1.993.227 2.82.68.84.453 1.486 1.1 1.94 1.94.466.827.7 1.78.7 2.86Zm-2.9-.8c-.014-.72-.274-1.293-.78-1.72-.507-.44-1.127-.66-1.86-.66-.694 0-1.28.213-1.76.64-.467.413-.754.993-.86 1.74h5.26Zm11.083-4.66c1.32 0 2.387.42 3.2 1.26.814.827 1.22 1.987 1.22 3.48v6.5h-2.8v-6.12c0-.88-.22-1.553-.66-2.02-.44-.48-1.04-.72-1.8-.72-.773 0-1.386.24-1.84.72-.44.467-.66 1.14-.66 2.02v6.12h-2.8v-11.08h2.8v1.38c.374-.48.847-.853 1.42-1.12a4.402 4.402 0 0 1 1.92-.42Zm10.343 2.46v5.36c0 .373.087.647.26.82.187.16.493.24.92.24h1.3v2.36h-1.76c-2.36 0-3.54-1.147-3.54-3.44v-5.34h-1.32v-2.3h1.32v-2.74h2.82v2.74h2.48v2.3h-2.48Zm8.734 8.96c-.907 0-1.72-.16-2.44-.48-.72-.333-1.293-.78-1.72-1.34a3.412 3.412 0 0 1-.68-1.86h2.82c.053.427.26.78.62 1.06.373.28.833.42 1.38.42.533 0 .947-.107 1.24-.32.307-.213.46-.487.46-.82 0-.36-.187-.627-.56-.8-.36-.187-.94-.387-1.74-.6-.827-.2-1.507-.407-2.04-.62a3.625 3.625 0 0 1-1.36-.98c-.373-.44-.56-1.033-.56-1.78 0-.613.173-1.173.52-1.68.36-.507.867-.907 1.52-1.2.667-.293 1.447-.44 2.34-.44 1.32 0 2.373.333 3.16 1 .787.653 1.22 1.54 1.3 2.66h-2.68c-.04-.44-.227-.787-.56-1.04-.32-.267-.753-.4-1.3-.4-.507 0-.9.093-1.18.28a.899.899 0 0 0-.4.78c0 .373.187.66.56.86.373.187.953.38 1.74.58.8.2 1.46.407 1.98.62.52.213.967.547 1.34 1 .387.44.587 1.027.6 1.76 0 .64-.18 1.213-.54 1.72-.347.507-.853.907-1.52 1.2-.653.28-1.42.42-2.3.42Z" fill="#fff"/><path d="M187.055 90.27H175.63v5.053c.488-.537 1.172-.976 2.051-1.318a7.809 7.809 0 0 1 2.856-.513c1.831 0 3.344.415 4.541 1.245 1.22.83 2.111 1.904 2.673 3.223.561 1.318.842 2.746.842 4.284 0 2.856-.806 5.127-2.417 6.811-1.611 1.66-3.881 2.49-6.811 2.49-1.953 0-3.65-.33-5.09-.989-1.44-.683-2.551-1.623-3.332-2.819-.781-1.197-1.209-2.576-1.282-4.138h6.115a3.388 3.388 0 0 0 1.062 1.904c.562.488 1.331.732 2.307.732 1.148 0 2.002-.366 2.564-1.098.561-.733.842-1.709.842-2.93 0-1.196-.293-2.111-.879-2.746-.586-.635-1.44-.952-2.563-.952-.83 0-1.514.207-2.051.622-.537.39-.891.916-1.062 1.575h-6.042v-15.93h17.101v5.494Zm4.994 7.543c0-4.199.806-7.507 2.417-9.924 1.636-2.416 4.26-3.625 7.873-3.625 3.613 0 6.225 1.209 7.837 3.625 1.635 2.417 2.453 5.725 2.453 9.924 0 4.248-.818 7.58-2.453 9.997-1.612 2.417-4.224 3.625-7.837 3.625-3.613 0-6.237-1.208-7.873-3.625-1.611-2.417-2.417-5.749-2.417-9.997Zm14.428 0c0-2.466-.268-4.358-.805-5.676-.537-1.343-1.648-2.014-3.333-2.014-1.684 0-2.795.671-3.332 2.014-.537 1.318-.806 3.21-.806 5.676 0 1.66.098 3.039.293 4.138.196 1.074.586 1.953 1.172 2.636.61.66 1.501.989 2.673.989 1.172 0 2.051-.329 2.637-.989.61-.683 1.013-1.562 1.208-2.636.196-1.099.293-2.478.293-4.138Zm8.948-6.262c0-1.977.561-3.503 1.684-4.577 1.148-1.074 2.625-1.611 4.431-1.611 1.807 0 3.271.537 4.394 1.61 1.123 1.075 1.685 2.6 1.685 4.578 0 1.978-.562 3.503-1.685 4.578-1.123 1.074-2.587 1.61-4.394 1.61-1.806 0-3.283-.536-4.431-1.61-1.123-1.075-1.684-2.6-1.684-4.578Zm24.864-5.785-14.098 25.779h-6.042l14.098-25.78h6.042Zm-18.786 3.259c-1.171 0-1.757.842-1.757 2.526 0 1.66.586 2.49 1.757 2.49.562 0 1.001-.207 1.319-.622.317-.415.476-1.038.476-1.868 0-1.684-.598-2.526-1.795-2.526Zm11.352 16.734c0-1.977.562-3.503 1.685-4.577 1.123-1.074 2.587-1.611 4.394-1.611 1.806 0 3.271.537 4.394 1.611 1.123 1.074 1.685 2.6 1.685 4.577 0 1.978-.562 3.503-1.685 4.578-1.123 1.074-2.588 1.611-4.394 1.611-1.807 0-3.271-.537-4.394-1.611-1.123-1.075-1.685-2.6-1.685-4.578Zm6.042-2.526c-.561 0-1.001.207-1.318.622-.293.415-.439 1.05-.439 1.904 0 1.66.585 2.49 1.757 2.49.562 0 1.001-.207 1.319-.622.317-.415.476-1.038.476-1.868 0-.83-.159-1.452-.476-1.867-.318-.44-.757-.659-1.319-.659Z" fill="#000"/></svg>