<svg width="875" height="257" fill="none" xmlns="http://www.w3.org/2000/svg"><rect x="3.923" y="3.923" width="838.723" height="193.793" rx="19.615" stroke="#fff" stroke-width="7.846"/><path d="M846.569 59.629h19.615a7.845 7.845 0 0 1 7.845 7.846v55.705a7.845 7.845 0 0 1-7.845 7.846h-19.615V59.629Z" fill="#fff"/><path d="M20.395 21.968h100.427L85.608 179.67H20.395V21.968Z" fill="#EB9928"/><path d="M96.912 21.945H463.52l-69.5 158H61.52l35.392-158Z" fill="#EB9928"/><path d="M212.024 21.968h65.722l-35.49 157.702h-65.722l35.49-157.702ZM290.479 21.968h65.722l-35.49 157.702h-65.722l35.49-157.702Z" fill="#EB9928"/><path d="M479.437 21.945H729l-84.088 158H409l70.437-158Z" fill="#CCF6FF"/><path d="M681.683 21.968h65.722L694.5 179.67h-48.307l35.49-157.702Z" fill="#CCF6FF"/><path d="M759.388 21.968H824.6V179.67H708.52l50.868-157.702Z" fill="#F9F871"/><path d="M713.18 233.78h4.6V236h-7.4v-13.96h2.8v11.74Zm5.66-3.36c0-1.12.22-2.113.66-2.98.453-.867 1.06-1.533 1.82-2a4.892 4.892 0 0 1 2.58-.7c.826 0 1.546.167 2.16.5.626.333 1.126.753 1.5 1.26v-1.58h2.82V236h-2.82v-1.62c-.36.52-.86.953-1.5 1.3-.627.333-1.354.5-2.18.5-.934 0-1.787-.24-2.56-.72-.76-.48-1.367-1.153-1.82-2.02-.44-.88-.66-1.887-.66-3.02Zm8.72.04c0-.68-.134-1.26-.4-1.74a2.74 2.74 0 0 0-1.08-1.12 2.83 2.83 0 0 0-1.46-.4c-.52 0-1 .127-1.44.38-.44.253-.8.627-1.08 1.12-.267.48-.4 1.053-.4 1.72s.133 1.253.4 1.76c.28.493.64.873 1.08 1.14.453.267.933.4 1.44.4a2.95 2.95 0 0 0 1.46-.38c.453-.267.813-.64 1.08-1.12.266-.493.4-1.08.4-1.76Zm15.4-3.24h-1.94V236h-2.84v-8.78h-1.26v-2.3h1.26v-.56c0-1.36.387-2.36 1.16-3 .773-.64 1.94-.94 3.5-.9v2.36c-.68-.013-1.153.1-1.42.34-.267.24-.4.673-.4 1.3v.46h1.94v2.3Zm3.235-3.62c-.494 0-.907-.153-1.24-.46-.32-.32-.48-.713-.48-1.18 0-.467.16-.853.48-1.16.333-.32.746-.48 1.24-.48.493 0 .9.16 1.22.48.333.307.5.693.5 1.16 0 .467-.167.86-.5 1.18-.32.307-.727.46-1.22.46Zm1.38 1.32V236h-2.8v-11.08h2.8Zm8.906-.16c1.32 0 2.387.42 3.2 1.26.813.827 1.22 1.987 1.22 3.48v6.5h-2.8v-6.12c0-.88-.22-1.553-.66-2.02-.44-.48-1.04-.72-1.8-.72-.773 0-1.387.24-1.84.72-.44.467-.66 1.14-.66 2.02V236h-2.8v-11.08h2.8v1.38a3.8 3.8 0 0 1 1.42-1.12 4.402 4.402 0 0 1 1.92-.42Zm11.128 5.66c0-1.12.22-2.113.66-2.98.454-.867 1.067-1.533 1.84-2a4.897 4.897 0 0 1 2.58-.7c.72 0 1.407.16 2.06.48.654.307 1.174.72 1.56 1.24v-5.26h2.84V236h-2.84v-1.64c-.346.547-.833.987-1.46 1.32-.626.333-1.353.5-2.18.5-.933 0-1.786-.24-2.56-.72-.773-.48-1.386-1.153-1.84-2.02-.44-.88-.66-1.887-.66-3.02Zm8.72.04c0-.68-.133-1.26-.4-1.74a2.728 2.728 0 0 0-1.08-1.12c-.453-.267-.94-.4-1.46-.4s-1 .127-1.44.38c-.44.253-.8.627-1.08 1.12-.266.48-.4 1.053-.4 1.72s.134 1.253.4 1.76c.28.493.64.873 1.08 1.14.454.267.934.4 1.44.4.52 0 1.007-.127 1.46-.38.454-.267.814-.64 1.08-1.12.267-.493.4-1.08.4-1.76Zm15.855-.24c0 .4-.027.76-.08 1.08h-8.1c.067.8.347 1.427.84 1.88.493.453 1.1.68 1.82.68 1.04 0 1.78-.447 2.22-1.34h3.02c-.32 1.067-.933 1.947-1.84 2.64-.907.68-2.02 1.02-3.34 1.02-1.067 0-2.027-.233-2.88-.7a5.15 5.15 0 0 1-1.98-2.02c-.467-.867-.7-1.867-.7-3 0-1.147.233-2.153.7-3.02a4.886 4.886 0 0 1 1.96-2c.84-.467 1.807-.7 2.9-.7 1.053 0 1.993.227 2.82.68.84.453 1.487 1.1 1.94 1.94.467.827.7 1.78.7 2.86Zm-2.9-.8c-.013-.72-.273-1.293-.78-1.72-.507-.44-1.127-.66-1.86-.66-.693 0-1.28.213-1.76.64-.467.413-.753.993-.86 1.74h5.26Zm14.329 4 2.8-8.5h2.98l-4.1 11.08h-3.4l-4.08-11.08h3l2.8 8.5Zm8.773-9.82c-.493 0-.907-.153-1.24-.46-.32-.32-.48-.713-.48-1.18 0-.467.16-.853.48-1.16.333-.32.747-.48 1.24-.48s.9.16 1.22.48c.333.307.5.693.5 1.16 0 .467-.167.86-.5 1.18-.32.307-.727.46-1.22.46Zm1.38 1.32V236h-2.8v-11.08h2.8Zm13.066 5.3c0 .4-.026.76-.08 1.08h-8.1c.067.8.347 1.427.84 1.88.494.453 1.1.68 1.82.68 1.04 0 1.78-.447 2.22-1.34h3.02c-.32 1.067-.933 1.947-1.84 2.64-.906.68-2.02 1.02-3.34 1.02-1.066 0-2.026-.233-2.88-.7a5.15 5.15 0 0 1-1.98-2.02c-.466-.867-.7-1.867-.7-3 0-1.147.234-2.153.7-3.02a4.886 4.886 0 0 1 1.96-2c.84-.467 1.807-.7 2.9-.7 1.054 0 1.994.227 2.82.68.84.453 1.487 1.1 1.94 1.94.467.827.7 1.78.7 2.86Zm-2.9-.8c-.013-.72-.273-1.293-.78-1.72-.506-.44-1.126-.66-1.86-.66-.693 0-1.28.213-1.76.64-.466.413-.753.993-.86 1.74h5.26Z" fill="#fff"/><path d="M747.889 90.09v-5.822h10.144V111h-6.518V90.09h-3.626Zm14.427 7.178c0-4.199.806-7.507 2.417-9.924 1.636-2.416 4.26-3.625 7.873-3.625 3.613 0 6.225 1.209 7.836 3.625 1.636 2.417 2.454 5.725 2.454 9.924 0 4.248-.818 7.58-2.454 9.997-1.611 2.417-4.223 3.625-7.836 3.625-3.613 0-6.237-1.208-7.873-3.625-1.611-2.417-2.417-5.749-2.417-9.997Zm14.428 0c0-2.466-.269-4.358-.806-5.676-.537-1.343-1.648-2.014-3.332-2.014s-2.795.671-3.332 2.014c-.537 1.318-.806 3.21-.806 5.676 0 1.66.098 3.039.293 4.138.195 1.074.586 1.953 1.172 2.636.61.66 1.501.989 2.673.989 1.172 0 2.051-.329 2.637-.989.61-.683 1.013-1.562 1.208-2.636.195-1.099.293-2.478.293-4.138Zm8.947-6.262c0-1.977.562-3.503 1.685-4.577 1.147-1.074 2.624-1.611 4.431-1.611 1.806 0 3.271.537 4.394 1.61 1.123 1.075 1.685 2.6 1.685 4.578 0 1.978-.562 3.503-1.685 4.578-1.123 1.074-2.588 1.61-4.394 1.61-1.807 0-3.284-.536-4.431-1.61-1.123-1.075-1.685-2.6-1.685-4.578Zm24.865-5.785L796.457 111h-6.042l14.098-25.78h6.043Zm-18.786 3.258c-1.172 0-1.758.843-1.758 2.527 0 1.66.586 2.49 1.758 2.49.562 0 1.001-.207 1.318-.622.318-.415.477-1.038.477-1.868 0-1.684-.599-2.526-1.795-2.526Zm11.352 16.735c0-1.977.561-3.503 1.684-4.577 1.123-1.074 2.588-1.611 4.395-1.611 1.806 0 3.271.537 4.394 1.611 1.123 1.074 1.684 2.6 1.684 4.577 0 1.978-.561 3.503-1.684 4.578-1.123 1.074-2.588 1.611-4.394 1.611-1.807 0-3.272-.537-4.395-1.611-1.123-1.075-1.684-2.6-1.684-4.578Zm6.042-2.526c-.561 0-1.001.207-1.318.622-.293.415-.44 1.05-.44 1.904 0 1.66.586 2.49 1.758 2.49.562 0 1.001-.207 1.318-.622.318-.415.476-1.038.476-1.868 0-.83-.158-1.452-.476-1.867-.317-.44-.756-.659-1.318-.659Z" fill="#262626"/><path d="M528.18 221.2V236h-2.8v-14.8h2.8Zm13.066 9.02c0 .4-.026.76-.08 1.08h-8.1c.067.8.347 1.427.84 1.88.494.453 1.1.68 1.82.68 1.04 0 1.78-.447 2.22-1.34h3.02c-.32 1.067-.933 1.947-1.84 2.64-.906.68-2.02 1.02-3.34 1.02-1.066 0-2.026-.233-2.88-.7a5.15 5.15 0 0 1-1.98-2.02c-.466-.867-.7-1.867-.7-3 0-1.147.234-2.153.7-3.02a4.886 4.886 0 0 1 1.96-2c.84-.467 1.807-.7 2.9-.7 1.054 0 1.994.227 2.82.68.84.453 1.487 1.1 1.94 1.94.467.827.7 1.78.7 2.86Zm-2.9-.8c-.013-.72-.273-1.293-.78-1.72-.506-.44-1.126-.66-1.86-.66-.693 0-1.28.213-1.76.64-.466.413-.753.993-.86 1.74h5.26Zm9.184 6.76c-.907 0-1.72-.16-2.44-.48-.72-.333-1.293-.78-1.72-1.34a3.412 3.412 0 0 1-.68-1.86h2.82c.053.427.26.78.62 1.06.373.28.833.42 1.38.42.533 0 .947-.107 1.24-.32.307-.213.46-.487.46-.82 0-.36-.187-.627-.56-.8-.36-.187-.94-.387-1.74-.6-.827-.2-1.507-.407-2.04-.62a3.625 3.625 0 0 1-1.36-.98c-.373-.44-.56-1.033-.56-1.78 0-.613.173-1.173.52-1.68.36-.507.867-.907 1.52-1.2.667-.293 1.447-.44 2.34-.44 1.32 0 2.373.333 3.16 1 .787.653 1.22 1.54 1.3 2.66h-2.68c-.04-.44-.227-.787-.56-1.04-.32-.267-.753-.4-1.3-.4-.507 0-.9.093-1.18.28a.899.899 0 0 0-.4.78c0 .373.187.66.56.86.373.187.953.38 1.74.58.8.2 1.46.407 1.98.62.52.213.967.547 1.34 1 .387.44.587 1.027.6 1.76 0 .64-.18 1.213-.54 1.72-.347.507-.853.907-1.52 1.2-.653.28-1.42.42-2.3.42Zm21.884-11.26V236h-2.82v-1.4c-.36.48-.833.86-1.42 1.14-.573.267-1.2.4-1.88.4-.866 0-1.633-.18-2.3-.54a4.023 4.023 0 0 1-1.58-1.62c-.373-.72-.56-1.573-.56-2.56v-6.5h2.8v6.1c0 .88.22 1.56.66 2.04.44.467 1.04.7 1.8.7.774 0 1.38-.233 1.82-.7.44-.48.66-1.16.66-2.04v-6.1h2.82Zm7.003 11.26c-.907 0-1.72-.16-2.44-.48-.72-.333-1.293-.78-1.72-1.34a3.412 3.412 0 0 1-.68-1.86h2.82c.053.427.26.78.62 1.06.373.28.833.42 1.38.42.533 0 .947-.107 1.24-.32.307-.213.46-.487.46-.82 0-.36-.187-.627-.56-.8-.36-.187-.94-.387-1.74-.6-.827-.2-1.507-.407-2.04-.62a3.625 3.625 0 0 1-1.36-.98c-.373-.44-.56-1.033-.56-1.78 0-.613.173-1.173.52-1.68.36-.507.867-.907 1.52-1.2.667-.293 1.447-.44 2.34-.44 1.32 0 2.373.333 3.16 1 .787.653 1.22 1.54 1.3 2.66h-2.68c-.04-.44-.227-.787-.56-1.04-.32-.267-.753-.4-1.3-.4-.507 0-.9.093-1.18.28a.899.899 0 0 0-.4.78c0 .373.187.66.56.86.373.187.953.38 1.74.58.8.2 1.46.407 1.98.62.52.213.967.547 1.34 1 .387.44.587 1.027.6 1.76 0 .64-.18 1.213-.54 1.72-.347.507-.853.907-1.52 1.2-.653.28-1.42.42-2.3.42Zm5.938-5.76c0-1.12.22-2.113.66-2.98.454-.867 1.06-1.533 1.82-2a4.897 4.897 0 0 1 2.58-.7c.827 0 1.547.167 2.16.5.627.333 1.127.753 1.5 1.26v-1.58h2.82V236h-2.82v-1.62c-.36.52-.86.953-1.5 1.3-.626.333-1.353.5-2.18.5-.933 0-1.786-.24-2.56-.72-.76-.48-1.366-1.153-1.82-2.02-.44-.88-.66-1.887-.66-3.02Zm8.72.04c0-.68-.133-1.26-.4-1.74a2.728 2.728 0 0 0-1.08-1.12c-.453-.267-.94-.4-1.46-.4s-1 .127-1.44.38c-.44.253-.8.627-1.08 1.12-.266.48-.4 1.053-.4 1.72s.134 1.253.4 1.76c.28.493.64.873 1.08 1.14.454.267.934.4 1.44.4.52 0 1.007-.127 1.46-.38.454-.267.814-.64 1.08-1.12.267-.493.4-1.08.4-1.76Zm9.895-5.72c.827 0 1.553.167 2.18.5.627.32 1.12.74 1.48 1.26v-1.58h2.82v11.16c0 1.027-.207 1.94-.62 2.74a4.527 4.527 0 0 1-1.86 1.92c-.827.48-1.827.72-3 .72-1.573 0-2.867-.367-3.88-1.1-1-.733-1.567-1.733-1.7-3h2.78c.147.507.46.907.94 1.2.493.307 1.087.46 1.78.46.813 0 1.473-.247 1.98-.74.507-.48.76-1.213.76-2.2v-1.72c-.36.52-.86.953-1.5 1.3-.627.347-1.347.52-2.16.52-.933 0-1.787-.24-2.56-.72-.773-.48-1.387-1.153-1.84-2.02-.44-.88-.66-1.887-.66-3.02 0-1.12.22-2.113.66-2.98.453-.867 1.06-1.533 1.82-2a4.892 4.892 0 0 1 2.58-.7Zm3.66 5.72c0-.68-.133-1.26-.4-1.74a2.74 2.74 0 0 0-1.08-1.12c-.453-.267-.94-.4-1.46-.4s-1 .127-1.44.38c-.44.253-.8.627-1.08 1.12-.267.48-.4 1.053-.4 1.72s.133 1.253.4 1.76c.28.493.64.873 1.08 1.14.453.267.933.4 1.44.4.52 0 1.007-.127 1.46-.38.453-.267.813-.64 1.08-1.12.267-.493.4-1.08.4-1.76Zm15.855-.24c0 .4-.027.76-.08 1.08h-8.1c.066.8.346 1.427.84 1.88.493.453 1.1.68 1.82.68 1.04 0 1.78-.447 2.22-1.34h3.02c-.32 1.067-.934 1.947-1.84 2.64-.907.68-2.02 1.02-3.34 1.02-1.067 0-2.027-.233-2.88-.7a5.15 5.15 0 0 1-1.98-2.02c-.467-.867-.7-1.867-.7-3 0-1.147.233-2.153.7-3.02a4.88 4.88 0 0 1 1.96-2c.84-.467 1.806-.7 2.9-.7 1.053 0 1.993.227 2.82.68.84.453 1.486 1.1 1.94 1.94.466.827.7 1.78.7 2.86Zm-2.9-.8c-.014-.72-.274-1.293-.78-1.72-.507-.44-1.127-.66-1.86-.66-.694 0-1.28.213-1.76.64-.467.413-.754.993-.86 1.74h5.26Zm9.183 6.76c-.906 0-1.72-.16-2.44-.48-.72-.333-1.293-.78-1.72-1.34a3.412 3.412 0 0 1-.68-1.86h2.82c.054.427.26.78.62 1.06.374.28.834.42 1.38.42.534 0 .947-.107 1.24-.32.307-.213.46-.487.46-.82 0-.36-.186-.627-.56-.8-.36-.187-.94-.387-1.74-.6-.826-.2-1.506-.407-2.04-.62a3.625 3.625 0 0 1-1.36-.98c-.373-.44-.56-1.033-.56-1.78 0-.613.174-1.173.52-1.68.36-.507.867-.907 1.52-1.2.667-.293 1.447-.44 2.34-.44 1.32 0 2.374.333 3.16 1 .787.653 1.22 1.54 1.3 2.66h-2.68c-.04-.44-.226-.787-.56-1.04-.32-.267-.753-.4-1.3-.4-.506 0-.9.093-1.18.28a.901.901 0 0 0-.4.78c0 .373.187.66.56.86.374.187.954.38 1.74.58.8.2 1.46.407 1.98.62.52.213.967.547 1.34 1 .387.44.587 1.027.6 1.76 0 .64-.18 1.213-.54 1.72-.346.507-.853.907-1.52 1.2-.653.28-1.42.42-2.3.42Z" fill="#fff"/><path d="M539.719 106.185v-5.053L551.29 84.58h6.995v16.185h3.002v5.42h-3.002v4.76h-6.262v-4.76h-12.304Zm12.743-14.72-6.152 9.3h6.152v-9.3Zm11.892 5.748c0-4.199.806-7.506 2.417-9.923 1.636-2.417 4.26-3.626 7.873-3.626 3.613 0 6.225 1.209 7.837 3.626 1.635 2.416 2.453 5.724 2.453 9.923 0 4.248-.818 7.58-2.453 9.997-1.612 2.417-4.224 3.625-7.837 3.625-3.613 0-6.237-1.208-7.873-3.625-1.611-2.417-2.417-5.749-2.417-9.997Zm14.428 0c0-2.465-.268-4.357-.805-5.676-.538-1.342-1.648-2.014-3.333-2.014-1.684 0-2.795.672-3.332 2.014-.537 1.319-.806 3.21-.806 5.676 0 1.66.098 3.04.293 4.138.196 1.074.586 1.953 1.172 2.637.61.659 1.501.988 2.673.988 1.172 0 2.051-.329 2.637-.988.61-.684 1.013-1.563 1.208-2.637.195-1.098.293-2.478.293-4.138Zm8.948-6.261c0-1.978.561-3.504 1.684-4.578 1.148-1.074 2.624-1.611 4.431-1.611s3.271.537 4.394 1.611c1.123 1.074 1.685 2.6 1.685 4.578 0 1.977-.562 3.503-1.685 4.577-1.123 1.074-2.587 1.611-4.394 1.611s-3.283-.537-4.431-1.611c-1.123-1.074-1.684-2.6-1.684-4.578Zm24.864-5.786-14.098 25.779h-6.043l14.099-25.78h6.042Zm-18.786 3.259c-1.171 0-1.757.842-1.757 2.526 0 1.66.586 2.49 1.757 2.49.562 0 1.001-.207 1.319-.622.317-.415.476-1.038.476-1.868 0-1.684-.598-2.526-1.795-2.526Zm11.352 16.735c0-1.978.562-3.504 1.685-4.578 1.123-1.074 2.587-1.611 4.394-1.611 1.806 0 3.271.537 4.394 1.611 1.123 1.074 1.685 2.6 1.685 4.578 0 1.977-.562 3.503-1.685 4.577-1.123 1.074-2.588 1.611-4.394 1.611-1.807 0-3.271-.537-4.394-1.611-1.123-1.074-1.685-2.6-1.685-4.577Zm6.042-2.527c-.561 0-1.001.207-1.318.622-.293.415-.439 1.05-.439 1.905 0 1.66.585 2.49 1.757 2.49.562 0 1.001-.208 1.319-.623.317-.415.476-1.037.476-1.867 0-.83-.159-1.453-.476-1.868-.318-.439-.757-.659-1.319-.659Z" fill="#262626"/><path d="M59.18 234.259h4.6v2.22h-7.4v-13.96h2.8v11.74Zm5.66-3.36c0-1.12.22-2.113.66-2.98.453-.867 1.06-1.533 1.82-2a4.894 4.894 0 0 1 2.58-.7c.826 0 1.546.167 2.16.5.626.333 1.126.753 1.5 1.26v-1.58h2.82v11.08h-2.82v-1.62c-.36.52-.86.953-1.5 1.3-.627.333-1.354.5-2.18.5-.934 0-1.787-.24-2.56-.72-.76-.48-1.367-1.153-1.82-2.02-.44-.88-.66-1.887-.66-3.02Zm8.72.04c0-.68-.134-1.26-.4-1.74a2.737 2.737 0 0 0-1.08-1.12c-.454-.267-.94-.4-1.46-.4s-1 .127-1.44.38c-.44.253-.8.627-1.08 1.12-.267.48-.4 1.053-.4 1.72s.133 1.253.4 1.76c.28.493.64.873 1.08 1.14.453.267.933.4 1.44.4.52 0 1.006-.127 1.46-.38.453-.267.813-.64 1.08-1.12.266-.493.4-1.08.4-1.76Zm18.94-8.42v2.26h-5.82v3.58h4.46v2.22h-4.46v5.9h-2.8v-13.96h8.62Zm1.266 8.38c0-1.12.22-2.113.66-2.98.453-.867 1.06-1.533 1.82-2a4.894 4.894 0 0 1 2.58-.7c.826 0 1.546.167 2.159.5.627.333 1.127.753 1.5 1.26v-1.58h2.82v11.08h-2.82v-1.62c-.36.52-.86.953-1.5 1.3-.626.333-1.353.5-2.18.5-.933 0-1.786-.24-2.56-.72-.76-.48-1.366-1.153-1.82-2.02-.44-.88-.66-1.887-.66-3.02Zm8.719.04c0-.68-.133-1.26-.4-1.74a2.728 2.728 0 0 0-1.08-1.12c-.453-.267-.94-.4-1.46-.4s-1 .127-1.44.38c-.44.253-.8.627-1.08 1.12-.266.48-.4 1.053-.4 1.72s.134 1.253.4 1.76c.28.493.64.873 1.08 1.14.454.267.934.4 1.44.4.52 0 1.007-.127 1.46-.38.454-.267.814-.64 1.08-1.12.267-.493.4-1.08.4-1.76Zm8.355-3.92c.36-.533.853-.967 1.48-1.3.64-.333 1.367-.5 2.18-.5.947 0 1.8.233 2.56.7.773.467 1.38 1.133 1.82 2 .453.853.68 1.847.68 2.98s-.227 2.14-.68 3.02c-.44.867-1.047 1.54-1.82 2.02-.76.48-1.613.72-2.56.72-.827 0-1.553-.16-2.18-.48a4.33 4.33 0 0 1-1.48-1.28v1.58h-2.8v-14.8h2.8v5.34Zm5.86 3.88c0-.667-.14-1.24-.42-1.72a2.74 2.74 0 0 0-1.08-1.12 2.84 2.84 0 0 0-1.44-.38 2.79 2.79 0 0 0-1.44.4c-.44.253-.8.627-1.08 1.12-.267.493-.4 1.073-.4 1.74s.133 1.247.4 1.74c.28.493.64.873 1.08 1.14.453.253.933.38 1.44.38.52 0 1-.133 1.44-.4a2.884 2.884 0 0 0 1.08-1.14c.28-.493.42-1.08.42-1.76Zm7.695-3.78a3.96 3.96 0 0 1 1.4-1.38c.587-.333 1.253-.5 2-.5v2.94h-.74c-.88 0-1.547.207-2 .62-.44.413-.66 1.133-.66 2.16v5.52h-2.8v-11.08h2.8v1.72Zm6.706-3.04c-.494 0-.907-.153-1.24-.46-.32-.32-.48-.713-.48-1.18 0-.467.16-.853.48-1.16.333-.32.746-.48 1.24-.48.493 0 .9.16 1.22.48.333.307.5.693.5 1.16 0 .467-.167.86-.5 1.18-.32.307-.727.46-1.22.46Zm1.38 1.32v11.08h-2.8v-11.08h2.8Zm2.046 5.54c0-1.147.234-2.147.7-3a4.926 4.926 0 0 1 1.94-2c.827-.48 1.774-.72 2.84-.72 1.374 0 2.507.347 3.4 1.04.907.68 1.514 1.64 1.82 2.88h-3.02a2.136 2.136 0 0 0-.82-1.12c-.373-.28-.84-.42-1.4-.42-.8 0-1.433.293-1.9.88-.466.573-.7 1.393-.7 2.46 0 1.053.234 1.873.7 2.46.467.573 1.1.86 1.9.86 1.134 0 1.874-.507 2.22-1.52h3.02c-.306 1.2-.913 2.153-1.82 2.86-.906.707-2.04 1.06-3.4 1.06-1.066 0-2.013-.233-2.84-.7a5.099 5.099 0 0 1-1.94-2c-.466-.867-.7-1.873-.7-3.02Zm12.031-.04c0-1.12.22-2.113.66-2.98.454-.867 1.06-1.533 1.82-2a4.897 4.897 0 0 1 2.58-.7c.827 0 1.547.167 2.16.5.627.333 1.127.753 1.5 1.26v-1.58h2.82v11.08h-2.82v-1.62c-.36.52-.86.953-1.5 1.3-.626.333-1.353.5-2.18.5-.933 0-1.786-.24-2.56-.72-.76-.48-1.366-1.153-1.82-2.02-.44-.88-.66-1.887-.66-3.02Zm8.72.04c0-.68-.133-1.26-.4-1.74a2.728 2.728 0 0 0-1.08-1.12c-.453-.267-.94-.4-1.46-.4s-1 .127-1.44.38c-.44.253-.8.627-1.08 1.12-.266.48-.4 1.053-.4 1.72s.134 1.253.4 1.76c.28.493.64.873 1.08 1.14.454.267.934.4 1.44.4.52 0 1.007-.127 1.46-.38.454-.267.814-.64 1.08-1.12.267-.493.4-1.08.4-1.76Zm8.815-3.24v5.36c0 .373.087.647.26.82.187.16.493.24.92.24h1.3v2.36h-1.76c-2.36 0-3.54-1.147-3.54-3.44v-5.34h-1.32v-2.3h1.32v-2.74h2.82v2.74h2.48v2.3h-2.48Zm5.914-3.62c-.493 0-.907-.153-1.24-.46-.32-.32-.48-.713-.48-1.18 0-.467.16-.853.48-1.16.333-.32.747-.48 1.24-.48s.9.16 1.22.48c.333.307.5.693.5 1.16 0 .467-.167.86-.5 1.18-.32.307-.727.46-1.22.46Zm1.38 1.32v11.08h-2.8v-11.08h2.8Zm7.686 11.26c-1.066 0-2.026-.233-2.88-.7a5.256 5.256 0 0 1-2.02-2.02c-.48-.867-.72-1.867-.72-3s.247-2.133.74-3a5.217 5.217 0 0 1 2.06-2c.867-.48 1.834-.72 2.9-.72 1.067 0 2.034.24 2.9.72a5.072 5.072 0 0 1 2.04 2c.507.867.76 1.867.76 3s-.26 2.133-.78 3a5.308 5.308 0 0 1-2.08 2.02c-.866.467-1.84.7-2.92.7Zm0-2.44c.507 0 .98-.12 1.42-.36a2.728 2.728 0 0 0 1.08-1.12c.267-.493.4-1.093.4-1.8 0-1.053-.28-1.86-.84-2.42a2.681 2.681 0 0 0-2.02-.86c-.8 0-1.473.287-2.02.86-.533.56-.8 1.367-.8 2.42s.26 1.867.78 2.44c.534.56 1.2.84 2 .84Zm13.974-8.98c1.32 0 2.387.42 3.2 1.26.814.827 1.22 1.987 1.22 3.48v6.5h-2.8v-6.12c0-.88-.22-1.553-.66-2.02-.44-.48-1.04-.72-1.8-.72-.773 0-1.386.24-1.84.72-.44.467-.66 1.14-.66 2.02v6.12h-2.8v-11.08h2.8v1.38c.374-.48.847-.853 1.42-1.12a4.402 4.402 0 0 1 1.92-.42Zm11.129 5.66c0-1.12.22-2.113.66-2.98.453-.867 1.066-1.533 1.84-2a4.892 4.892 0 0 1 2.58-.7c.72 0 1.406.16 2.06.48.653.307 1.173.72 1.56 1.24v-5.26h2.84v14.8h-2.84v-1.64c-.347.547-.834.987-1.46 1.32-.627.333-1.354.5-2.18.5-.934 0-1.787-.24-2.56-.72-.774-.48-1.387-1.153-1.84-2.02-.44-.88-.66-1.887-.66-3.02Zm8.72.04c0-.68-.134-1.26-.4-1.74a2.74 2.74 0 0 0-1.08-1.12 2.83 2.83 0 0 0-1.46-.4c-.52 0-1 .127-1.44.38-.44.253-.8.627-1.08 1.12-.267.48-.4 1.053-.4 1.72s.133 1.253.4 1.76c.28.493.64.873 1.08 1.14.453.267.933.4 1.44.4a2.95 2.95 0 0 0 1.46-.38c.453-.267.813-.64 1.08-1.12.266-.493.4-1.08.4-1.76Zm15.854-.24c0 .4-.026.76-.08 1.08h-8.1c.067.8.347 1.427.84 1.88.494.453 1.1.68 1.82.68 1.04 0 1.78-.447 2.22-1.34h3.02c-.32 1.067-.933 1.947-1.84 2.64-.906.68-2.02 1.02-3.34 1.02-1.066 0-2.026-.233-2.88-.7a5.15 5.15 0 0 1-1.98-2.02c-.466-.867-.7-1.867-.7-3 0-1.147.234-2.153.7-3.02a4.886 4.886 0 0 1 1.96-2c.84-.467 1.807-.7 2.9-.7 1.054 0 1.994.227 2.82.68.84.453 1.487 1.1 1.94 1.94.467.827.7 1.78.7 2.86Zm-2.9-.8c-.013-.72-.273-1.293-.78-1.72-.506-.44-1.126-.66-1.86-.66-.693 0-1.28.213-1.76.64-.466.413-.753.993-.86 1.74h5.26Zm9.184 6.76c-.907 0-1.72-.16-2.44-.48-.72-.333-1.293-.78-1.72-1.34a3.412 3.412 0 0 1-.68-1.86h2.82c.053.427.26.78.62 1.06.373.28.833.42 1.38.42.533 0 .947-.107 1.24-.32.307-.213.46-.487.46-.82 0-.36-.187-.627-.56-.8-.36-.187-.94-.387-1.74-.6-.827-.2-1.507-.407-2.04-.62a3.625 3.625 0 0 1-1.36-.98c-.373-.44-.56-1.033-.56-1.78 0-.613.173-1.173.52-1.68.36-.507.867-.907 1.52-1.2.667-.293 1.447-.44 2.34-.44 1.32 0 2.373.333 3.16 1 .787.653 1.22 1.54 1.3 2.66h-2.68c-.04-.44-.227-.787-.56-1.04-.32-.267-.753-.4-1.3-.4-.507 0-.9.093-1.18.28a.899.899 0 0 0-.4.78c0 .373.187.66.56.86.373.187.953.38 1.74.58.8.2 1.46.407 1.98.62.52.213.967.547 1.34 1 .387.44.587 1.027.6 1.76 0 .64-.18 1.213-.54 1.72-.347.507-.853.907-1.52 1.2-.653.28-1.42.42-2.3.42Zm21.724-5.96c0 .4-.027.76-.08 1.08h-8.1c.067.8.347 1.427.84 1.88.493.453 1.1.68 1.82.68 1.04 0 1.78-.447 2.22-1.34h3.02c-.32 1.067-.933 1.947-1.84 2.64-.907.68-2.02 1.02-3.34 1.02-1.067 0-2.027-.233-2.88-.7a5.15 5.15 0 0 1-1.98-2.02c-.467-.867-.7-1.867-.7-3 0-1.147.233-2.153.7-3.02a4.886 4.886 0 0 1 1.96-2c.84-.467 1.807-.7 2.9-.7 1.053 0 1.993.227 2.82.68.84.453 1.487 1.1 1.94 1.94.467.827.7 1.78.7 2.86Zm-2.9-.8c-.013-.72-.273-1.293-.78-1.72-.507-.44-1.127-.66-1.86-.66-.693 0-1.28.213-1.76.64-.467.413-.753.993-.86 1.74h5.26Zm-.42-7.42-4.6 2.1v-2l4.6-2.38v2.28Zm4.644 8.44c0-1.107.227-2.087.68-2.94.467-.867 1.093-1.54 1.88-2.02a4.896 4.896 0 0 1 2.6-.72c.787 0 1.48.153 2.08.46.613.293 1.107.673 1.48 1.14v-1.44h2.82v16.36h-2.82v-6.8c-.373.48-.873.88-1.5 1.2-.627.32-1.333.48-2.12.48-.933 0-1.793-.24-2.58-.72-.773-.493-1.387-1.173-1.84-2.04-.453-.867-.68-1.853-.68-2.96Zm8.72.02c0-.68-.14-1.267-.42-1.76a2.87 2.87 0 0 0-1.1-1.12 2.801 2.801 0 0 0-1.42-.38c-.493 0-.967.127-1.42.38-.44.253-.8.627-1.08 1.12-.28.48-.42 1.06-.42 1.74 0 .68.14 1.273.42 1.78.28.493.64.867 1.08 1.12.453.253.927.38 1.42.38.507 0 .98-.127 1.42-.38a2.87 2.87 0 0 0 1.1-1.12c.28-.493.42-1.08.42-1.76Zm16.015-5.54v11.08h-2.82v-1.4c-.36.48-.834.86-1.42 1.14a4.4 4.4 0 0 1-1.88.4c-.867 0-1.634-.18-2.3-.54a4.01 4.01 0 0 1-1.58-1.62c-.374-.72-.56-1.573-.56-2.56v-6.5h2.8v6.1c0 .88.22 1.56.66 2.04.44.467 1.04.7 1.8.7.773 0 1.38-.233 1.82-.7.44-.48.66-1.16.66-2.04v-6.1h2.82Zm4.182-1.32c-.493 0-.906-.153-1.24-.46-.32-.32-.48-.713-.48-1.18 0-.467.16-.853.48-1.16.334-.32.747-.48 1.24-.48.494 0 .9.16 1.22.48.334.307.5.693.5 1.16 0 .467-.166.86-.5 1.18-.32.307-.726.46-1.22.46Zm1.38 1.32v11.08h-2.8v-11.08h2.8Zm5.567 1.6c.36-.507.853-.927 1.48-1.26.64-.347 1.366-.52 2.18-.52.946 0 1.8.233 2.56.7.773.467 1.38 1.133 1.82 2 .453.853.68 1.847.68 2.98s-.227 2.14-.68 3.02c-.44.867-1.047 1.54-1.82 2.02-.76.48-1.614.72-2.56.72-.814 0-1.534-.167-2.16-.5a4.62 4.62 0 0 1-1.5-1.26v6.86h-2.8v-16.36h2.8v1.6Zm5.86 3.9c0-.667-.14-1.24-.42-1.72a2.74 2.74 0 0 0-1.08-1.12 2.84 2.84 0 0 0-1.44-.38 2.79 2.79 0 0 0-1.44.4c-.44.253-.8.627-1.08 1.12-.267.493-.4 1.073-.4 1.74s.133 1.247.4 1.74c.28.493.64.873 1.08 1.14.453.253.933.38 1.44.38.52 0 1-.133 1.44-.4a2.884 2.884 0 0 0 1.08-1.14c.28-.493.42-1.08.42-1.76Zm15.194-.2c0 .4-.026.76-.08 1.08h-8.1c.067.8.347 1.427.84 1.88.494.453 1.1.68 1.82.68 1.04 0 1.78-.447 2.22-1.34h3.02c-.32 1.067-.933 1.947-1.84 2.64-.906.68-2.02 1.02-3.34 1.02-1.066 0-2.026-.233-2.88-.7a5.15 5.15 0 0 1-1.98-2.02c-.466-.867-.7-1.867-.7-3 0-1.147.234-2.153.7-3.02a4.886 4.886 0 0 1 1.96-2c.84-.467 1.807-.7 2.9-.7 1.054 0 1.994.227 2.82.68.84.453 1.487 1.1 1.94 1.94.467.827.7 1.78.7 2.86Zm-2.9-.8c-.013-.72-.273-1.293-.78-1.72-.506-.44-1.126-.66-1.86-.66-.693 0-1.28.213-1.76.64-.466.413-.753.993-.86 1.74h5.26Zm18.704-4.66c1.36 0 2.453.42 3.28 1.26.84.827 1.26 1.987 1.26 3.48v6.5h-2.8v-6.12c0-.867-.22-1.527-.66-1.98-.44-.467-1.04-.7-1.8-.7s-1.367.233-1.82.7c-.44.453-.66 1.113-.66 1.98v6.12h-2.8v-6.12c0-.867-.22-1.527-.66-1.98-.44-.467-1.04-.7-1.8-.7-.773 0-1.387.233-1.84.7-.44.453-.66 1.113-.66 1.98v6.12h-2.8v-11.08h2.8v1.34c.36-.467.82-.833 1.38-1.1.573-.267 1.2-.4 1.88-.4.867 0 1.64.187 2.32.56.68.36 1.207.88 1.58 1.56.36-.64.88-1.153 1.56-1.54a4.52 4.52 0 0 1 2.24-.58Zm17.497 5.46c0 .4-.027.76-.08 1.08h-8.1c.067.8.347 1.427.84 1.88.493.453 1.1.68 1.82.68 1.04 0 1.78-.447 2.22-1.34h3.02c-.32 1.067-.933 1.947-1.84 2.64-.907.68-2.02 1.02-3.34 1.02-1.067 0-2.027-.233-2.88-.7a5.15 5.15 0 0 1-1.98-2.02c-.467-.867-.7-1.867-.7-3 0-1.147.233-2.153.7-3.02a4.886 4.886 0 0 1 1.96-2c.84-.467 1.807-.7 2.9-.7 1.053 0 1.993.227 2.82.68.84.453 1.487 1.1 1.94 1.94.467.827.7 1.78.7 2.86Zm-2.9-.8c-.013-.72-.273-1.293-.78-1.72-.507-.44-1.127-.66-1.86-.66-.693 0-1.28.213-1.76.64-.467.413-.753.993-.86 1.74h5.26Zm11.084-4.66c1.32 0 2.387.42 3.2 1.26.813.827 1.22 1.987 1.22 3.48v6.5h-2.8v-6.12c0-.88-.22-1.553-.66-2.02-.44-.48-1.04-.72-1.8-.72-.773 0-1.387.24-1.84.72-.44.467-.66 1.14-.66 2.02v6.12h-2.8v-11.08h2.8v1.38a3.8 3.8 0 0 1 1.42-1.12 4.402 4.402 0 0 1 1.92-.42Zm10.343 2.46v5.36c0 .373.086.647.26.82.186.16.493.24.92.24h1.3v2.36h-1.76c-2.36 0-3.54-1.147-3.54-3.44v-5.34h-1.32v-2.3h1.32v-2.74h2.82v2.74h2.48v2.3h-2.48Zm8.733 8.96c-.906 0-1.72-.16-2.44-.48-.72-.333-1.293-.78-1.72-1.34a3.412 3.412 0 0 1-.68-1.86h2.82c.054.427.26.78.62 1.06.374.28.834.42 1.38.42.534 0 .947-.107 1.24-.32.307-.213.46-.487.46-.82 0-.36-.186-.627-.56-.8-.36-.187-.94-.387-1.74-.6-.826-.2-1.506-.407-2.04-.62a3.625 3.625 0 0 1-1.36-.98c-.373-.44-.56-1.033-.56-1.78 0-.613.174-1.173.52-1.68.36-.507.867-.907 1.52-1.2.667-.293 1.447-.44 2.34-.44 1.32 0 2.374.333 3.16 1 .787.653 1.22 1.54 1.3 2.66h-2.68c-.04-.44-.226-.787-.56-1.04-.32-.267-.753-.4-1.3-.4-.506 0-.9.093-1.18.28a.901.901 0 0 0-.4.78c0 .373.187.66.56.86.374.187.954.38 1.74.58.8.2 1.46.407 1.98.62.52.213.967.547 1.34 1 .387.44.587 1.027.6 1.76 0 .64-.18 1.213-.54 1.72-.346.507-.853.907-1.52 1.2-.653.28-1.42.42-2.3.42Z" fill="#fff"/><path d="M199.093 89.67h-11.425v5.053c.488-.537 1.171-.976 2.05-1.318a7.813 7.813 0 0 1 2.856-.513c1.831 0 3.345.415 4.541 1.245 1.221.83 2.112 1.904 2.673 3.223.562 1.318.843 2.746.843 4.284 0 2.856-.806 5.127-2.417 6.811-1.611 1.66-3.882 2.49-6.811 2.49-1.953 0-3.65-.329-5.09-.988-1.441-.684-2.551-1.624-3.333-2.82-.781-1.196-1.208-2.576-1.281-4.138h6.115c.147.757.5 1.392 1.062 1.904.561.488 1.33.733 2.307.733 1.147 0 2.002-.367 2.563-1.099.562-.732.842-1.709.842-2.929 0-1.197-.292-2.112-.878-2.747-.586-.635-1.441-.952-2.564-.952-.83 0-1.513.208-2.05.623-.537.39-.891.915-1.062 1.574h-6.042V84.177h17.101v5.493Zm4.994 7.543c0-4.199.806-7.506 2.417-9.923 1.635-2.417 4.26-3.626 7.873-3.626 3.613 0 6.225 1.209 7.836 3.626 1.636 2.416 2.454 5.724 2.454 9.923 0 4.248-.818 7.58-2.454 9.997-1.611 2.417-4.223 3.625-7.836 3.625-3.613 0-6.238-1.208-7.873-3.625-1.611-2.417-2.417-5.749-2.417-9.997Zm14.428 0c0-2.465-.269-4.357-.806-5.676-.537-1.342-1.648-2.014-3.332-2.014-1.685 0-2.795.672-3.332 2.014-.537 1.319-.806 3.21-.806 5.676 0 1.66.098 3.04.293 4.138.195 1.074.586 1.953 1.172 2.637.61.659 1.501.988 2.673.988 1.172 0 2.051-.329 2.636-.988.611-.684 1.014-1.563 1.209-2.637.195-1.098.293-2.478.293-4.138Zm8.947-6.261c0-1.978.562-3.504 1.685-4.578 1.147-1.074 2.624-1.611 4.431-1.611 1.806 0 3.271.537 4.394 1.611 1.123 1.074 1.684 2.6 1.684 4.578 0 1.977-.561 3.503-1.684 4.577-1.123 1.074-2.588 1.611-4.394 1.611-1.807 0-3.284-.537-4.431-1.611-1.123-1.074-1.685-2.6-1.685-4.578Zm24.864-5.786-14.098 25.779h-6.042l14.098-25.78h6.042Zm-18.785 3.259c-1.172 0-1.758.842-1.758 2.526 0 1.66.586 2.49 1.758 2.49.562 0 1.001-.207 1.318-.622.318-.415.476-1.038.476-1.868 0-1.684-.598-2.526-1.794-2.526Zm11.352 16.735c0-1.978.561-3.504 1.684-4.578 1.123-1.074 2.588-1.611 4.395-1.611 1.806 0 3.271.537 4.394 1.611 1.123 1.074 1.684 2.6 1.684 4.578 0 1.977-.561 3.503-1.684 4.577-1.123 1.074-2.588 1.611-4.394 1.611-1.807 0-3.272-.537-4.395-1.611-1.123-1.074-1.684-2.6-1.684-4.577Zm6.042-2.527c-.562 0-1.001.207-1.318.622-.293.415-.44 1.05-.44 1.905 0 1.66.586 2.49 1.758 2.49.561 0 1.001-.208 1.318-.623.318-.415.476-1.037.476-1.867 0-.83-.158-1.453-.476-1.868-.317-.439-.757-.659-1.318-.659Z" fill="#000"/></svg>