<svg width="892" height="256" fill="none" xmlns="http://www.w3.org/2000/svg"><rect x="4.403" y="3.979" width="838.723" height="193.793" rx="19.615" stroke="#fff" stroke-width="7.846"/><path d="M847.049 59.685h19.615a7.846 7.846 0 0 1 7.846 7.846v55.705a7.846 7.846 0 0 1-7.846 7.846h-19.615V59.685Z" fill="#fff"/><path d="M20.875 22.025h100.427L86.088 179.727H20.875V22.025Z" fill="#EB9928"/><path d="M97.392 22.002H464l-69.5 158H62l35.392-158Z" fill="#EB9928"/><path d="M212.504 22.025h65.722l-35.49 157.702h-65.721l35.489-157.702ZM290.959 22.025h65.722l-35.49 157.702h-65.722l35.49-157.702Z" fill="#EB9928"/><path d="M479.437 22.002H729l-84.088 158H409l70.437-158Z" fill="#CCF6FF"/><path d="M681.683 22.025h65.722l-35.49 157.702h-65.722l35.49-157.702Z" fill="#CCF6FF"/><path d="M759.868 22.025h65.212v157.702H724.653l35.215-157.702Z" fill="#F9F871"/><path d="M737.662 233.323h4.6v2.22h-7.4v-13.96h2.8v11.74Zm5.659-3.36c0-1.12.22-2.113.66-2.98.454-.866 1.06-1.533 1.82-2a4.907 4.907 0 0 1 2.58-.7c.827 0 1.547.167 2.16.5.627.334 1.127.754 1.5 1.26v-1.58h2.82v11.08h-2.82v-1.62c-.36.52-.86.954-1.5 1.3-.626.334-1.353.5-2.18.5-.933 0-1.786-.24-2.56-.72-.76-.48-1.366-1.153-1.82-2.02-.44-.88-.66-1.886-.66-3.02Zm8.72.04c0-.68-.133-1.26-.4-1.74a2.734 2.734 0 0 0-1.08-1.12c-.453-.266-.94-.4-1.46-.4s-1 .127-1.44.38c-.44.254-.8.627-1.08 1.12-.266.48-.4 1.054-.4 1.72 0 .667.134 1.254.4 1.76.28.494.64.874 1.08 1.14.454.267.934.4 1.44.4.52 0 1.007-.126 1.46-.38.454-.266.814-.64 1.08-1.12.267-.493.4-1.08.4-1.76Zm15.401-3.24h-1.94v8.78h-2.84v-8.78h-1.26v-2.3h1.26v-.56c0-1.36.386-2.36 1.16-3 .773-.64 1.94-.94 3.5-.9v2.36c-.68-.013-1.154.1-1.42.34-.267.24-.4.674-.4 1.3v.46h1.94v2.3Zm3.234-3.62c-.493 0-.907-.153-1.24-.46-.32-.32-.48-.713-.48-1.18 0-.466.16-.853.48-1.16.333-.32.747-.48 1.24-.48s.9.16 1.22.48c.333.307.5.694.5 1.16 0 .467-.167.86-.5 1.18-.32.307-.727.46-1.22.46Zm1.38 1.32v11.08h-2.8v-11.08h2.8Zm8.906-.16c1.32 0 2.387.42 3.2 1.26.814.827 1.22 1.987 1.22 3.48v6.5h-2.8v-6.12c0-.88-.22-1.553-.66-2.02-.44-.48-1.04-.72-1.8-.72-.773 0-1.386.24-1.84.72-.44.467-.66 1.14-.66 2.02v6.12h-2.8v-11.08h2.8v1.38c.374-.48.847-.853 1.42-1.12a4.402 4.402 0 0 1 1.92-.42Zm11.129 5.66c0-1.12.22-2.113.66-2.98.453-.866 1.066-1.533 1.84-2a4.902 4.902 0 0 1 2.58-.7c.72 0 1.406.16 2.06.48.653.307 1.173.72 1.56 1.24v-5.26h2.84v14.8h-2.84v-1.64c-.347.547-.834.987-1.46 1.32-.627.334-1.354.5-2.18.5-.934 0-1.787-.24-2.56-.72-.774-.48-1.387-1.153-1.84-2.02-.44-.88-.66-1.886-.66-3.02Zm8.72.04c0-.68-.134-1.26-.4-1.74a2.747 2.747 0 0 0-1.08-1.12 2.84 2.84 0 0 0-1.46-.4c-.52 0-1 .127-1.44.38-.44.254-.8.627-1.08 1.12-.267.48-.4 1.054-.4 1.72 0 .667.133 1.254.4 1.76.28.494.64.874 1.08 1.14.453.267.933.4 1.44.4a2.94 2.94 0 0 0 1.46-.38 2.91 2.91 0 0 0 1.08-1.12c.266-.493.4-1.08.4-1.76Zm15.854-.24c0 .4-.026.76-.08 1.08h-8.1c.067.8.347 1.427.84 1.88.494.454 1.1.68 1.82.68 1.04 0 1.78-.446 2.22-1.34h3.02c-.32 1.067-.933 1.947-1.84 2.64-.906.68-2.02 1.02-3.34 1.02-1.066 0-2.026-.233-2.88-.7a5.15 5.15 0 0 1-1.98-2.02c-.466-.866-.7-1.866-.7-3 0-1.146.234-2.153.7-3.02a4.892 4.892 0 0 1 1.96-2c.84-.466 1.807-.7 2.9-.7 1.054 0 1.994.227 2.82.68.84.454 1.487 1.1 1.94 1.94.467.827.7 1.78.7 2.86Zm-2.9-.8c-.013-.72-.273-1.293-.78-1.72-.506-.44-1.126-.66-1.86-.66-.693 0-1.28.214-1.76.64-.466.414-.753.994-.86 1.74h5.26Zm14.33 4 2.8-8.5h2.98l-4.1 11.08h-3.4l-4.08-11.08h3l2.8 8.5Zm8.772-9.82c-.493 0-.906-.153-1.24-.46-.32-.32-.48-.713-.48-1.18 0-.466.16-.853.48-1.16.334-.32.747-.48 1.24-.48.494 0 .9.16 1.22.48.334.307.5.694.5 1.16 0 .467-.166.86-.5 1.18-.32.307-.726.46-1.22.46Zm1.38 1.32v11.08h-2.8v-11.08h2.8Zm13.067 5.3c0 .4-.027.76-.08 1.08h-8.1c.067.8.347 1.427.84 1.88.493.454 1.1.68 1.82.68 1.04 0 1.78-.446 2.22-1.34h3.02c-.32 1.067-.933 1.947-1.84 2.64-.907.68-2.02 1.02-3.34 1.02-1.067 0-2.027-.233-2.88-.7a5.15 5.15 0 0 1-1.98-2.02c-.467-.866-.7-1.866-.7-3 0-1.146.233-2.153.7-3.02a4.892 4.892 0 0 1 1.96-2c.84-.466 1.807-.7 2.9-.7 1.053 0 1.993.227 2.82.68.84.454 1.487 1.1 1.94 1.94.467.827.7 1.78.7 2.86Zm-2.9-.8c-.013-.72-.273-1.293-.78-1.72-.507-.44-1.127-.66-1.86-.66-.693 0-1.28.214-1.76.64-.467.414-.753.994-.86 1.74h5.26Z" fill="#fff"/><path d="M751.369 90.457v-5.822h10.144v26.731h-6.518V90.457h-3.626Zm14.427 7.177c0-4.199.806-7.507 2.417-9.923 1.636-2.417 4.26-3.626 7.873-3.626 3.613 0 6.225 1.209 7.836 3.626 1.636 2.416 2.454 5.724 2.454 9.923 0 4.248-.818 7.58-2.454 9.997-1.611 2.417-4.223 3.625-7.836 3.625-3.613 0-6.237-1.208-7.873-3.625-1.611-2.417-2.417-5.749-2.417-9.997Zm14.428 0c0-2.465-.269-4.357-.806-5.676-.537-1.342-1.648-2.014-3.332-2.014s-2.795.672-3.332 2.014c-.537 1.319-.806 3.21-.806 5.676 0 1.66.098 3.04.293 4.138.195 1.074.586 1.953 1.172 2.637.61.659 1.501.988 2.673.988 1.172 0 2.051-.329 2.637-.988.61-.684 1.013-1.563 1.208-2.637.195-1.098.293-2.478.293-4.138Zm8.947-6.261c0-1.978.562-3.504 1.685-4.578 1.147-1.074 2.624-1.611 4.431-1.611 1.806 0 3.271.537 4.394 1.611 1.123 1.074 1.684 2.6 1.684 4.578 0 1.977-.561 3.503-1.684 4.577-1.123 1.074-2.588 1.611-4.394 1.611-1.807 0-3.284-.537-4.431-1.611-1.123-1.074-1.685-2.6-1.685-4.578Zm24.865-5.786-14.099 25.779h-6.042l14.098-25.78h6.043Zm-18.786 3.259c-1.172 0-1.758.842-1.758 2.526 0 1.66.586 2.49 1.758 2.49.562 0 1.001-.207 1.318-.622.318-.415.476-1.037.476-1.867 0-1.685-.598-2.527-1.794-2.527Zm11.352 16.735c0-1.978.561-3.504 1.684-4.578 1.123-1.074 2.588-1.611 4.395-1.611 1.806 0 3.271.537 4.394 1.611 1.123 1.074 1.684 2.6 1.684 4.578 0 1.977-.561 3.503-1.684 4.577-1.123 1.074-2.588 1.611-4.394 1.611-1.807 0-3.272-.537-4.395-1.611-1.123-1.074-1.684-2.6-1.684-4.577Zm6.042-2.527c-.561 0-1.001.207-1.318.622-.293.415-.44 1.05-.44 1.905 0 1.66.586 2.49 1.758 2.49.562 0 1.001-.208 1.318-.623.318-.415.476-1.037.476-1.867 0-.83-.158-1.453-.476-1.868-.317-.439-.756-.659-1.318-.659Z" fill="#262626"/><path d="M570.5 235.379h-2.8l-6.34-9.58v9.58h-2.8v-13.98h2.8l6.34 9.6v-9.6h2.8v13.98Zm7.687.18c-1.066 0-2.026-.234-2.88-.7a5.262 5.262 0 0 1-2.02-2.02c-.48-.867-.72-1.867-.72-3 0-1.134.247-2.134.74-3a5.21 5.21 0 0 1 2.06-2c.867-.48 1.834-.72 2.9-.72 1.067 0 2.034.24 2.9.72a5.066 5.066 0 0 1 2.04 2c.507.866.76 1.866.76 3 0 1.133-.26 2.133-.78 3a5.315 5.315 0 0 1-2.08 2.02c-.866.466-1.84.7-2.92.7Zm0-2.44c.507 0 .98-.12 1.42-.36a2.734 2.734 0 0 0 1.08-1.12c.267-.494.4-1.094.4-1.8 0-1.054-.28-1.86-.84-2.42-.546-.574-1.22-.86-2.02-.86s-1.473.286-2.02.86c-.533.56-.8 1.366-.8 2.42 0 1.053.26 1.866.78 2.44.534.56 1.2.84 2 .84Zm12.074 2.44c-.906 0-1.72-.16-2.44-.48-.72-.334-1.293-.78-1.72-1.34a3.412 3.412 0 0 1-.68-1.86h2.82c.054.426.26.78.62 1.06.374.28.834.42 1.38.42.534 0 .947-.107 1.24-.32.307-.214.46-.487.46-.82 0-.36-.186-.627-.56-.8-.36-.187-.94-.387-1.74-.6-.826-.2-1.506-.407-2.04-.62a3.636 3.636 0 0 1-1.36-.98c-.373-.44-.56-1.034-.56-1.78 0-.614.174-1.174.52-1.68.36-.507.867-.907 1.52-1.2.667-.294 1.447-.44 2.34-.44 1.32 0 2.374.333 3.16 1 .787.653 1.22 1.54 1.3 2.66h-2.68c-.04-.44-.226-.787-.56-1.04-.32-.267-.753-.4-1.3-.4-.506 0-.9.093-1.18.28a.899.899 0 0 0-.4.78c0 .373.187.66.56.86.374.186.954.38 1.74.58.8.2 1.46.406 1.98.62.52.213.967.546 1.34 1 .387.44.587 1.026.6 1.76 0 .64-.18 1.213-.54 1.72-.346.506-.853.906-1.52 1.2-.653.28-1.42.42-2.3.42Zm21.884-11.26v11.08h-2.82v-1.4c-.36.48-.833.86-1.42 1.14-.573.266-1.2.4-1.88.4-.866 0-1.633-.18-2.3-.54a4.036 4.036 0 0 1-1.58-1.62c-.373-.72-.56-1.574-.56-2.56v-6.5h2.8v6.1c0 .88.22 1.56.66 2.04.44.466 1.04.7 1.8.7.774 0 1.38-.234 1.82-.7.44-.48.66-1.16.66-2.04v-6.1h2.82Zm7.003 11.26c-.907 0-1.72-.16-2.44-.48-.72-.334-1.293-.78-1.72-1.34a3.412 3.412 0 0 1-.68-1.86h2.82c.053.426.26.78.62 1.06.373.28.833.42 1.38.42.533 0 .947-.107 1.24-.32.307-.214.46-.487.46-.82 0-.36-.187-.627-.56-.8-.36-.187-.94-.387-1.74-.6-.827-.2-1.507-.407-2.04-.62a3.636 3.636 0 0 1-1.36-.98c-.373-.44-.56-1.034-.56-1.78 0-.614.173-1.174.52-1.68.36-.507.867-.907 1.52-1.2.667-.294 1.447-.44 2.34-.44 1.32 0 2.373.333 3.16 1 .787.653 1.22 1.54 1.3 2.66h-2.68c-.04-.44-.227-.787-.56-1.04-.32-.267-.753-.4-1.3-.4-.507 0-.9.093-1.18.28a.897.897 0 0 0-.4.78c0 .373.187.66.56.86.373.186.953.38 1.74.58.8.2 1.46.406 1.98.62.52.213.967.546 1.34 1 .387.44.587 1.026.6 1.76 0 .64-.18 1.213-.54 1.72-.347.506-.853.906-1.52 1.2-.653.28-1.42.42-2.3.42Zm5.938-5.76c0-1.12.22-2.114.66-2.98.454-.867 1.06-1.534 1.82-2a4.897 4.897 0 0 1 2.58-.7c.827 0 1.547.166 2.16.5.627.333 1.127.753 1.5 1.26v-1.58h2.82v11.08h-2.82v-1.62c-.36.52-.86.953-1.5 1.3-.626.333-1.353.5-2.18.5-.933 0-1.786-.24-2.56-.72-.76-.48-1.366-1.154-1.82-2.02-.44-.88-.66-1.887-.66-3.02Zm8.72.04c0-.68-.133-1.26-.4-1.74a2.722 2.722 0 0 0-1.08-1.12c-.453-.267-.94-.4-1.46-.4s-1 .126-1.44.38c-.44.253-.8.626-1.08 1.12-.266.48-.4 1.053-.4 1.72 0 .666.134 1.253.4 1.76.28.493.64.873 1.08 1.14.454.266.934.4 1.44.4.52 0 1.007-.127 1.46-.38.454-.267.814-.64 1.08-1.12.267-.494.4-1.08.4-1.76Zm9.895-5.72c.827 0 1.553.166 2.18.5.627.32 1.12.74 1.48 1.26v-1.58h2.82v11.16c0 1.026-.207 1.94-.62 2.74a4.527 4.527 0 0 1-1.86 1.92c-.827.48-1.827.72-3 .72-1.573 0-2.867-.367-3.88-1.1-1-.734-1.567-1.734-1.7-3h2.78c.147.506.46.906.94 1.2.493.306 1.087.46 1.78.46.813 0 1.473-.247 1.98-.74.507-.48.76-1.214.76-2.2v-1.72c-.36.52-.86.953-1.5 1.3-.627.346-1.347.52-2.16.52-.933 0-1.787-.24-2.56-.72-.773-.48-1.387-1.154-1.84-2.02-.44-.88-.66-1.887-.66-3.02 0-1.12.22-2.114.66-2.98.453-.867 1.06-1.534 1.82-2a4.892 4.892 0 0 1 2.58-.7Zm3.66 5.72c0-.68-.133-1.26-.4-1.74a2.735 2.735 0 0 0-1.08-1.12c-.453-.267-.94-.4-1.46-.4s-1 .126-1.44.38c-.44.253-.8.626-1.08 1.12-.267.48-.4 1.053-.4 1.72 0 .666.133 1.253.4 1.76.28.493.64.873 1.08 1.14a2.8 2.8 0 0 0 1.44.4c.52 0 1.007-.127 1.46-.38.453-.267.813-.64 1.08-1.12.267-.494.4-1.08.4-1.76Zm15.855-.24c0 .4-.027.76-.08 1.08h-8.1c.066.8.346 1.426.84 1.88.493.453 1.1.68 1.82.68 1.04 0 1.78-.447 2.22-1.34h3.02c-.32 1.066-.934 1.946-1.84 2.64-.907.68-2.02 1.02-3.34 1.02-1.067 0-2.027-.234-2.88-.7a5.156 5.156 0 0 1-1.98-2.02c-.467-.867-.7-1.867-.7-3 0-1.147.233-2.154.7-3.02a4.874 4.874 0 0 1 1.96-2c.84-.467 1.806-.7 2.9-.7 1.053 0 1.993.226 2.82.68.84.453 1.486 1.1 1.94 1.94.466.826.7 1.78.7 2.86Zm-2.9-.8c-.014-.72-.274-1.294-.78-1.72-.507-.44-1.127-.66-1.86-.66-.694 0-1.28.213-1.76.64-.467.413-.754.993-.86 1.74h5.26Zm9.184 6.76c-.907 0-1.72-.16-2.44-.48-.72-.334-1.294-.78-1.72-1.34a3.405 3.405 0 0 1-.68-1.86h2.82c.053.426.26.78.62 1.06.373.28.833.42 1.38.42.533 0 .946-.107 1.24-.32.306-.214.46-.487.46-.82 0-.36-.187-.627-.56-.8-.36-.187-.94-.387-1.74-.6-.827-.2-1.507-.407-2.04-.62a3.628 3.628 0 0 1-1.36-.98c-.374-.44-.56-1.034-.56-1.78 0-.614.173-1.174.52-1.68.36-.507.866-.907 1.52-1.2.666-.294 1.446-.44 2.34-.44 1.32 0 2.373.333 3.16 1 .786.653 1.22 1.54 1.3 2.66h-2.68c-.04-.44-.227-.787-.56-1.04-.32-.267-.754-.4-1.3-.4-.507 0-.9.093-1.18.28a.897.897 0 0 0-.4.78c0 .373.186.66.56.86.373.186.953.38 1.74.58.8.2 1.46.406 1.98.62.52.213.966.546 1.34 1 .386.44.586 1.026.6 1.76 0 .64-.18 1.213-.54 1.72-.347.506-.854.906-1.52 1.2-.654.28-1.42.42-2.3.42Z" fill="#fff"/><path d="M617.719 106.354v-5.053l11.571-16.552h6.995v16.185h3.002v5.42h-3.002v4.76h-6.262v-4.76h-12.304Zm12.743-14.72-6.152 9.3h6.152v-9.3Zm11.892 5.748c0-4.199.806-7.506 2.417-9.923 1.636-2.417 4.26-3.626 7.873-3.626 3.613 0 6.225 1.209 7.837 3.626 1.635 2.417 2.453 5.724 2.453 9.923 0 4.248-.818 7.58-2.453 9.997-1.612 2.417-4.224 3.626-7.837 3.626-3.613 0-6.237-1.209-7.873-3.626-1.611-2.417-2.417-5.749-2.417-9.997Zm14.428 0c0-2.465-.268-4.357-.805-5.675-.537-1.343-1.648-2.014-3.333-2.014-1.684 0-2.795.67-3.332 2.014-.537 1.318-.806 3.21-.806 5.675 0 1.66.098 3.04.293 4.138.196 1.074.586 1.953 1.172 2.637.61.659 1.501.989 2.673.989 1.172 0 2.051-.33 2.637-.989.61-.684 1.013-1.563 1.208-2.637.196-1.098.293-2.478.293-4.138Zm8.948-6.261c0-1.978.561-3.504 1.684-4.578 1.148-1.074 2.625-1.611 4.431-1.611 1.807 0 3.271.537 4.394 1.611 1.123 1.074 1.685 2.6 1.685 4.578 0 1.977-.562 3.503-1.685 4.577-1.123 1.074-2.587 1.611-4.394 1.611-1.806 0-3.283-.537-4.431-1.611-1.123-1.074-1.684-2.6-1.684-4.577Zm24.864-5.786-14.098 25.779h-6.042l14.098-25.78h6.042Zm-18.786 3.259c-1.171 0-1.757.842-1.757 2.527 0 1.66.586 2.49 1.757 2.49.562 0 1.001-.208 1.319-.623.317-.415.476-1.037.476-1.867 0-1.685-.598-2.527-1.795-2.527Zm11.352 16.735c0-1.978.562-3.504 1.685-4.578 1.123-1.074 2.587-1.61 4.394-1.61 1.806 0 3.271.536 4.394 1.61 1.123 1.074 1.685 2.6 1.685 4.578 0 1.977-.562 3.503-1.685 4.577-1.123 1.074-2.588 1.611-4.394 1.611-1.807 0-3.271-.537-4.394-1.611-1.123-1.074-1.685-2.6-1.685-4.577Zm6.042-2.527c-.561 0-1.001.207-1.318.622-.293.415-.439 1.05-.439 1.905 0 1.66.586 2.49 1.757 2.49.562 0 1.001-.208 1.319-.623.317-.415.476-1.037.476-1.867 0-.83-.159-1.453-.476-1.868-.318-.439-.757-.659-1.319-.659Z" fill="#262626"/><path d="M29.866 232.931h4.6v2.22h-7.4v-13.96h2.8v11.74Zm5.66-3.36c0-1.12.22-2.114.66-2.98.453-.867 1.06-1.534 1.82-2a4.894 4.894 0 0 1 2.58-.7c.827 0 1.547.166 2.16.5.627.333 1.127.753 1.5 1.26v-1.58h2.82v11.08h-2.82v-1.62c-.36.52-.86.953-1.5 1.3-.627.333-1.353.5-2.18.5-.933 0-1.787-.24-2.56-.72-.76-.48-1.367-1.154-1.82-2.02-.44-.88-.66-1.887-.66-3.02Zm8.72.04c0-.68-.133-1.26-.4-1.74a2.73 2.73 0 0 0-1.08-1.12c-.453-.267-.94-.4-1.46-.4s-1 .126-1.44.38c-.44.253-.8.626-1.08 1.12-.267.48-.4 1.053-.4 1.72 0 .666.133 1.253.4 1.76.28.493.64.873 1.08 1.14.453.266.933.4 1.44.4.52 0 1.007-.127 1.46-.38.453-.267.813-.64 1.08-1.12.267-.494.4-1.08.4-1.76Zm15.4-3.24h-1.94v8.78h-2.84v-8.78h-1.26v-2.3h1.26v-.56c0-1.36.387-2.36 1.16-3 .774-.64 1.94-.94 3.5-.9v2.36c-.68-.014-1.153.1-1.42.34-.266.24-.4.673-.4 1.3v.46h1.94v2.3Zm1.095 3.2c0-1.12.22-2.114.66-2.98.453-.867 1.06-1.534 1.82-2a4.894 4.894 0 0 1 2.58-.7c.827 0 1.547.166 2.16.5.627.333 1.127.753 1.5 1.26v-1.58h2.82v11.08h-2.82v-1.62c-.36.52-.86.953-1.5 1.3-.627.333-1.353.5-2.18.5-.933 0-1.787-.24-2.56-.72-.76-.48-1.367-1.154-1.82-2.02-.44-.88-.66-1.887-.66-3.02Zm8.72.04c0-.68-.133-1.26-.4-1.74a2.73 2.73 0 0 0-1.08-1.12c-.453-.267-.94-.4-1.46-.4s-1 .126-1.44.38c-.44.253-.8.626-1.08 1.12-.267.48-.4 1.053-.4 1.72 0 .666.133 1.253.4 1.76.28.493.64.873 1.08 1.14.453.266.933.4 1.44.4.52 0 1.007-.127 1.46-.38.453-.267.813-.64 1.08-1.12.267-.494.4-1.08.4-1.76Zm8.355-3.92c.36-.534.853-.967 1.48-1.3.64-.334 1.366-.5 2.18-.5.946 0 1.8.233 2.56.7.773.466 1.38 1.133 1.82 2 .453.853.68 1.846.68 2.98 0 1.133-.227 2.14-.68 3.02-.44.866-1.047 1.54-1.82 2.02-.76.48-1.614.72-2.56.72-.827 0-1.554-.16-2.18-.48a4.341 4.341 0 0 1-1.48-1.28v1.58h-2.8v-14.8h2.8v5.34Zm5.86 3.88c0-.667-.14-1.24-.42-1.72a2.73 2.73 0 0 0-1.08-1.12 2.83 2.83 0 0 0-1.44-.38c-.507 0-.987.133-1.44.4-.44.253-.8.626-1.08 1.12-.267.493-.4 1.073-.4 1.74 0 .666.133 1.246.4 1.74.28.493.64.873 1.08 1.14.453.253.933.38 1.44.38.52 0 1-.134 1.44-.4a2.88 2.88 0 0 0 1.08-1.14c.28-.494.42-1.08.42-1.76Zm7.694-3.78a3.957 3.957 0 0 1 1.4-1.38c.587-.334 1.254-.5 2-.5v2.94h-.74c-.88 0-1.546.206-2 .62-.44.413-.66 1.133-.66 2.16v5.52h-2.8v-11.08h2.8v1.72Zm6.706-3.04c-.493 0-.906-.154-1.24-.46-.32-.32-.48-.714-.48-1.18 0-.467.16-.854.48-1.16.334-.32.747-.48 1.24-.48.494 0 .9.16 1.22.48.333.306.5.693.5 1.16 0 .466-.167.86-.5 1.18-.32.306-.727.46-1.22.46Zm1.38 1.32v11.08h-2.8v-11.08h2.8Zm2.047 5.54c0-1.147.233-2.147.7-3a4.908 4.908 0 0 1 1.94-2c.826-.48 1.773-.72 2.84-.72 1.373 0 2.506.346 3.4 1.04.906.68 1.513 1.64 1.82 2.88h-3.02a2.137 2.137 0 0 0-.82-1.12c-.374-.28-.84-.42-1.4-.42-.8 0-1.434.293-1.9.88-.467.573-.7 1.393-.7 2.46 0 1.053.233 1.873.7 2.46.466.573 1.1.86 1.9.86 1.133 0 1.873-.507 2.22-1.52h3.02c-.307 1.2-.914 2.153-1.82 2.86-.907.706-2.04 1.06-3.4 1.06-1.067 0-2.014-.234-2.84-.7a5.085 5.085 0 0 1-1.94-2c-.467-.867-.7-1.874-.7-3.02Zm12.031-.04c0-1.12.22-2.114.66-2.98.453-.867 1.06-1.534 1.82-2a4.892 4.892 0 0 1 2.58-.7c.827 0 1.547.166 2.16.5.627.333 1.127.753 1.5 1.26v-1.58h2.82v11.08h-2.82v-1.62c-.36.52-.86.953-1.5 1.3-.627.333-1.353.5-2.18.5-.933 0-1.787-.24-2.56-.72-.76-.48-1.367-1.154-1.82-2.02-.44-.88-.66-1.887-.66-3.02Zm8.72.04c0-.68-.133-1.26-.4-1.74a2.735 2.735 0 0 0-1.08-1.12c-.453-.267-.94-.4-1.46-.4s-1 .126-1.44.38c-.44.253-.8.626-1.08 1.12-.267.48-.4 1.053-.4 1.72 0 .666.133 1.253.4 1.76.28.493.64.873 1.08 1.14a2.8 2.8 0 0 0 1.44.4c.52 0 1.007-.127 1.46-.38.453-.267.813-.64 1.08-1.12.267-.494.4-1.08.4-1.76Zm8.815-3.24v5.36c0 .373.086.646.26.82.186.16.493.24.92.24h1.3v2.36h-1.76c-2.36 0-3.54-1.147-3.54-3.44v-5.34h-1.32v-2.3h1.32v-2.74h2.82v2.74h2.48v2.3h-2.48Zm5.913-3.62c-.493 0-.906-.154-1.24-.46-.32-.32-.48-.714-.48-1.18 0-.467.16-.854.48-1.16.334-.32.747-.48 1.24-.48.494 0 .9.16 1.22.48.334.306.5.693.5 1.16 0 .466-.166.86-.5 1.18-.32.306-.726.46-1.22.46Zm1.38 1.32v11.08h-2.8v-11.08h2.8Zm7.687 11.26c-1.067 0-2.027-.234-2.88-.7a5.256 5.256 0 0 1-2.02-2.02c-.48-.867-.72-1.867-.72-3 0-1.134.247-2.134.74-3a5.204 5.204 0 0 1 2.06-2c.867-.48 1.833-.72 2.9-.72s2.033.24 2.9.72a5.066 5.066 0 0 1 2.04 2c.507.866.76 1.866.76 3 0 1.133-.26 2.133-.78 3a5.321 5.321 0 0 1-2.08 2.02c-.867.466-1.84.7-2.92.7Zm0-2.44c.507 0 .98-.12 1.42-.36a2.747 2.747 0 0 0 1.08-1.12c.267-.494.4-1.094.4-1.8 0-1.054-.28-1.86-.84-2.42a2.68 2.68 0 0 0-2.02-.86c-.8 0-1.473.286-2.02.86-.533.56-.8 1.366-.8 2.42 0 1.053.26 1.866.78 2.44.533.56 1.2.84 2 .84Zm13.974-8.98c1.32 0 2.386.42 3.2 1.26.813.826 1.22 1.986 1.22 3.48v6.5h-2.8v-6.12c0-.88-.22-1.554-.66-2.02-.44-.48-1.04-.72-1.8-.72-.774 0-1.387.24-1.84.72-.44.466-.66 1.14-.66 2.02v6.12h-2.8v-11.08h2.8v1.38c.373-.48.846-.854 1.42-1.12a4.395 4.395 0 0 1 1.92-.42Z" fill="#fff"/><path d="M76.5 90.09H65.077v5.054c.488-.537 1.172-.976 2.05-1.318a7.812 7.812 0 0 1 2.857-.513c1.83 0 3.344.415 4.54 1.245 1.22.83 2.112 1.904 2.674 3.223.561 1.318.842 2.746.842 4.284 0 2.856-.806 5.127-2.417 6.811-1.611 1.66-3.882 2.49-6.811 2.49-1.953 0-3.65-.329-5.09-.988-1.44-.684-2.551-1.624-3.332-2.82-.782-1.196-1.209-2.576-1.282-4.138h6.115c.147.757.5 1.392 1.062 1.904.562.489 1.33.733 2.307.733 1.148 0 2.002-.367 2.563-1.099.562-.732.843-1.709.843-2.929 0-1.197-.293-2.112-.88-2.747-.585-.635-1.44-.952-2.563-.952-.83 0-1.513.208-2.05.623-.537.39-.891.915-1.062 1.574H59.4V84.598h17.1v5.493Zm4.995 7.544c0-4.199.806-7.507 2.417-9.923 1.636-2.417 4.26-3.626 7.873-3.626 3.613 0 6.225 1.209 7.836 3.626 1.636 2.416 2.454 5.724 2.454 9.923 0 4.248-.818 7.58-2.454 9.997-1.61 2.417-4.223 3.625-7.836 3.625-3.613 0-6.237-1.208-7.873-3.625-1.611-2.417-2.417-5.749-2.417-9.997Zm14.428 0c0-2.465-.269-4.357-.806-5.676-.537-1.342-1.648-2.014-3.332-2.014s-2.795.672-3.332 2.014c-.537 1.319-.806 3.21-.806 5.676 0 1.66.098 3.04.293 4.138.195 1.074.586 1.953 1.172 2.637.61.659 1.501.988 2.673.988 1.172 0 2.05-.329 2.637-.988.61-.684 1.013-1.563 1.208-2.637.195-1.098.293-2.478.293-4.138Zm8.947-6.261c0-1.978.562-3.504 1.685-4.578 1.147-1.074 2.624-1.611 4.431-1.611 1.806 0 3.271.537 4.394 1.611 1.123 1.074 1.684 2.6 1.684 4.578 0 1.977-.561 3.503-1.684 4.577-1.123 1.074-2.588 1.611-4.394 1.611-1.807 0-3.284-.537-4.431-1.611-1.123-1.074-1.685-2.6-1.685-4.578Zm24.865-5.786-14.099 25.779h-6.042l14.098-25.78h6.043Zm-18.786 3.259c-1.172 0-1.758.842-1.758 2.526 0 1.66.586 2.49 1.758 2.49.562 0 1.001-.207 1.318-.622.318-.415.476-1.037.476-1.867 0-1.685-.598-2.527-1.794-2.527Zm11.352 16.735c0-1.978.561-3.504 1.684-4.578 1.123-1.074 2.588-1.611 4.395-1.611 1.806 0 3.271.537 4.394 1.611 1.123 1.074 1.684 2.6 1.684 4.578 0 1.977-.561 3.503-1.684 4.577-1.123 1.074-2.588 1.611-4.394 1.611-1.807 0-3.272-.537-4.395-1.611-1.123-1.074-1.684-2.6-1.684-4.577Zm6.042-2.527c-.561 0-1.001.207-1.318.622-.293.415-.44 1.05-.44 1.905 0 1.66.586 2.49 1.758 2.49.562 0 1.001-.208 1.318-.623.318-.415.476-1.037.476-1.867 0-.83-.158-1.453-.476-1.868-.317-.439-.756-.659-1.318-.659Z" fill="#000"/></svg>