<svg width="1439" height="315" fill="none" xmlns="http://www.w3.org/2000/svg"><g clip-path="url(#a)" fill-rule="evenodd" clip-rule="evenodd"><path opacity=".996" d="M126.491 60.556a622.434 622.434 0 0 0 17.219 8.106c1.647 1.488 2.419 3.308 2.318 5.46v10.586c-.013 2.295-.785 4.335-2.318 6.121-4.238 2.154-7.164.996-8.775-3.474-.165-2.976-.22-5.953-.165-8.933H86.093a560.725 560.725 0 0 0 2.98 24.648c18.221 8.332 36.433 16.658 54.637 24.98a10.238 10.238 0 0 1 1.821 2.977c.221 5.404.221 10.808 0 16.212-1.491 3.86-4.195 5.073-8.112 3.639-2.094-1.415-2.977-3.4-2.649-5.955v-6.948H92.716a195.86 195.86 0 0 0 1.49 13.565 7243.886 7243.886 0 0 0 14.735 36.724l4.305 10.588a3581.238 3581.238 0 0 0 17.053 43.01c.497 2.923-.552 5.074-3.145 6.452 5.186.165 10.374.221 15.563.165v32.093c3.096.282 6.187.613 9.271.992.698.321 1.471.431 2.318.331v-1.985c7.674.11 15.29-.001 22.848-.331v-60.215h-5.629v-45.657c3.205.11 6.414 0 9.603-.331h32.451c1.146.325 2.36.435 3.642.331a30.196 30.196 0 0 0 .331 6.286c.201-.041.312-.151.332-.331a205.566 205.566 0 0 0 12.251-5.293l10.597-4.301a1456.56 1456.56 0 0 0 38.411-15.881 156.028 156.028 0 0 1 10.596-4.301 382.505 382.505 0 0 0 16.557-6.948 3833.842 3833.842 0 0 1 26.49-11.084 1042.87 1042.87 0 0 1-11.424-28.287c-.457-3.445.924-5.816 4.139-7.114 7.063-2.867 14.13-5.734 21.193-8.602 3.026-1.102 5.619-.495 7.781 1.82l21.855 29.115a18.125 18.125 0 0 1 2.649 7.279 2826.368 2826.368 0 0 1 4.47 37.386 11.746 11.746 0 0 1-2.318 3.474c-2.93 1.269-5.854 2.538-8.775 3.804a9081.47 9081.47 0 0 0-.165 77.419h11.589v31.431h22.849v4.632c8.937.357 17.877.577 26.821.662-.056-17.977 0-35.953.166-53.929.447-4.068.722-8.149.828-12.241 1.735-23.044 3.39-46.093 4.967-69.148h17.218a4456.642 4456.642 0 0 0 2.649 35.401c.971 17 2.186 33.984 3.643 50.951a4779.611 4779.611 0 0 1 47.021-24.318c.526-.314.97-.699 1.324-1.158 2.884-1.33 5.752-2.654 8.609-3.97-.056 9.706 0 19.411.166 29.115a258.6 258.6 0 0 1 7.782-3.97 4936.491 4936.491 0 0 0 48.014-24.814c.222 14.337.44 28.674.662 43.011h42.716v34.739c27.043.055 54.084 0 81.127-.165.921-.461 1.914-.626 2.98-.497v-9.594h37.418v1.985a43.887 43.887 0 0 0-.331 7.609c5.38.715 10.822.826 16.226.331a52.166 52.166 0 0 1-1.987-6.286 14.539 14.539 0 0 0 4.636-1.654c8.742-2.912 17.462-5.89 26.159-8.933l.662.331c.275.832.606 1.604.994 2.316.443 1.766.884 3.53 1.324 5.293 1.56-.653 2.937-.432 4.139.662.371 1.143.096 2.081-.828 2.812a23.272 23.272 0 0 0-4.635 1.82 167.412 167.412 0 0 0-12.583 4.135c2.867.166 5.738.221 8.609.166 13.086.175 26.222.506 39.405.992 35.312 2.028 70.633 3.903 105.962 5.625 4.844.477 9.702.808 14.57.992 6.072.249 12.145.579 18.212.993l3.311-.331a2.174 2.174 0 0 0-.993-.992c-2.567-4.822-2.623-9.675-.166-14.558a19.018 19.018 0 0 1 2.815-3.143 1205 1205 0 0 1 41.389-20.513c4.99-1.571 10.06-1.902 15.23-.992a1617.646 1617.646 0 0 0 57.62 19.685c-4.23-11.409-3.41-22.438 2.48-33.085.34-.277.73-.387 1.16-.331 3.06.984 6.15 1.867 9.28 2.647 2.9 1.03 5.88 1.912 8.94 2.647 2.6.902 5.24 1.674 7.94 2.316 2.23 5.88 4.55 11.725 6.96 17.535 1.57 3.919 3.23 7.779 4.96 11.58a678.607 678.607 0 0 1 6.3 16.212c13.79.314 27.59.479 41.39.496a8.89 8.89 0 0 0 1.98-1.158c.44-.221.77-.552 1-.993a79.626 79.626 0 0 0 10.43-8.933c.39-.856.73-1.739.99-2.646.95-4.882 1.99-9.734 3.15-14.558a351.792 351.792 0 0 0-5.8-18.197 40.98 40.98 0 0 0-3.48-5.128 21.511 21.511 0 0 0-5.29-1.82l-9.27-2.812a78.423 78.423 0 0 0-11.93.166c-3.31-.016-6.62.095-9.93.331.02-.844.46-1.34 1.32-1.489 2.85-1.145 5.72-2.192 8.61-3.143 3.59-1.305 7.12-2.739 10.6-4.301-3.55-3.655-7.08-7.295-10.6-10.919a68.694 68.694 0 0 1-3.64-4.135 4.272 4.272 0 0 0-1.98-.496c-4.91 1.21-9.77 2.589-14.57 4.135-2.66.144-5.31.034-7.95-.331-.89-.441-.89-.882 0-1.323 3.48-1.902 6.9-3.887 10.26-5.955-3.75-3.971-7.5-7.941-11.26-11.911.18-.229.4-.394.67-.496 3.17 1.528 6.37 2.962 9.6 4.301a53.919 53.919 0 0 0 8.94 3.97c.37.261.81.427 1.32.496l6.96.497c1.57.15 3.11.536 4.63 1.158l16.23 15.715c.73-2.565 1.5-5.101 2.32-7.61.81-2.955 1.58-5.933 2.32-8.933-.43-1.319-1.31-2.201-2.65-2.646-5.91-3.851-11.87-7.655-17.88-11.415a93.552 93.552 0 0 1-3.32-3.805 2.285 2.285 0 0 0-.99-1.323 27.409 27.409 0 0 0-3.31-4.632 141.408 141.408 0 0 0-6.62-9.264 39.12 39.12 0 0 0-2.65-3.474c-4.49-3.287-8.91-6.65-13.25-10.091.88-.283 1.76-.228 2.65.166 4.99 1.478 9.96 3.022 14.9 4.632 4.68 4.346 9.26 8.813 13.74 13.399.59-7.506 1.26-15.005 1.99-22.498.39-.386.77-.771 1.16-1.158 4.69-.925 9.32-1.862 13.91-2.812l1.98-.331c-.22 1.278-.99 2.05-2.31 2.316-2.37 1.459-4.8 2.837-7.29 4.136-.68.314-1.18.81-1.49 1.489-.22 8.271-.22 16.542 0 24.814 2.86 1.566 5.79 3.001 8.78 4.301 3.42 1.929 6.95 3.694 10.59 5.293 5.38-3.431 10.62-7.07 15.73-10.918.22-.22.22-.441 0-.662-4.97-4.962-9.93-9.925-14.9-14.888a3.068 3.068 0 0 1 0-1.985c2.04-4.08 4.08-8.161 6.13-12.241.27-.293.6-.404.99-.331-.15 4.114.01 8.194.5 12.241l14.07 11.415c2.21.138 4.03-.69 5.46-2.482 2.36-3.78 4.85-7.474 7.45-11.083-2.92-2.923-5.85-5.845-8.77-8.768-.29-.454-.45-.95-.5-1.489 1.9-3.34 3.95-6.597 6.13-9.76a1.45 1.45 0 0 1 1.16-.331c-.06 2.76 0 5.517.16 8.272a68.928 68.928 0 0 0 7.78 5.955c6.36-3.871 12.77-7.675 19.21-11.414 2.27-2.321 4.59-4.582 6.95-6.783.37.405.43.846.17 1.324-.99 2.977-1.99 5.955-2.98 8.933-7.08 4.697-14.2 9.329-21.36 13.895a445.057 445.057 0 0 0-5.96 15.385c6.48 2.986 13.1 5.688 19.87 8.106 4.16-1.038 8.36-1.975 12.58-2.813.69-.267 1.35-.212 1.99.166a150.156 150.156 0 0 1-11.59 6.782c-1.23.78-2.55 1.277-3.97 1.489a729.889 729.889 0 0 1-25.5-7.113 2.139 2.139 0 0 0-.83-.166c-.28 0-.57.057-.83.166l-8.94 6.948-14.07 14.061c-.28 2.104-.22 4.199.16 6.286 5-2.829 10.08-5.476 15.24-7.94 12.05 3.092 24.08 6.235 36.09 9.429 1.76.221 3.53.221 5.3 0 5.3-1.51 10.59-2.999 15.89-4.467a94.53 94.53 0 0 1 4.97-1.654c.66-.11 1.32-.221 1.99-.331v1.324c-.53.943-1.02 1.936-1.49 2.977-.55.298-1.05.629-1.49.993a153.542 153.542 0 0 0-11.92 6.286c4.08 4.361 8.33 8.552 12.74 12.572.16.314.22.645.17.993-2.15.002-4.28-.39-6.29-1.158l-16.23-10.256a350.265 350.265 0 0 0-23.84-2.978c2.55 4.702 4.87 9.499 6.95 14.392a3.085 3.085 0 0 1-1.98-.827 360.624 360.624 0 0 0-18.55-13.4c-.47.073-.91.238-1.32.497a676.009 676.009 0 0 0-10.76 9.76c-.25.927-.14 1.809.33 2.647 1.56 1.668 3 3.433 4.3 5.293 3.55 6.624 7.08 13.241 10.6 19.851.06.883.11 1.765.17 2.647-.56 5.402-.94 10.806-1.16 16.212l8.28 13.564c3.6 4.03 8.07 5.463 13.41 4.302 20.09-.425 40.18-.976 60.26-1.655 20.53-.617 41.06-1.168 61.59-1.654 14.15-.359 28.28-.8 42.39-1.323 14.13-.265 28.26-.651 42.38-1.158.31-.092.53-.258.66-.497 7.91-4.553 15.74-9.185 23.51-13.895 2.64-1.54 5.29-3.085 7.95-4.632.33 15.769.44 31.539.33 47.311-493.496-.873-986.991-2.031-1480.486-3.474a2903.771 2903.771 0 0 0 4.801-40.529c.166-7.388.221-14.777.166-22.167h2.318a5.361 5.361 0 0 0 0-3.308 77.002 77.002 0 0 1-8.278 3.474c-4.068.4-6.275-1.419-6.623-5.459.014-.913.18-1.795.497-2.647A2213.156 2213.156 0 0 0 .33 195.874a647.599 647.599 0 0 0 13.908-34.408 130.12 130.12 0 0 0 4.14-10.918 296.5 296.5 0 0 1 1.49-12.242c-14.016-.331-28.036-.441-42.055-.331.055 3.2 0 6.399-.165 9.595-1.985 4.177-5.02 5.114-9.106 2.812a6.473 6.473 0 0 1-1.822-3.143c-.22-5.183-.22-10.367 0-15.55.242-1.865 1.18-3.243 2.815-4.136A5920.562 5920.562 0 0 0 23.51 103.07c1.127-8.2 2.12-16.416 2.98-24.648h-48.676c.055 3.09 0 6.178-.165 9.264-1.142 3.451-3.516 4.83-7.12 4.136-2.155-.717-3.425-2.206-3.808-4.467-.22-5.18-.22-10.369 0-15.55.575-2.229 1.955-3.718 4.14-4.466 19.881-8.957 39.75-17.944 59.603-26.965.63-3.17 1.126-6.367 1.49-9.594a7.62 7.62 0 0 1 .662-1.655 1870.62 1870.62 0 0 0 19.206-27.46c2.78-2.506 5.65-2.616 8.61-.33a716.408 716.408 0 0 1 20.2 29.445 85.38 85.38 0 0 0 1.49 9.594c14.798 6.732 29.588 13.46 44.37 20.182ZM55.961 15.23c.56.322 1.057.763 1.49 1.323a763.115 763.115 0 0 0 12.251 17.535c.337 2.09.613 4.186.828 6.286H42.053c.14-2.11.416-4.206.828-6.286a445.514 445.514 0 0 0 13.08-18.858ZM40.727 51.292h31.127c.527 5.407 1.08 10.81 1.655 16.212H39.073c.524-5.406 1.075-10.81 1.654-16.212Zm-11.92 1.986c.217.427.328.924.33 1.488-.502 4.24-.943 8.486-1.324 12.738-9.934.055-19.868 0-29.802-.165a1049.455 1049.455 0 0 0 30.796-14.06Zm54.305.33c.02-.18.13-.29.331-.33a1965.197 1965.197 0 0 0 31.127 14.06c-9.934.166-19.868.221-29.802.166a222.113 222.113 0 0 0-1.656-13.896ZM37.748 78.422h37.087c.797 7.166 1.57 14.334 2.318 21.505H35.43c.7-7.176 1.473-14.345 2.318-21.505Zm105.3 17.535h10.596v10.587h-10.596V95.957Zm21.855 0h10.596v10.587h-10.596V95.957Zm92.385 5.294h10.596v10.587h-10.596v-10.587Zm21.855 0h10.596v10.587h-10.596v-10.587Zm-245.037 9.925h44.371c.65 5.283 1.2 10.577 1.656 15.881-16.005.055-32.01 0-48.014-.165a488.571 488.571 0 0 0 1.987-15.716Zm-12.583 4.963c.395.156.616.486.662.993a113.381 113.381 0 0 0-.993 9.925c-7.617.055-15.233 0-22.849-.165 7.797-3.51 15.523-7.094 23.18-10.753Zm68.875 0c7.98 3.49 15.926 7.074 23.841 10.753-7.615.165-15.23.22-22.848.165a821.601 821.601 0 0 0-.993-10.918Zm166.89 6.948h10.596v10.587h-10.596v-10.587Zm21.855 0h10.596v10.587h-10.596v-10.587Zm-219.87 38.379H52.98a2239.081 2239.081 0 0 0-23.345-10.588c.386-4.183.883-8.374 1.49-12.572 16.776-.331 33.554-.441 50.332-.331a109.262 109.262 0 0 1 1.16 12.903 2239.081 2239.081 0 0 0-23.345 10.588Zm45.695-16.543h10.596v10.587h-10.596v-10.587Zm29.802 0c-.328 2.555.555 4.54 2.649 5.955v4.632h-10.597v-10.587h7.948Zm122.518 0h10.596v10.587h-10.596v-10.587Zm32.451 4.963a156.028 156.028 0 0 0-10.596 4.301v-9.264h10.596v4.963Zm63.246 27.13v33.746h-11.921v-25.806h-26.159v33.747h-8.609v-56.907c11-4.474 21.98-8.996 32.947-13.564 3.421 8.492 6.845 16.983 10.265 25.475.679 1.617 1.838 2.72 3.477 3.309ZM88.411 167.09c.055 3.09 0 6.178-.165 9.264a173.074 173.074 0 0 1-11.424-10.587 120.96 120.96 0 0 0 9.437-4.301c.722 1.881 1.44 3.756 2.152 5.624Zm16.557-.662h10.596v10.588h-10.596v-10.588Zm21.854 0h10.597v10.588h-10.597v-10.588Zm64.902 6.948h-10.596v-6.948h10.596v6.948Zm21.855 0h-10.596v-6.948h10.596v6.948Zm76.16-4.632v8.272h-.993a131.492 131.492 0 0 1-.994-7.61 3.762 3.762 0 0 0 1.987-.662Zm-180.798 19.52h6.623v10.588h-2.318l-4.305-10.588Zm17.881 0h10.597v10.588h-10.597v-10.588Zm113.91.993v29.446h-10.597v-25.145a110.768 110.768 0 0 1 10.597-4.301Zm-115.234 21.174c.235-.299.566-.409.993-.33.05.348-.005.679-.165.992a2.35 2.35 0 0 0-.828-.662ZM.33 226.974v4.632l-1.987.992-.33-.33a38.138 38.138 0 0 1 2.317-5.294Z" fill="#AAC5B2"/><path opacity=".997" d="M1330.48 74.78c4.15 7.068 9.44 13.189 15.9 18.363-6.35 6.342-12.69 12.683-19.04 19.024-.2.575.02.906.66.993 8.77-5.089 18.2-8.122 28.31-9.099 11.44-3.21 18.17-10.654 20.2-22.332 1.09-.234 2.19-.344 3.31-.331v36.063h82.12v111.496a92.036 92.036 0 0 1-14.4 3.971 513.958 513.958 0 0 1-24.84-6.287 88.722 88.722 0 0 0-10.09 5.294 9.336 9.336 0 0 1-.17-4.301c4.48-4.918 9.41-9.404 14.73-13.399a3.07 3.07 0 0 1 1.99 0 345.29 345.29 0 0 0 16.06 4.466 88.024 88.024 0 0 0 10.1-5.294l-.66-.33c-2.99.626-5.97 1.288-8.94 1.985a231.01 231.01 0 0 1-12.92-5.294c1.31-3.295 2.57-6.604 3.81-9.925 4.5-3.047 9.08-5.97 13.74-8.768a22.449 22.449 0 0 0 2.16-7.113l-4.47 4.466c-4.25 2.398-8.45 4.88-12.59 7.444a29.775 29.775 0 0 1-5.13-3.97 42.675 42.675 0 0 0-.5-5.293 52.779 52.779 0 0 0-4.3 6.617c1.85 2.295 3.84 4.5 5.96 6.617-1.67 2.38-3.27 4.807-4.8 7.278-.92 1.152-2.08 1.648-3.48 1.489-3.14-2.418-6.23-4.9-9.27-7.444-.21-2.638-.43-5.285-.66-7.94a131.062 131.062 0 0 0-4.14 7.94 2.14 2.14 0 0 0-.17.827c0 .284.06.565.17.827 3.25 3.254 6.51 6.507 9.77 9.76a171.334 171.334 0 0 1-10.43 7.444 328.03 328.03 0 0 1-12.59-6.286 199.17 199.17 0 0 1 0-16.211 71.191 71.191 0 0 1 6.79-4.301l.33-.331-.99-.331c-3.1.585-6.19 1.192-9.27 1.82-.28.275-.56.551-.83.827-.47 4.85-.91 9.702-1.33 14.557a169.197 169.197 0 0 0-9.1-8.767 106.76 106.76 0 0 0-11.26-2.978c2.7 2.176 5.46 4.271 8.28 6.286 2 2.329 3.88 4.758 5.63 7.279-6.5 1.925-13.01 3.8-19.54 5.624-1.54.221-3.1.221-4.63 0a1555.114 1555.114 0 0 0-30.47-7.775l-1.32.166c-4.03 2.066-8 4.217-11.92 6.451a14.28 14.28 0 0 1-.17-5.293l12.75-12.738c2.26-1.842 4.57-3.607 6.95-5.294a2.17 2.17 0 0 1 1.66 0 803.604 803.604 0 0 0 21.85 6.121c4.27-2.024 8.47-4.23 12.59-6.617.29-.273.4-.604.33-.993-3.76.792-7.51 1.62-11.26 2.482-.77.221-1.55.221-2.32 0a663.095 663.095 0 0 1-15.23-6.286c-.19-.24-.3-.516-.33-.827 1.5-4.226 3.11-8.417 4.8-12.573a791.076 791.076 0 0 0 18.54-12.241c.71-2.447 1.48-4.873 2.32-7.279.26-.478.2-.919-.17-1.323-1.7 1.87-3.47 3.689-5.29 5.459-5.67 3.407-11.35 6.771-17.06 10.091a64.511 64.511 0 0 1-6.29-4.632c-.36-2.51-.64-5.046-.83-7.61a61.661 61.661 0 0 0-5.96 8.933c2.52 2.958 5.17 5.825 7.95 8.602a262.988 262.988 0 0 0-6.13 9.264c-1.2 1.446-2.69 2.273-4.47 2.481a286.283 286.283 0 0 1-12.74-10.421c-.06-3.314-.23-6.623-.5-9.926-2.1 3.523-4.03 7.163-5.8 10.918-.11.204-.17.431-.17.662 0 .231.06.458.17.662 4.42 4.361 8.78 8.772 13.08 13.234-4.43 3.331-8.95 6.53-13.57 9.594a555.388 555.388 0 0 1-16.23-7.94c-.39-7.276-.44-14.555-.16-21.836a246.68 246.68 0 0 1 9.43-5.956c-.27-.11-.55-.22-.82-.33-4.25.869-8.49 1.696-12.75 2.481-.48.154-.86.43-1.16.827a561.152 561.152 0 0 1-1.99 19.189c-3.7-3.805-7.51-7.501-11.42-11.083a161.16 161.16 0 0 0-13.25-4.301c-.58-.264-1.13-.209-1.65.165 3.98 3.235 8.01 6.433 12.08 9.595 4.29 5.871 8.54 11.771 12.75 17.7l17.22 10.919c.54.369.87.865.99 1.488-1.27 4.761-2.6 9.503-3.97 14.227-4.7-4.637-9.44-9.214-14.24-13.73a87.789 87.789 0 0 0-10.59-1.324c-2.06-.863-4.05-1.8-5.96-2.812v-1.323c-.67.11-1.33.22-1.99.33-2.61-1.053-5.2-2.155-7.78-3.308-.42.116-.53.336-.33.662a28.13 28.13 0 0 1 3.47 3.804.777.777 0 0 0-.22.215.92.92 0 0 0-.11.282c-5.3 1.467-10.59 2.956-15.89 4.466-1.77.221-3.54.221-5.3 0a4309.885 4309.885 0 0 0-36.09-9.429 249.058 249.058 0 0 0-15.24 7.94 20.087 20.087 0 0 1-.16-6.286l14.07-14.061 8.94-6.948c.55-.22 1.1-.22 1.66 0a729.82 729.82 0 0 0 25.49 7.113c1.42-.212 2.75-.708 3.98-1.488 3.98-2.099 7.85-4.36 11.59-6.783-.64-.377-1.3-.433-1.99-.165-4.22.835-8.41 1.773-12.58 2.812a241.477 241.477 0 0 1-19.87-8.106 444.22 444.22 0 0 1 5.96-15.384c7.16-4.567 14.28-9.199 21.36-13.896.99-2.978 1.99-5.955 2.98-8.933.26-.478.2-.919-.17-1.323a204.929 204.929 0 0 0-6.95 6.782c-6.44 3.739-12.85 7.544-19.21 11.414a69.164 69.164 0 0 1-7.78-5.955c-.16-2.755-.22-5.512-.16-8.271a1.45 1.45 0 0 0-1.16.331 133.517 133.517 0 0 0-6.13 9.76c.04.538.21 1.034.5 1.489 2.92 2.922 5.85 5.845 8.77 8.767-2.6 3.609-5.09 7.304-7.45 11.084-1.43 1.792-3.25 2.619-5.46 2.481l-14.07-11.414a78.241 78.241 0 0 1-.5-12.242c-.39-.072-.72.038-.99.331-2.05 4.08-4.09 8.161-6.13 12.241a3.07 3.07 0 0 0 0 1.986c4.97 4.962 9.93 9.925 14.9 14.888.22.22.22.441 0 .662a247.893 247.893 0 0 1-15.73 10.918c-3.64-1.6-7.17-3.364-10.59-5.294v-34.739c1.32-.266 2.09-1.038 2.31-2.316l-1.98.331c-.33-8.325-.44-16.707-.33-25.145H1042.4c-.06-7.169 0-14.338.17-21.505 2.27-31.101 4.54-62.2 6.78-93.3h18.88c2.17 31.56 4.54 63.102 7.12 94.623 20.51-10.83 41.1-21.527 61.75-32.092.28 10.695.44 21.393.5 32.092a5616.603 5616.603 0 0 1 62.42-32.092v57.237h35.43V94.963h44.04v55.252H1303V74.781h27.48Z" fill="#386850"/><path d="M1461.95 228.96c.87-.196 1.75-.306 2.65-.331-.01 1.897-.89 3.11-2.65 3.64a108.077 108.077 0 0 0-6.96 3.97c2.22 2.433 4.54 4.749 6.96 6.948.84.399 1.28 1.061 1.32 1.985h-1.32a12.044 12.044 0 0 1-3.31-1.158c-3.54-2.206-7.07-4.411-10.6-6.617-5-.664-9.97-1.16-14.9-1.489 1.43 2.867 2.87 5.735 4.3 8.602-.16.11-.33.221-.49.331-4.4-3.019-8.76-6.107-13.08-9.264a225.945 225.945 0 0 0-7.78 6.948c-.23.441-.23.882 0 1.323.96.931 1.84 1.923 2.65 2.978 2.51 4.469 4.94 8.991 7.28 13.565.1 3.662-.17 7.301-.83 10.918-.01.97.27 1.853.83 2.647a113.57 113.57 0 0 0 5.8 8.767 29.936 29.936 0 0 0 6.62 3.143c-.14.239-.36.405-.66.497-14.13.507-28.26.893-42.39 1.158a76.127 76.127 0 0 0 12.75-9.595 63.173 63.173 0 0 0 2.81-11.745 66.983 66.983 0 0 0-5.13-14.061 5.916 5.916 0 0 0-1.82-1.489l-9.77-2.812c-4.35.37-8.71.426-13.08.165 4.49-1.826 9.02-3.591 13.58-5.294-3.19-3.519-6.5-6.938-9.94-10.256-3.36.676-6.68 1.56-9.93 2.647-2.01.207-4 .041-5.96-.496 1.82-1.187 3.7-2.29 5.63-3.309.34-.166.39-.386.17-.662-3.9-2.246-7.7-4.618-11.43-7.113l-18.54-2.481c-.56.11-1.1.22-1.66.331 1.82 3.639 3.64 7.278 5.47 10.918.24.375.19.706-.17.992a952.763 952.763 0 0 0-17.38-12.241c-2.82 2.366-5.63 4.737-8.45 7.113a7.037 7.037 0 0 0-1.98 2.481c.07.476.23.917.49 1.324a42.519 42.519 0 0 1 3.98 4.962 601.403 601.403 0 0 1 8.94 16.874c-.23 5.193-.56 10.376-1 15.55 2.61 4.596 5.43 9.067 8.45 13.399 3.88 2.05 7.74 4.09 11.59 6.121-20.54.486-41.07 1.037-61.59 1.654 3.06-2.197 6.26-4.237 9.6-6.12 3.25-2.813 6.51-5.625 9.77-8.437a84.38 84.38 0 0 0 3.31-15.881c-1.55-4.632-3.09-9.264-4.64-13.896-1-2.081-2.4-3.938-4.14-5.459-3.75-1.102-7.5-2.206-11.26-3.308-6.4-.104-12.8-.104-19.2 0a452.094 452.094 0 0 1 17.88-7.279c-4.19-4.517-8.5-8.93-12.91-13.234-4.63.802-9.17 2.02-13.58 3.639-2.34.065-4.66-.156-6.95-.661-.11-.11-.23-.221-.34-.331 3.15-1.958 6.35-3.833 9.61-5.625-.72-.772-1.5-1.49-2.32-2.15.46-.376.96-.708 1.49-.993.47-1.041.97-2.034 1.49-2.977a73.307 73.307 0 0 0 5.96 2.812 87.7 87.7 0 0 1 10.6 1.323c4.79 4.517 9.54 9.094 14.24 13.731 1.37-4.724 2.69-9.466 3.97-14.227a2.359 2.359 0 0 0-.99-1.489l-17.22-10.918c-4.21-5.929-8.46-11.829-12.75-17.7-4.07-3.162-8.1-6.361-12.09-9.595.52-.374 1.07-.43 1.66-.165 4.47 1.243 8.89 2.676 13.24 4.301 3.91 3.574 7.72 7.268 11.43 11.083.77-6.384 1.43-12.78 1.98-19.189.3-.398.69-.674 1.16-.827 4.26-.785 8.51-1.612 12.75-2.482.28.11.55.221.83.331-3.19 1.915-6.34 3.9-9.44 5.955-.27 7.282-.22 14.56.17 21.837a552.574 552.574 0 0 0 16.22 7.94c4.61-3.058 9.14-6.256 13.58-9.595-4.3-4.462-8.66-8.873-13.08-13.234a1.382 1.382 0 0 1-.16-.661c0-.231.05-.458.16-.662 1.77-3.756 3.7-7.395 5.79-10.918.28 3.303.44 6.611.5 9.925 4.15 3.599 8.4 7.073 12.75 10.422 1.77-.208 3.26-1.035 4.47-2.481 1.98-3.133 4.02-6.221 6.13-9.264a139.655 139.655 0 0 1-7.95-8.602 60.38 60.38 0 0 1 5.96-8.933c.18 2.563.46 5.1.83 7.609 2 1.677 4.1 3.221 6.29 4.632 5.7-3.319 11.39-6.683 17.05-10.091 1.82-1.764 3.59-3.585 5.3-5.459.37.405.42.846.16 1.324-.84 2.406-1.61 4.832-2.31 7.278a823.433 823.433 0 0 1-18.55 12.242 313.76 313.76 0 0 0-4.8 12.572c.04.312.15.587.33.827 5.05 2.16 10.13 4.256 15.24 6.286.77.221 1.54.221 2.31 0 3.75-.863 7.51-1.69 11.26-2.481.07.389-.03.72-.33.993a172.36 172.36 0 0 1-12.58 6.617 810.867 810.867 0 0 1-21.86-6.121 2.138 2.138 0 0 0-1.65 0c-2.38 1.684-4.7 3.449-6.96 5.294-4.24 4.245-8.5 8.491-12.74 12.737-.28 1.775-.22 3.54.16 5.294 3.92-2.235 7.89-4.385 11.92-6.452l1.33-.165c10.17 2.487 20.33 5.079 30.46 7.775 1.55.221 3.09.221 4.64 0 6.53-1.824 13.04-3.699 19.53-5.625a89.073 89.073 0 0 0-5.63-7.278 179.886 179.886 0 0 1-8.27-6.286c3.78.779 7.53 1.771 11.25 2.977 3.14 2.802 6.18 5.725 9.11 8.768.41-4.855.85-9.708 1.32-14.558.28-.275.56-.551.83-.827 3.09-.628 6.18-1.234 9.27-1.819.33.11.67.22 1 .33l-.33.331a70.406 70.406 0 0 0-6.79 4.301c-.22 5.404-.22 10.808 0 16.212 4.15 2.183 8.34 4.278 12.58 6.286 3.57-2.348 7.04-4.829 10.43-7.444-3.25-3.253-6.51-6.507-9.77-9.76a2.14 2.14 0 0 1-.17-.827c0-.284.06-.565.17-.827 1.3-2.699 2.68-5.346 4.14-7.941.23 2.656.45 5.303.66 7.941 3.05 2.544 6.14 5.025 9.28 7.444 1.4.159 2.56-.337 3.47-1.489 1.54-2.471 3.14-4.897 4.8-7.279a85.675 85.675 0 0 1-5.96-6.617 52.851 52.851 0 0 1 4.31-6.617c.27 1.753.44 3.521.5 5.294a29.24 29.24 0 0 0 5.13 3.97c4.14-2.565 8.33-5.046 12.58-7.444l4.47-4.467a21.922 21.922 0 0 1-2.15 7.114 292.572 292.572 0 0 0-13.74 8.767c-1.24 3.322-2.51 6.63-3.81 9.926 4.24 1.891 8.55 3.656 12.91 5.293a406.53 406.53 0 0 1 8.94-1.985c.23.11.44.221.67.331a88.66 88.66 0 0 1-10.1 5.294 346.546 346.546 0 0 1-16.06-4.467c-.67-.22-1.33-.22-1.99 0a105.973 105.973 0 0 0-14.74 13.4 9.616 9.616 0 0 0 .17 4.301 87.553 87.553 0 0 1 10.1-5.294c8.22 2.303 16.5 4.399 24.83 6.286 4.9-.931 9.72-2.259 14.41-3.97Zm-632.135-69.151c.331 41.19.44 82.436.331 123.738h-7.616v2.316a1681.166 1681.166 0 0 0-39.405-.993h4.305a14.204 14.204 0 0 0-.331-4.301 23.285 23.285 0 0 1 4.635-1.82c.924-.731 1.199-1.668.828-2.812-1.202-1.094-2.579-1.314-4.139-.662-.44-1.762-.881-3.527-1.324-5.293V159.809h42.716Z" fill="#628871"/><path opacity=".956" d="M1376.85 9.605c.56-.053 1.11.003 1.65.166 4.3 3.912 7.67 8.49 10.1 13.73a17.887 17.887 0 0 1 5.47-4.466c2.06-.35 4.04-.13 5.96.661 2.93.262 5.86.207 8.77-.165.35.043.63.208.83.496a376.1 376.1 0 0 0-8.94 1.985c-1.9 8.548-6.97 14.173-15.23 16.874-7.78.787-15.06 3.103-21.86 6.947-.43.163-.87.218-1.32.166-.06-.454 0-.896.16-1.323 4.9-4.568 9.7-9.255 14.41-14.062-5.13-4.186-9.22-9.203-12.25-15.053.63-.916 1.51-1.192 2.64-.827 6.84 2.045 12.69 5.63 17.55 10.752.34.441.67.441 1 0a27.249 27.249 0 0 0-8.12-6.948 21.108 21.108 0 0 1-.82-8.933Z" fill="#BDE3CC"/><path d="M1461.95 245.171v26.798c-7.78 4.711-15.61 9.343-23.51 13.896a30.236 30.236 0 0 1-6.63-3.143 117.672 117.672 0 0 1-5.79-8.767 4.34 4.34 0 0 1-.83-2.647c.65-3.617.93-7.256.83-10.918a389.352 389.352 0 0 0-7.29-13.565 26.373 26.373 0 0 0-2.65-2.978 1.395 1.395 0 0 1-.17-.661c0-.231.06-.458.17-.662 2.54-2.374 5.14-4.691 7.79-6.948 4.31 3.157 8.67 6.245 13.08 9.264.16-.11.33-.221.49-.331-1.43-2.868-2.87-5.735-4.3-8.602 4.93.329 9.9.825 14.9 1.489l10.59 6.617c1.09.559 2.19.946 3.32 1.158Z" fill="#386850"/><path opacity=".954" d="M1406.32 48.648c4.83 3.677 8.53 8.31 11.09 13.894l4.47-3.805c2.37-1.114 4.68-1.005 6.95.331 3.21-.096 6.41-.041 9.61.166a96.096 96.096 0 0 1-8.94 1.82c-1.69 8.522-6.66 14.147-14.91 16.873-3.42.631-6.85 1.293-10.26 1.985a347.258 347.258 0 0 0-13.25 5.128c-.05-.34.01-.688.17-.993l14.4-14.39c-5.18-4.09-9.27-9.054-12.25-14.89.72-1.29 1.71-1.51 2.98-.66 6.96 2.068 12.87 5.761 17.72 11.082.16-.164.33-.33.49-.495a32.88 32.88 0 0 0-8.27-7.114c-.66-2.72-.93-5.478-.83-8.27.33-.189.6-.41.83-.663Z" fill="#BDE3CC"/><path opacity=".981" d="M126.492 78.422h8.278c-.054 2.98 0 5.957.166 8.933 1.611 4.47 4.537 5.628 8.775 3.474 1.533-1.786 2.305-3.826 2.318-6.12h7.616V74.12h-7.616c.101-2.15-.672-3.97-2.318-5.46a621.04 621.04 0 0 1-17.219-8.105v-2.978h65.564v81.72h-27.484v-21.505h-38.08v-39.37Zm38.411-4.3H175.5v10.586h-10.597V74.121Zm-21.854 21.835v10.587h10.596V95.957h-10.596Zm21.854 0v10.587H175.5V95.957h-10.597Z" fill="#386850"/><path opacity=".984" d="M306.302 142.938a382.465 382.465 0 0 1-16.556 6.948v-4.963H279.15v9.264a1454.631 1454.631 0 0 1-38.412 15.881V63.203a6627.719 6627.719 0 0 1 65.564 7.94v71.795Zm-49.007-60.546h10.596V92.98h-10.596V82.392Zm21.855 0h10.596V92.98H279.15V82.392Zm-21.855 18.859v10.587h10.596v-10.587h-10.596Zm21.855 0v10.587h10.596v-10.587H279.15Zm-21.855 21.836v10.587h10.596v-10.587h-10.596Zm21.855 0v10.587h10.596v-10.587H279.15Zm-21.855 21.836v10.587h10.596v-10.587h-10.596Z" fill="#386850"/><path opacity=".994" d="M1355.66 74.784a205.12 205.12 0 0 1 5.79 9.264c1.38-1.036 2.65-2.2 3.81-3.474 2.4-2.039 5.16-2.7 8.28-1.985 1.43.633 2.92 1.019 4.47 1.158.67-.002 1.28-.112 1.82-.331 11.35-.302 11.35.36 0 1.985-1.12-.013-2.22.097-3.31.331-2.03 11.678-8.76 19.122-20.2 22.333-10.11.977-19.55 4.01-28.31 9.098-.65-.087-.87-.418-.66-.992 6.34-6.342 12.69-12.683 19.04-19.024-6.46-5.175-11.76-11.296-15.9-18.363-.43-1.213.01-1.985 1.33-2.316a43.13 43.13 0 0 1 6.95 2.316c7.05 2.917 13.12 7.218 18.21 12.904.44-.221.77-.552 1-.993a38.16 38.16 0 0 0-10.6-9.098c-.39-.95-.73-1.887-.99-2.813-.53-2.62-.7-5.266-.5-7.94.6-.627 1.31-.793 2.15-.496a55.247 55.247 0 0 1 7.62 8.436Z" fill="#fff"/><path d="M1338.77 74.781h7.61c.28.956.61 1.895 1 2.813a38.127 38.127 0 0 1 10.59 9.098c-.22.441-.55.772-.99.992-5.09-5.685-11.16-9.986-18.21-12.903Z" fill="#fff"/><path opacity=".994" d="M1355.65 74.781h24.18v4.632c-.54.22-1.15.33-1.83.331a14.128 14.128 0 0 1-4.47-1.158c-3.12-.716-5.88-.054-8.27 1.985a28.7 28.7 0 0 1-3.81 3.474c-1.85-3.14-3.78-6.23-5.8-9.264Z" fill="#00785F"/><path d="M934.124 141.612v18.197h12.252a37.355 37.355 0 0 0-.331-6.617v-18.528h26.159v25.145h12.252v-33.747h188.414c-.11 8.439 0 16.82.33 25.145-4.59.95-9.22 1.887-13.91 2.812-.38.386-.77.772-1.16 1.158-.73 7.493-1.39 14.992-1.98 22.498a391.993 391.993 0 0 0-13.74-13.399 588.43 588.43 0 0 0-14.9-4.632c-.9-.394-1.78-.449-2.65-.166 4.34 3.44 8.75 6.804 13.24 10.091a39.12 39.12 0 0 1 2.65 3.474h-48.34v5.625h-3.98v8.602h-4.3v51.943a1.45 1.45 0 0 0-1.16.331c-5.89 10.647-6.72 21.676-2.49 33.085a1619.165 1619.165 0 0 1-57.61-19.686c-5.17-.909-10.25-.579-15.23.993a1198.07 1198.07 0 0 0-41.396 20.513c-1.06.949-2 1.996-2.815 3.143-2.457 4.883-2.4 9.736.166 14.557-6.845-.11-13.692 0-20.53.331a242.063 242.063 0 0 1-14.57-.992v-7.941h-7.616V156.501h-5.629v-11.249h-5.629v-7.61h-1.325c.103-1.172-.007-2.275-.331-3.308v-16.543h26.159v23.821Z" fill="#5F856E"/><path opacity=".984" d="M523.518 121.101c6.365-.657 11.719 1.328 16.06 5.955 3.106 4.306 3.987 9.048 2.649 14.227-3.059 7.793-8.798 11.874-17.219 12.241a53.515 53.515 0 0 1-5.132-.496c-4.431 5.777-10.172 7.652-17.219 5.624-4.94-1.765-7.811-5.239-8.609-10.421-5.557.227-10.305-1.593-14.239-5.459a39.678 39.678 0 0 0-9.272-7.941c-4.801-1.737-9.437-1.406-13.907.993-2.742 2.535-3.957 5.678-3.643 9.429h-9.934c-.321-11.222 4.755-18.776 15.232-22.663 6.554-1.636 12.845-.974 18.875 1.985 1.103.882 2.209 1.764 3.311 2.647 1.603.938 3.259 1.048 4.967.331 5.133-5.335 11.202-6.769 18.212-4.302a25.108 25.108 0 0 1 5.63 3.64 6.78 6.78 0 0 0 2.98 0l4.636-3.309a22.046 22.046 0 0 1 6.622-2.481Z" fill="#fff"/><path opacity=".989" d="M143.713 128.051h10.265v90.653h10.596v-68.817h65.564v24.483a206.534 206.534 0 0 1-12.252 5.293 30.06 30.06 0 0 1-.331-6.286h-3.973v-6.948h-10.596v6.948h-11.259v-6.948h-10.596v6.948h-9.934c-.11 15.386 0 30.715.331 45.989h5.629v60.214h-23.179v1.985h-1.987c-3.085-.379-6.176-.71-9.271-.992V248.48c-5.189.056-10.377 0-15.564-.165 2.594-1.378 3.643-3.529 3.146-6.452a3554.646 3554.646 0 0 1-17.053-43.01h2.318v-10.587h-6.623a7310.339 7310.339 0 0 1-14.735-36.725 195.99 195.99 0 0 1-1.49-13.565h42.053v6.948h-7.947v10.587h10.596v-4.632c3.918 1.434 6.622.221 8.113-3.639.221-5.404.221-10.808 0-16.212a10.281 10.281 0 0 0-1.821-2.977Zm-38.742 16.873v10.587h10.596v-10.587h-10.596Zm29.801 0c-.327 2.555.556 4.54 2.649 5.955v4.632h-10.596v-10.587h7.947Zm-29.801 21.505v10.588h10.596v-10.588h-10.596Zm21.854 0v10.588h10.596v-10.588h-10.596Zm64.902 6.948h-10.596v-6.948h10.596v6.948Zm21.855 0h-10.596v-6.948h10.596v6.948Zm-86.757 14.889v10.587h10.596v-10.587h-10.596Zm-1.324 22.167c.317.149.593.37.828.661a1.63 1.63 0 0 0 .165-.992c-.427-.079-.758.031-.993.331Z" fill="#386850"/><path opacity=".999" d="M907.963 134.334c.325 1.034.434 2.137.331 3.308h1.325v7.61h5.629v11.249h5.629v127.047h7.616v7.94c-35.328-1.722-70.65-3.597-105.962-5.624v-2.316h7.616c.11-41.302 0-82.548-.331-123.739v-3.308h5.629c-.056-3.751 0-7.501.166-11.249a26.279 26.279 0 0 1 5.795-.331v-7.279h33.444v-3.308h33.113Z" fill="#386850"/><path opacity=".98" d="m934.125 141.615 11.921 11.58c.304 2.187.417 4.392.331 6.617h-12.252v-18.197Z" fill="#fff"/><path d="M1172.87 153.195v34.74c-2.99-1.3-5.92-2.735-8.78-4.301-.22-8.272-.22-16.543 0-24.814.31-.679.81-1.175 1.49-1.489 2.49-1.299 4.92-2.677 7.29-4.136Z" fill="#5C846C"/><path opacity=".997" d="M14.24 161.463A647.592 647.592 0 0 1 .332 195.871v-34.408H14.24Z" fill="#386850"/><path opacity=".942" d="M52.984 161.463h6.292c-2.097 1.764-4.195 1.764-6.292 0Z" fill="#fff"/><path d="M26.157 161.463a1644.726 1644.726 0 0 1 16.557 7.444c-7.827 3.579-15.664 7.163-23.51 10.753a201.475 201.475 0 0 1 6.953-18.197Z" fill="#00785F"/><path opacity=".993" d="M306.3 161.795v56.906h8.61v-33.747h26.159v25.807h11.921v-33.747c1.218.055 2.433 0 3.642-.165a68.166 68.166 0 0 1 3.643-1.158c.331 24.096.44 48.248.331 72.456h-11.259v31.431c-16.447.11-32.894 0-49.338-.331a6407.954 6407.954 0 0 1-11.259-102.233h.994v-8.271a275.987 275.987 0 0 1 16.556-6.948Z" fill="#386850"/><path opacity=".995" d="M383.455 163.449h41.061v55.252h9.934a147.298 147.298 0 0 1-.828 12.242 4347.232 4347.232 0 0 0-.166 53.928 878.643 878.643 0 0 1-26.821-.661v-4.632h-22.848v-31.431h-11.59c-.056-25.807 0-51.613.166-77.419l8.774-3.805a11.733 11.733 0 0 0 2.318-3.474Z" fill="#386850"/><path opacity=".956" d="M76.82 165.766a173.32 173.32 0 0 0 11.424 10.587c.166-3.086.22-6.174.166-9.264a83.801 83.801 0 0 1 5.132 12.903 2329.252 2329.252 0 0 0-24.007-11.083 104.246 104.246 0 0 1 7.285-3.143Z" fill="#fff"/><path d="M843.395 169.736h11.258v11.58h-11.258v-11.58Zm26.484 0h11.258v11.58h-11.258v-11.58Zm26.496 0h11.258v11.58h-11.258v-11.58Z" fill="#628871"/><path d="M1140.74 173.045c2.33 2.988 4.54 6.076 6.63 9.264v4.632h3.31c.49.309.82.751.99 1.323v17.535h-1.65l-6.96-.496c-.51-.07-.95-.235-1.32-.496v-7.941h-8.61c.1 1.39-.01 2.714-.33 3.97a186.759 186.759 0 0 1-9.61-4.301c-.26.103-.49.275-.66.497 3.75 3.97 7.51 7.94 11.26 11.91a240.008 240.008 0 0 1-10.26 5.956c-.89.441-.89.882 0 1.323 2.64.364 5.29.475 7.94.331 4.81-1.545 9.67-2.925 14.57-4.136.71.005 1.37.171 1.99.496 1.15 1.43 2.37 2.81 3.64 4.136v15.219c-2.9.951-5.77 1.999-8.61 3.143-.86.149-1.3.645-1.32 1.489 3.3-.236 6.61-.346 9.93-.331v44.665h5.63v9.926c4.92-.109 9.77.001 14.57.33-.6.466-1.26.852-1.99 1.158-13.79-.016-27.59-.182-41.39-.496a721.84 721.84 0 0 0-6.29-16.212V264.36h-4.97a612.93 612.93 0 0 1-6.95-17.535 82.054 82.054 0 0 1-7.95-2.316v-2.647h-8.94c-3.12-.781-6.21-1.663-9.27-2.647v-51.944h4.31v-8.602h3.97v-5.624h48.34Z" fill="#386850"/><path d="M181.131 173.377c-3.19.33-6.398.441-9.602.331v45.657c-.332-15.327-.443-30.658-.332-45.988h9.934Z" fill="#909090"/><path d="M213.582 173.377h3.974a30.06 30.06 0 0 0 .331 6.286c-.02.18-.13.29-.331.331a30.128 30.128 0 0 1-.332-6.286c-1.281.104-2.496-.006-3.642-.331Z" fill="#858585"/><path d="M55.63 175.027a972.01 972.01 0 0 1 38.08 16.874 2606.238 2606.238 0 0 1-37.584 16.211 2605.64 2605.64 0 0 1-37.583-16.211c12.39-5.64 24.751-11.264 37.087-16.874Z" fill="#386850"/><path d="M360.277 175.692c.02-.179.129-.29.331-.331.441 24.318.441 48.58 0 72.787.11-24.208 0-48.36-.331-72.456Z" fill="#828282"/><path d="M270.535 176.352c.417.335.639.831.662 1.488.418 3.358.749 6.722.994 10.091h-5.961c.5-3.399.832-6.818.994-10.256a10.992 10.992 0 0 0 3.311-1.323Z" fill="#fff"/><path d="M1147.37 182.308a26.876 26.876 0 0 1 3.32 4.632h-3.32v-4.632Z" fill="#5C846C"/><path opacity=".991" d="M459.277 184.955h51.988v25.476a4.681 4.681 0 0 1-1.325 1.158 4746.639 4746.639 0 0 0-47.02 24.317 1788.757 1788.757 0 0 1-3.643-50.951Z" fill="#386850"/><path opacity=".996" d="M230.141 193.556V218.7h10.596v-29.445a38.384 38.384 0 0 1 8.279-3.64l-10.266 93.962h-27.152v-60.215h5.629c-.11-6.952 0-13.899.331-20.844a152.54 152.54 0 0 1 12.583-4.962Z" fill="#386850"/><path opacity=".995" d="M703.323 276.273v7.609c-1.066-.13-2.06.036-2.98.496-27.044.166-54.084.221-81.128.166v-34.739h-6.953V205.14h12.252c-.11-6.29 0-12.577.331-18.859a339.083 339.083 0 0 1 8.94 8.768l33.113.331 10.762 10.752c.166 23.38.222 46.76.166 70.141h25.497Z" fill="#386850"/><path d="M1151.68 188.266a91.3 91.3 0 0 0 3.31 3.804c6.02 3.76 11.98 7.565 17.88 11.415-.11 3.919 0 7.779.33 11.58-.82 2.521-1.6 5.058-2.32 7.609-5.4-5.238-10.81-10.477-16.22-15.715a16.307 16.307 0 0 0-4.64-1.158h1.66v-17.535Z" fill="#5F856E"/><path d="M1094.06 196.865h8.28v8.602h-8.28v-8.602Z" fill="#628871"/><path d="M1113.6 196.865h8.61v8.602h-8.61v-8.602Z" fill="#fff"/><path d="M1141.74 204.806a54.973 54.973 0 0 1-8.94-3.971c.33-1.256.44-2.58.33-3.97h8.61v7.941Z" fill="#628871"/><path opacity=".983" d="M274.841 210.099c-3.652.067-7.294.288-10.927.662.282-3.755.613-7.505.993-11.249h8.941c.212 3.541.543 7.071.993 10.587Z" fill="#00785F"/><path d="M843.395 200.174h11.258v11.249h-11.258v-11.249Zm26.484 0h11.258v11.249h-11.258v-11.249Zm26.496 0h11.258v11.249h-11.258v-11.249Z" fill="#fff"/><path d="M101.333 200.506c.633.024 1.02.355 1.159.992a5339.549 5339.549 0 0 0 12.418 31.1l-.497.331a1827.055 1827.055 0 0 1-44.206-19.024 2019.016 2019.016 0 0 0 31.126-13.399ZM.332 231.606v-4.632a337.466 337.466 0 0 1 10.265-26.468l31.458 13.399A1400.874 1400.874 0 0 1 .332 231.606Z" fill="#386850"/><path opacity=".988" d="M590.081 249.8h-13.576c.109-14.449 0-28.896-.332-43.342-.202.041-.311.152-.331.331a4936.491 4936.491 0 0 1-48.014 24.814v-30.769h62.253V249.8Z" fill="#386850"/><path d="M1267.24 206.793c-1.64.495-3.3 1.047-4.97 1.654.02-.1.06-.196.12-.281a.634.634 0 0 1 .21-.215 28.198 28.198 0 0 0-3.47-3.805c-.2-.325-.09-.546.33-.662 2.58 1.153 5.17 2.256 7.78 3.309Z" fill="#628871"/><path d="M1172.87 203.484c1.34.446 2.22 1.328 2.65 2.647-.73 3-1.51 5.977-2.32 8.933-.33-3.801-.44-7.661-.33-11.58Z" fill="#5C5C5C"/><path d="M575.84 206.79c.02-.18.129-.29.331-.331.331 14.446.44 28.892.331 43.341-.222-14.336-.44-28.673-.662-43.01Z" fill="#A1A1A1"/><path d="M982.795 206.46c7.729-.055 15.454 0 23.175.166 3.31.658 5.9 2.367 7.79 5.128 3.41 7.209 6.78 14.432 10.1 21.67 12.14.159 24.28.38 36.42.662 1.93.607 3.2 1.875 3.81 3.805a847.107 847.107 0 0 1 4.96 22.829c-13.4-4.686-26.81-9.373-40.23-14.061a62.577 62.577 0 0 0-16.55-.993c-2.03.272-4.02.714-5.96 1.323a856.456 856.456 0 0 0-40.734 19.355c-.109-3.805-.222-7.609-.331-11.414-.043-4.264.122-8.51.497-12.738a6.94 6.94 0 0 1 2.483-3.474c2.758-1.82 5.52-3.639 8.278-5.459.275-7.166.441-14.334.497-21.505 1.159-2.65 3.093-4.414 5.795-5.294Z" fill="#AAC5B2"/><path d="M1266.25 211.754c.81.649 1.59 1.366 2.31 2.15a212.05 212.05 0 0 0-9.6 5.625l.33.331c2.3.505 4.62.726 6.96.661a78.1 78.1 0 0 1 13.57-3.639c4.43 4.311 8.73 8.722 12.92 13.234a440.228 440.228 0 0 0-17.88 7.279c6.4-.104 12.8-.104 19.2 0 3.75 1.103 7.51 2.206 11.26 3.308 1.74 1.527 3.11 3.347 4.14 5.459 1.55 4.632 3.09 9.264 4.64 13.896-.6 5.386-1.7 10.68-3.32 15.881-3.25 2.812-6.51 5.624-9.76 8.437a105.823 105.823 0 0 0-9.61 6.12c-20.08.679-40.17 1.23-60.26 1.655-5.34 1.161-9.81-.272-13.41-4.301l-8.28-13.565c.22-5.406.6-10.81 1.16-16.212-.06-.882-.11-1.764-.17-2.647-3.52-6.61-7.05-13.227-10.6-19.851a48.103 48.103 0 0 0-4.3-5.293 3.29 3.29 0 0 1-.43-1.29c-.06-.455-.03-.916.1-1.357 3.56-3.292 7.14-6.545 10.76-9.76.41-.259.85-.424 1.33-.497 6.31 4.263 12.49 8.73 18.54 13.4.57.516 1.23.791 1.99.827-2.09-4.893-4.41-9.69-6.96-14.392 7.96.718 15.91 1.71 23.84 2.978l16.23 10.256c2.02.769 4.11 1.155 6.29 1.158.05-.341-.01-.688-.17-.993-4.41-4.02-8.65-8.211-12.74-12.572 3.88-2.272 7.86-4.368 11.92-6.286Zm118.21.662c1.79 2.208 3.56 4.469 5.29 6.782 4.62 2.717 9.09 5.64 13.42 8.768-.79 3.777-1.78 7.527-2.98 11.249a238.53 238.53 0 0 0-10.77-10.422c-2.98-.425-5.96-.866-8.94-1.323a79.21 79.21 0 0 0-6.29-2.978c-.83-.827-1.65-1.654-2.48-2.481-.23-.276-.17-.496.16-.662 3.65-1.93 7.29-3.86 10.93-5.79.6-1.031 1.15-2.078 1.66-3.143Z" fill="#386850"/><path d="M984.453 214.4c6.954-.056 13.908 0 20.857.165 1.63.629 2.68 1.787 3.15 3.474 2.13 5.036 4.18 10.11 6.13 15.219h-30.137V214.4Zm167.227 2.649c3.52 3.624 7.05 7.263 10.6 10.918a154.578 154.578 0 0 1-10.6 4.301v-15.219Z" fill="#5F856E"/><path d="M188.742 219.363h11.259v60.215h-11.259v-60.215Z" fill="#386850"/><path d="M1094.06 219.363h8.28v8.602h-8.28v-8.602Z" fill="#628871"/><path d="M1113.6 219.363h8.61v8.602h-8.61v-8.602Z" fill="#fff"/><path d="M1133.46 219.363h8.28v8.602h-8.28v-8.602Z" fill="#628871"/><path d="M55.297 220.023a36.653 36.653 0 0 1 6.29 2.151 7397.394 7397.394 0 0 0 61.261 26.137c-37.528.221-75.057.221-112.585 0L.99 244.01c-.441-.221-.441-.441 0-.662 18.17-7.7 36.273-15.475 54.307-23.325Zm1340.093 67.496c-14.11.523-28.23.964-42.38 1.323-3.85-2.031-7.71-4.071-11.59-6.121-3.03-4.33-5.85-8.801-8.45-13.399.44-5.174.77-10.358 1-15.55a635.36 635.36 0 0 0-8.95-16.874 42.023 42.023 0 0 0-3.97-4.962 3.341 3.341 0 0 1-.5-1.324 7.224 7.224 0 0 1 1.99-2.481c2.82-2.376 5.63-4.747 8.45-7.113a952.763 952.763 0 0 1 17.38 12.241c.36-.286.41-.617.17-.993-1.83-3.639-3.65-7.278-5.47-10.918.55-.11 1.1-.22 1.66-.33l18.54 2.481c3.73 2.496 7.54 4.868 11.42 7.113.23.276.18.496-.16.662a69.704 69.704 0 0 0-5.63 3.308c1.96.538 3.95.704 5.96.497 3.3-1.1 6.61-1.982 9.93-2.647 3.43 3.318 6.75 6.737 9.94 10.256-4.55 1.7-9.08 3.465-13.58 5.294 4.37.261 8.73.205 13.08-.166l9.77 2.813c.7.371 1.31.867 1.82 1.489a67.065 67.065 0 0 1 5.13 14.061c-.56 4.01-1.5 7.925-2.81 11.745a76.127 76.127 0 0 1-12.75 9.595Z" fill="#386850"/><path d="M262.255 222.342h13.908c.417 3.757.857 7.506 1.324 11.249-5.404.33-10.811.441-16.225.331.258-3.867.589-7.726.993-11.58Z" fill="#00785F"/><path opacity=".98" d="M726.832 229.289h8.941v2.316a34.14 34.14 0 0 1 7.947.496c1.649 3.131.656 4.62-2.98 4.467v5.624a793.297 793.297 0 0 0 21.192-7.113c-.513-.693-.622-1.41-.331-2.151a253.382 253.382 0 0 1 6.788-2.316 8.219 8.219 0 0 0 1.656 1.655c2.043-1.05 4.196-1.547 6.457-1.489 1.305.931 1.58 2.089.828 3.474-.768.437-1.487.933-2.152 1.489a178.71 178.71 0 0 0 1.986 5.79c2.669.197 3.441 1.575 2.318 4.135a1171.312 1171.312 0 0 1-33.113 11.415c-2.685-.948-3.016-2.492-.993-4.632a187.874 187.874 0 0 0-2.153-5.956 4.16 4.16 0 0 1-1.49 2.482c-13.136.22-26.268.22-39.404 0-1.053-.337-1.497-1.054-1.325-2.151-.102-1.443.56-2.326 1.987-2.647.331-2.527.44-5.063.331-7.609-3.076.595-4.344-.618-3.808-3.64.388-.386.772-.771 1.159-1.158 8.719-.165 17.437-.22 26.159-.165v-2.316Z" fill="#fff"/><path d="M843.395 230.613h11.258v11.249h-11.258v-11.249Zm26.484 0h11.258v11.249h-11.258v-11.249Zm26.496 0h11.258v11.249h-11.258v-11.249ZM1172.87 239.214v51.282c-.22.441-.55.772-.99.993-4.8-.33-9.66-.44-14.57-.331v-9.926h-5.63v-44.665c3.96-.358 7.94-.413 11.92-.165l9.27 2.812Z" fill="#628871"/><path d="M1172.87 239.215c1.84.374 3.61.981 5.3 1.82a43.928 43.928 0 0 1 3.48 5.128c2.1 6.02 4.03 12.085 5.79 18.196-1.15 4.824-2.2 9.677-3.14 14.558-.27.908-.6 1.79-1 2.647a80.362 80.362 0 0 1-10.43 8.933v-51.282Z" fill="#386850"/><path d="M1093.4 241.859h8.94v2.647a88.516 88.516 0 0 1-8.94-2.647Z" fill="#818181"/><path d="M1113.6 241.859h8.61v8.602h-8.61v-8.602Z" fill="#fff"/><path d="M1133.46 241.859h8.28v8.602h-8.28v-8.602Z" fill="#628871"/><path d="M259.942 245.17h18.874a154.68 154.68 0 0 0 1.325 11.58h-21.524c.394-3.881.838-7.741 1.325-11.58Z" fill="#00785F"/><path opacity=".977" d="M778.826 248.481a.93.93 0 0 1 .827.331 141.305 141.305 0 0 1 3.808 11.58c2.444-.152 3.381.951 2.815 3.308-.166.607-.553.993-1.159 1.158a4026.486 4026.486 0 0 1-32.285 11.084c-1.954-.486-2.616-1.699-1.987-3.64.483-.317.762-.758.828-1.323a138.539 138.539 0 0 0-3.974-11.415 5089.338 5089.338 0 0 0 31.127-11.083Z" fill="#AAC5B2"/><path opacity=".979" d="M703.322 252.117h37.418v14.227c1.792.376 2.51 1.479 2.152 3.308a3.8 3.8 0 0 1-1.158 1.489c-13.136.221-26.269.221-39.405 0-1.229-.831-1.616-1.989-1.159-3.474.42-.9 1.139-1.342 2.152-1.323v-14.227Z" fill="#fff"/><path d="M450.344 259.066h25.166v18.859h-25.166v-18.859Zm42.047 0h25.166v18.859h-25.166v-18.859Zm42.058 0h25.166v18.859h-25.166v-18.859Z" fill="#386850"/><path d="M1014.59 260.057c5.39-.731 7.99 1.585 7.78 6.948-1.82 3.973-4.75 5.131-8.77 3.474-3.79-3.887-3.45-7.361.99-10.422Z" fill="#5C846C"/><path d="M843.395 260.721h11.258V272.3h-11.258v-11.579Zm26.484 0h11.258v22.828h-11.258v-22.828Zm26.496 0h11.258V272.3h-11.258v-11.579Zm220.865 3.638h4.97v11.58c-1.74-3.8-3.4-7.66-4.97-11.58Zm16.22 0h8.28v8.603h-8.28v-8.603Z" fill="#628871"/><path d="M282.456 278.585v.992h-26.159v-1.985l.993-9.264h24.173c.354 3.417.685 6.835.993 10.257Z" fill="#386850"/><path opacity=".981" d="M740.743 276.271h18.543a14.492 14.492 0 0 1-4.636 1.655 52.345 52.345 0 0 0 1.987 6.286 72.822 72.822 0 0 1-16.225-.33 43.76 43.76 0 0 1 .331-7.611Z" fill="#00785F"/><path d="M972.871 278.916c6.023-.325 8.397 2.432 7.119 8.272-2.179 3.069-4.993 3.786-8.444 2.15-2.586-2.512-2.973-5.324-1.159-8.436a42.344 42.344 0 0 1 2.484-1.986Zm109.269 2.316h-3.64v8.933c-3.48.278-5.63-1.266-6.46-4.632-.21-3.767 1.56-5.973 5.3-6.617 2.07-.136 3.67.636 4.8 2.316Z" fill="#5C846C"/><path d="M177.154 279.578c-7.558.33-15.174.44-22.848.331v1.985c-.847.1-1.62-.011-2.318-.331h1.987v-1.985h23.179Z" fill="#989898"/><path d="M256.3 277.594v1.985h26.16v-.993c.308.354.42.795.331 1.324h-26.822c-.1-.847.011-1.619.331-2.316Z" fill="#9A9A9A"/><path d="M787.103 280.57c.324 1.368.437 2.802.331 4.301h-4.305c-2.871.055-5.742 0-8.609-.165a167.726 167.726 0 0 1 12.583-4.136Zm295.037.662c1.99 3.039 1.54 5.74-1.33 8.106-.73.373-1.51.651-2.31.827v-8.933h3.64Z" fill="#fff"/><path d="M943.066 292.483c6.785-.33 13.63-.44 20.531-.331.433.214.764.544.993.993l-3.311.331a666.904 666.904 0 0 0-18.213-.993Z" fill="#606060"/></g><defs><clipPath id="a"><path fill="#fff" d="M0 0h1439v315H0z"/></clipPath></defs></svg>