<svg width="85" height="84" fill="none" xmlns="http://www.w3.org/2000/svg"><path d="M18.525 79.625A2.644 2.644 0 0 1 15.9 77V7a2.644 2.644 0 0 1 2.625-2.625A2.644 2.644 0 0 1 21.15 7v70a2.644 2.644 0 0 1-2.625 2.625Z" fill="#96F50A"/><path d="M57.725 58.625h-39.2A2.644 2.644 0 0 1 15.9 56a2.644 2.644 0 0 1 2.625-2.625h39.2c3.815 0 5.6-1.015 5.95-1.89.35-.875-.175-2.835-2.905-5.53l-4.2-4.2c-1.715-1.505-2.765-3.78-2.87-6.3-.105-2.66.945-5.285 2.87-7.21l4.2-4.2c2.59-2.59 3.395-4.69 3.01-5.6-.385-.91-2.38-1.82-6.055-1.82h-39.2A2.621 2.621 0 0 1 15.9 14a2.644 2.644 0 0 1 2.625-2.625h39.2c7.665 0 10.115 3.185 10.92 5.075.77 1.89 1.295 5.88-4.165 11.34l-4.2 4.2a4.568 4.568 0 0 0-1.33 3.325c.035 1.05.455 1.995 1.19 2.66l4.34 4.305c5.355 5.355 4.83 9.345 4.06 11.27-.805 1.855-3.29 5.075-10.815 5.075Z" fill="#96F50A"/></svg>