<svg width="779" height="135" viewBox="0 0 779 135" fill="none" xmlns="http://www.w3.org/2000/svg">
<path d="M83.992 77.9122C79.755 81.8972 75.668 84.5722 69.655 84.5722C60.58 84.5722 53.994 77.4112 53.994 67.5082V67.2812C53.994 57.8262 60.572 50.4642 68.91 50.4642C75.265 50.4642 79.183 53.2112 83.099 57.3312L83.726 57.9842L96.177 44.6232L95.667 44.0542C88.725 36.3162 80.538 32.8862 69.022 32.8862C59.282 32.8862 50.351 36.4502 43.895 43.0792C37.538 49.4942 34.043 58.1912 34.043 67.5082V67.7482C34.043 77.0382 37.56 85.6752 43.924 92.0622C50.351 98.5692 59.19 102.148 68.781 102.148C82.963 102.148 90.254 96.3172 96.026 90.0192L96.562 89.3982L84.597 77.3122L83.992 77.9122ZM259.593 17.4502H239.637V34.0572H231.526V50.4642H239.637V81.7032C239.637 95.6462 245.624 102.148 259.216 102.148C265.018 102.148 269.818 100.909 274.281 98.2492L274.737 98.0072V81.7042L273.434 82.3732C270.736 83.8452 267.816 84.5722 264.703 84.5722C261.116 84.5722 259.593 82.9442 259.593 79.1002V50.4642H274.965V34.0582H259.593V17.4502ZM313.947 32.8862C303.978 32.8862 294.779 36.4502 288.064 43.0062C281.4 49.4612 277.727 58.1912 277.727 67.5082V67.7482C277.727 77.0662 281.378 85.7312 287.986 92.1222C294.67 98.5872 303.779 102.148 313.683 102.148C323.65 102.148 332.814 98.5612 339.544 92.0012C346.222 85.5302 349.888 76.8582 349.888 67.5082V67.2812C349.888 57.9592 346.263 49.2802 339.65 42.8772C332.964 36.4072 323.847 32.8862 313.947 32.8862ZM329.939 67.7482C329.939 77.6402 323.367 84.5722 313.947 84.5722C304.661 84.5722 297.683 77.2532 297.683 67.5082V67.2812C297.683 57.3762 304.242 50.4642 313.683 50.4642C322.959 50.4642 329.939 57.7942 329.939 67.5072V67.7482ZM375.557 44.2322V34.0582H355.616V100.712H375.557V75.0872C375.557 60.6802 382.093 53.0582 394.491 53.0582H396.312V32.9012L395.495 32.8862C386.527 32.4702 379.95 36.1872 375.557 44.2322ZM554.897 32.8862C546.576 32.8862 539.623 36.0392 533.699 42.5102C529.971 36.2972 523.433 32.8862 515.199 32.8862C506.273 32.8862 500.758 37.2762 496.861 41.7392V34.0582H476.946V100.712H496.861V62.7912C496.861 54.8412 500.535 50.4642 507.199 50.4642C515.4 50.4642 517.266 57.1762 517.266 62.7912V100.712H537.181V62.7912C537.181 54.8412 540.977 50.4642 547.619 50.4642C555.843 50.4642 557.582 57.1762 557.582 62.7912V100.712H577.489V57.5702C577.489 41.8512 569.439 32.8862 554.897 32.8862ZM146.668 41.8512C142.397 36.5412 135.79 32.8872 128.076 32.8872C111.301 32.8872 96.564 48.4862 96.564 67.5092V67.7492C96.564 86.5782 110.82 102.149 128.076 102.149C135.79 102.149 142.396 98.3992 146.668 92.9982V100.713H166.62V34.0582H146.668V41.8512ZM147.477 67.7482C147.477 77.6402 141.173 84.5722 132.104 84.5722C123.215 84.5722 116.502 77.2532 116.502 67.5082V67.2812C116.502 57.3762 122.811 50.4642 131.894 50.4642C140.774 50.4642 147.477 57.7942 147.477 67.5072V67.7482ZM448.543 41.8512C444.258 36.5412 437.658 32.8872 429.934 32.8872C413.166 32.8872 398.426 48.4862 398.426 67.5092V67.7492C398.426 86.5782 412.674 102.149 429.934 102.149C437.659 102.149 444.258 98.3992 448.543 92.9982V100.713H468.466V34.0582H448.543V41.8512ZM449.332 67.7482C449.332 77.6402 443.031 84.5722 433.977 84.5722C425.078 84.5722 418.385 77.2532 418.385 67.5082V67.2812C418.385 57.3762 424.678 50.4642 433.756 50.4642C442.614 50.4642 449.332 57.7942 449.332 67.5072V67.7482ZM632.625 34.0582V41.8512C628.354 36.5412 621.762 32.8872 614.018 32.8872C597.25 32.8872 582.522 48.4862 582.522 67.5092V67.7492C582.522 86.5782 596.778 102.149 614.018 102.149C621.762 102.149 628.355 98.3992 632.625 92.9982V100.713H652.564V34.0582H632.625ZM633.434 67.7482C633.434 77.6402 627.125 84.5722 618.074 84.5722C609.179 84.5722 602.468 77.2532 602.468 67.5082V67.2812C602.468 57.3762 608.803 50.4642 617.839 50.4642C626.739 50.4642 633.435 57.7942 633.435 67.5072L633.434 67.7482ZM194.139 53.8992C194.139 51.1102 197.149 50.4642 200.113 50.4642C209.262 50.4642 217.777 56.2182 217.777 56.2182L226.087 41.0172L225.423 40.5832C218.25 35.7202 208.912 32.8562 200.476 32.8562C191.285 32.8562 174.204 38.4062 174.204 53.4702C174.204 76.9142 208.778 72.5982 208.778 81.3952C208.778 83.9832 205.433 84.5722 201.823 84.5722C190.893 84.5722 181.494 77.2572 181.494 77.2572L172.024 91.5932L172.687 92.0732C180.923 98.5872 191.121 102.153 201.353 102.153C217.607 102.153 228.722 91.5272 228.722 81.3952C228.721 59.1722 194.139 61.8152 194.139 53.8992Z" fill="white"/>
<path d="M727.826 50.4746C737.243 50.4746 744.9 58.0966 744.9 67.4916C744.9 76.9156 737.243 84.5196 727.826 84.5196H687.97C678.539 84.5196 670.871 76.8906 670.871 67.4916C670.871 58.0736 678.539 50.4746 687.97 50.4746H727.826Z" fill="white"/>
</svg>
