<svg width="227" height="27" fill="none" xmlns="http://www.w3.org/2000/svg"><g clip-path="url(#a)"><path d="M13.03 15.09c1.247.27 2.246.9 3.002 1.884.76.982 1.14 2.109 1.14 3.373 0 1.824-.631 3.272-1.89 4.34-1.258 1.064-3.008 1.598-5.254 1.598H0V4.459h9.688c2.19 0 3.902.51 5.136 1.528 1.236 1.016 1.857 2.394 1.857 4.135 0 1.285-.334 2.352-1.001 3.2-.665.849-1.548 1.44-2.652 1.769h.002Zm-7.787-1.802h3.434c.858 0 1.517-.19 1.975-.573.46-.383.692-.95.692-1.694s-.232-1.319-.692-1.71c-.458-.391-1.117-.588-1.975-.588H5.243v4.567-.002Zm3.863 8.704c.879 0 1.558-.202 2.039-.603.48-.407.718-.993.718-1.76 0-.766-.25-1.367-.752-1.803-.5-.435-1.19-.652-2.069-.652H5.24v4.818h3.866ZM25.355 4.459V17.52c0 1.305.315 2.313.948 3.018.634.702 1.566 1.052 2.795 1.052 1.23 0 2.162-.35 2.816-1.052.657-.705.984-1.71.984-3.018V4.459h5.242v13.028c0 1.948-.408 3.596-1.229 4.943-.817 1.347-1.913 2.36-3.296 3.044-1.382.684-2.92 1.026-4.614 1.026s-3.214-.337-4.55-1.01c-1.339-.671-2.397-1.687-3.173-3.044-.777-1.36-1.165-3.013-1.165-4.962V4.457h5.242v.003ZM54.85 15.09c1.247.27 2.246.9 3.002 1.884.759.982 1.14 2.109 1.14 3.373 0 1.824-.632 3.272-1.891 4.34-1.257 1.064-3.008 1.598-5.253 1.598H41.819V4.459h9.689c2.19 0 3.901.51 5.135 1.528 1.237 1.016 1.858 2.394 1.858 4.135 0 1.285-.335 2.352-1.002 3.2-.664.849-1.548 1.44-2.652 1.769h.003Zm-7.788-1.802h3.434c.859 0 1.518-.19 1.975-.573.46-.383.693-.95.693-1.694s-.233-1.319-.693-1.71c-.457-.391-1.116-.588-1.975-.588h-3.434v4.567-.002Zm3.863 8.704c.88 0 1.559-.202 2.04-.603.48-.407.717-.993.717-1.76 0-.766-.25-1.367-.751-1.803-.5-.435-1.19-.652-2.07-.652H47.06v4.818h3.865ZM75.054 15.09c1.247.27 2.246.9 3.002 1.884.76.982 1.14 2.109 1.14 3.373 0 1.824-.631 3.272-1.89 4.34-1.258 1.064-3.008 1.598-5.254 1.598H62.024V4.459h9.688c2.19 0 3.902.51 5.136 1.528 1.237 1.016 1.857 2.394 1.857 4.135 0 1.285-.334 2.352-1.001 3.2-.664.849-1.548 1.44-2.652 1.769h.002Zm-7.787-1.802H70.7c.858 0 1.517-.19 1.975-.573.46-.383.692-.95.692-1.694s-.232-1.319-.692-1.71c-.458-.391-1.117-.588-1.975-.588h-3.434v4.567-.002Zm3.863 8.704c.879 0 1.558-.202 2.039-.603.48-.407.718-.993.718-1.76 0-.766-.25-1.367-.751-1.803-.501-.435-1.191-.652-2.07-.652h-3.802v4.818h3.866ZM87.471 22.181h6.868v4.101H82.23V4.456h5.242v17.725ZM102.096 8.72v4.415h7.021v4.1h-7.021v4.788h7.941v4.26H96.853V4.455h13.184V8.72h-7.941ZM125.969 13.163v4.415h-13.285v-4.415h13.285ZM145.507 11.36a3.973 3.973 0 0 0-1.671-1.663c-.723-.384-1.579-.578-2.56-.578-1.696 0-3.056.565-4.078 1.694-1.022 1.13-1.532 2.638-1.532 4.524 0 2.013.533 3.583 1.607 4.712 1.075 1.13 2.552 1.695 4.432 1.695 1.288 0 2.377-.332 3.263-.993.889-.666 1.541-1.619 1.95-2.86h-6.654v-3.92h11.408v4.944c-.388 1.329-1.047 2.562-1.98 3.702-.93 1.137-2.11 2.06-3.538 2.764-1.431.704-3.046 1.057-4.845 1.057-2.125 0-4.021-.472-5.689-1.415a9.994 9.994 0 0 1-3.892-3.93c-.93-1.678-1.395-3.6-1.395-5.759 0-2.158.465-4.075 1.395-5.764a10.016 10.016 0 0 1 3.876-3.946c1.656-.945 3.549-1.42 5.675-1.42 2.575 0 4.747.635 6.515 1.9 1.77 1.264 2.941 3.015 3.513 5.25h-5.797v.006h-.003ZM165.558 26.285l-4.476-8.236h-1.257v8.236h-5.243V4.459h8.8c1.696 0 3.142.303 4.338.906 1.196.601 2.09 1.425 2.683 2.472.592 1.044.889 2.207.889 3.492 0 1.453-.404 2.751-1.214 3.891-.807 1.138-1.995 1.946-3.567 2.422l4.967 8.64h-5.92v.003Zm-5.73-12h3.252c.958 0 1.676-.238 2.157-.713.482-.476.723-1.152.723-2.023 0-.87-.243-1.484-.723-1.958-.481-.477-1.199-.718-2.157-.718h-3.252v5.415-.003ZM179.818 8.72v4.415h7.021v4.1h-7.021v4.788h7.94v4.26h-13.183V4.455h13.183V8.72h-7.94ZM196.404 8.72v4.415h7.021v4.1h-7.021v4.788h7.941v4.26h-13.183V4.455h13.183V8.72h-7.941ZM227 26.285h-5.243l-8.766-13.461v13.461h-5.243V4.459h5.243l8.766 13.526V4.459H227v21.826Z" fill="#fff"/><mask id="b" style="mask-type:luminance" maskUnits="userSpaceOnUse" x="121" y="0" width="5" height="14"><path d="M125.969.5h-4.614v13.472h4.614V.5Z" fill="#fff"/></mask><g mask="url(#b)"><path d="M121.634.5h4.335v13.472h-4.335V.5Z" fill="#97F700"/></g><mask id="c" style="mask-type:luminance" maskUnits="userSpaceOnUse" x="112" y="9" width="14" height="5"><path d="M125.969 9.282h-13.285v4.69h13.285v-4.69Z" fill="#fff"/></mask><g mask="url(#c)"><path d="M112.684 9.575h13.285v4.397h-13.285V9.575Z" fill="#97F700"/></g><mask id="d" style="mask-type:luminance" maskUnits="userSpaceOnUse" x="138" y="10" width="14" height="5"><path d="M151.55 10.187h-13.286v4.621h13.286v-4.621Z" fill="#fff"/></mask><g mask="url(#d)"><path d="M138.264 10.187h13.286v4.396h-13.286v-4.396Z" fill="#97F700"/></g><mask id="e" style="mask-type:luminance" maskUnits="userSpaceOnUse" x="147" y="10" width="5" height="14"><path d="M151.739 10.187h-4.714v13.471h4.714V10.186Z" fill="#fff"/></mask><g mask="url(#e)"><path d="M147.342 10.187h4.397v13.471h-4.397V10.186Z" fill="#97F700"/></g></g><defs><clipPath id="a"><path fill="#fff" transform="translate(0 .5)" d="M0 0h227v26H0z"/></clipPath></defs></svg>