<svg width="219" height="54" fill="none" xmlns="http://www.w3.org/2000/svg"><path d="M98.397 24.872v4.568c0 2.744-1.775 3.757-4.447 3.757h-.201c-2.672 0-4.447-.994-4.447-3.757V18.757c0-2.652 1.775-3.757 4.447-3.757h.2c2.673 0 4.448 1.123 4.448 3.757v1.547c0 .664-.348 1.014-1.007 1.014h-.915c-.659 0-1.006-.35-1.006-1.014v-1.068c0-1.27-.659-1.62-1.61-1.62-.952 0-1.61.35-1.61 1.62v9.762c0 1.27.658 1.62 1.61 1.62.951 0 1.61-.35 1.61-1.62v-2.652h-.696c-.658 0-1.006-.35-1.006-1.013v-.46c0-.664.348-1.014 1.006-1.014h2.636c.64 0 .988.35.988 1.013ZM108.608 33.012h-.879c-.585 0-.951-.258-1.134-.847l-1.977-6.262h-1.482v6.078c0 .663-.348 1.013-1.006 1.013h-.915c-.659 0-1.007-.35-1.007-1.013V16.233c0-.663.348-1.013 1.007-1.013h3.568c2.672 0 4.447 1.068 4.447 3.758v3.167c0 1.695-.714 2.763-1.922 3.297l2.141 6.373c.22.7-.109 1.197-.841 1.197Zm-5.49-9.633h1.537c.952 0 1.61-.35 1.61-1.62v-2.321c0-1.27-.658-1.62-1.61-1.62h-1.537v5.561ZM117.831 33.012h-5.801c-.659 0-1.006-.35-1.006-1.013V16.233c0-.663.347-1.013 1.006-1.013h5.728c.659 0 1.006.35 1.006 1.013v.553c0 .663-.347 1.013-1.006 1.013h-3.806v4.88h3.037c.659 0 1.007.35 1.007 1.014v.552c0 .663-.348 1.013-1.007 1.013h-3.037v5.139h3.879c.659 0 1.007.35 1.007 1.013v.552c0 .682-.348 1.05-1.007 1.05ZM126.943 33.012h-5.819c-.659 0-1.007-.35-1.007-1.013V16.233c0-.663.348-1.013 1.007-1.013h5.728c.658 0 1.006.35 1.006 1.013v.553c0 .663-.348 1.013-1.006 1.013h-3.807v4.88h3.038c.659 0 1.006.35 1.006 1.014v.552c0 .663-.347 1.013-1.006 1.013h-3.038v5.139h3.898c.659 0 1.006.35 1.006 1.013v.552c0 .682-.347 1.05-1.006 1.05ZM130.914 33.012h-.659c-.659 0-1.006-.35-1.006-1.013V16.233c0-.663.347-1.013 1.006-1.013h1.062c.585 0 .951.276 1.134.847l3.44 10.167v-10c0-.664.348-1.014 1.007-1.014h.659c.658 0 1.006.35 1.006 1.013V32c0 .663-.348 1.013-1.006 1.013h-.915c-.586 0-.952-.276-1.135-.847l-3.587-10.72V32c0 .645-.366 1.013-1.006 1.013Z" fill="#AEC90B"/><path d="M145.973 33.012h-.915c-.658 0-1.006-.35-1.006-1.013V16.233c0-.663.348-1.013 1.006-1.013h.915c.659 0 1.007.35 1.007 1.013V32c.018.645-.348 1.013-1.007 1.013ZM156.772 16.234v.552c0 .663-.348 1.013-1.007 1.013h-1.939v14.183c0 .663-.348 1.013-1.007 1.013h-.915c-.659 0-1.006-.35-1.006-1.013V17.799h-1.958c-.659 0-1.007-.35-1.007-1.013v-.552c0-.663.348-1.013 1.007-1.013h6.825c.641-.018 1.007.35 1.007 1.013ZM162.827 33.012h-.915c-.658 0-1.006-.35-1.006-1.013V16.233c0-.663.348-1.013 1.006-1.013h.915c.659 0 1.007.35 1.007 1.013V32c0 .645-.348 1.013-1.007 1.013ZM173.186 29.568c-.183.59-.53.847-1.079.847-.549 0-.934-.258-1.117-.847l-2.379-7.44v9.871c0 .663-.347 1.013-1.006 1.013h-.714c-.658 0-1.006-.35-1.006-1.013V16.233c0-.663.348-1.013 1.006-1.013h.915c.586 0 .952.258 1.135.847l3.129 9.504 3.166-9.504c.183-.552.549-.847 1.134-.847h1.007c.658 0 1.006.35 1.006 1.013V32c0 .663-.348 1.013-1.006 1.013h-.805c-.659 0-1.007-.35-1.007-1.013v-9.872l-2.379 7.441ZM189.342 18.978v3.389c0 2.689-1.775 3.757-4.446 3.757h-1.647V32c0 .663-.348 1.013-1.007 1.013h-.915c-.658 0-1.006-.35-1.006-1.013V16.233c0-.663.348-1.013 1.006-1.013h3.569c2.671-.018 4.446 1.05 4.446 3.758Zm-2.928.46c0-1.27-.658-1.62-1.61-1.62h-1.537v5.727h1.537c.952 0 1.61-.35 1.61-1.62v-2.487ZM198.127 33.012h-.933c-.604 0-.989-.313-1.08-.939l-.476-3.02h-3.239l-.476 3.02c-.109.645-.475.94-1.079.94h-.787c-.677 0-1.043-.387-.915-1.087l2.91-15.785c.109-.608.512-.92 1.116-.92h1.811c.604 0 1.007.312 1.117.92l2.946 15.785c.128.7-.22 1.086-.915 1.086Zm-2.873-6.41-1.244-7.9-1.245 7.9h2.489ZM208.814 26.77v2.67c0 2.744-1.775 3.757-4.447 3.757h-.055c-2.671 0-4.446-.994-4.446-3.757V18.757c0-2.652 1.775-3.757 4.446-3.757h.055c2.672 0 4.447 1.123 4.447 3.757v2.229c0 .663-.348 1.013-1.007 1.013h-.914c-.659 0-1.007-.35-1.007-1.013v-1.787c0-1.252-.604-1.62-1.537-1.62-.933 0-1.537.386-1.537 1.62v9.762c0 1.253.604 1.62 1.537 1.62.933 0 1.537-.386 1.537-1.62v-2.21c0-.663.348-1.013 1.007-1.013h.914c.659.018 1.007.387 1.007 1.031ZM218.184 16.234v.552c0 .663-.348 1.013-1.007 1.013h-1.939v14.183c0 .663-.348 1.013-1.007 1.013h-.915c-.659 0-1.006-.35-1.006-1.013V17.799h-1.94c-.659 0-1.006-.35-1.006-1.013v-.552c0-.663.347-1.013 1.006-1.013h6.826c.64-.018.988.35.988 1.013ZM94.225 46.791h-3.97l-.77 2.1h-.932l3.184-8.693h.988l3.184 8.693h-.933l-.75-2.1Zm-1.994-5.488-1.72 4.77h3.458l-1.738-4.77ZM100.228 41.91c1.72 0 2.837.92 3.148 2.338h-.934c-.219-.976-1.043-1.584-2.195-1.584-1.336 0-2.434.921-2.434 2.782 0 1.86 1.08 2.8 2.434 2.8 1.152 0 1.958-.59 2.195-1.603h.934c-.311 1.381-1.428 2.339-3.148 2.339-1.921 0-3.312-1.363-3.312-3.536 0-2.174 1.39-3.537 3.312-3.537ZM105.242 42.757h-.952v-.737h.952v-1.731h.896v1.73h1.885v.738h-1.903v4.273c0 .847.293 1.105 1.08 1.105h.805v.755h-.934c-1.189 0-1.829-.497-1.829-1.86v-4.273ZM113.092 42.756h-.951v-.737h.951v-.478c0-1.474.695-2.174 2.416-2.174v.755c-1.172 0-1.538.424-1.538 1.419v.478h1.592v.737h-1.592v6.133h-.878v-6.133ZM119.917 48.982c-1.922 0-3.385-1.363-3.385-3.536 0-2.192 1.5-3.537 3.421-3.537 1.922 0 3.422 1.345 3.422 3.537-.018 2.173-1.518 3.536-3.458 3.536Zm0-.755c1.281 0 2.543-.884 2.543-2.763s-1.226-2.763-2.525-2.763-2.507.884-2.507 2.763 1.19 2.763 2.489 2.763ZM125.846 48.89h-.878v-6.87h.878v1.216c.384-.847 1.171-1.344 2.342-1.344v.92h-.238c-1.134 0-2.104.516-2.104 2.248v3.83ZM135.29 48.982c-1.556 0-2.636-.774-2.745-2.045h.896c.074.756.732 1.29 1.849 1.29.969 0 1.518-.534 1.518-1.18 0-1.694-4.099-.699-4.099-3.278 0-1.013.97-1.86 2.398-1.86 1.463 0 2.433.774 2.507 2.1h-.879c-.055-.774-.622-1.345-1.647-1.345-.915 0-1.482.498-1.482 1.087 0 1.86 4.044.866 4.081 3.297-.019 1.123-.988 1.934-2.397 1.934ZM145.225 48.89h-.878v-1.215c-.421.866-1.318 1.326-2.324 1.326-1.556 0-2.782-.958-2.782-2.965V42.02h.86v3.924c0 1.528.824 2.302 2.086 2.302 1.281 0 2.16-.81 2.16-2.487V42.02h.878v6.87ZM149.58 48.982c-1.556 0-2.635-.774-2.745-2.045h.897c.073.756.731 1.29 1.848 1.29.97 0 1.519-.534 1.519-1.18 0-1.694-4.099-.699-4.099-3.278 0-1.013.969-1.86 2.397-1.86 1.464 0 2.434.774 2.507 2.1h-.879c-.055-.774-.622-1.345-1.647-1.345-.915 0-1.482.498-1.482 1.087 0 1.86 4.044.866 4.081 3.297-.018 1.123-.97 1.934-2.397 1.934ZM153.861 42.757h-.951v-.737h.951v-1.731h.897v1.73h1.867v.738h-1.885v4.273c0 .847.293 1.105 1.079 1.105h.806v.755h-.934c-1.189 0-1.83-.497-1.83-1.86v-4.273ZM160.945 41.91c1.373 0 2.324.736 2.708 1.62v-1.51h.879v6.87h-.879V47.36c-.402.884-1.354 1.62-2.708 1.62-1.866 0-3.257-1.399-3.257-3.554-.018-2.155 1.372-3.518 3.257-3.518Zm.147.773c-1.446 0-2.544 1.013-2.544 2.763 0 1.73 1.098 2.78 2.544 2.78 1.409 0 2.543-1.05 2.543-2.762 0-1.713-1.134-2.781-2.543-2.781ZM166.324 40.05c0-.387.293-.645.64-.645.348 0 .641.258.641.645a.643.643 0 0 1-.641.663c-.366 0-.64-.276-.64-.663Zm.201 1.952h.878v6.87h-.878v-6.87ZM174.504 44.948c0-1.529-.824-2.302-2.086-2.302-1.281 0-2.16.81-2.16 2.486v3.758h-.878v-6.87h.878v1.178c.439-.865 1.318-1.289 2.324-1.289 1.556 0 2.782.958 2.782 2.965v4.034h-.86v-3.96ZM180.178 41.91c1.372 0 2.324.736 2.708 1.62v-1.51h.878v6.87h-.878V47.36c-.403.884-1.354 1.62-2.708 1.62-1.867 0-3.258-1.399-3.258-3.554-.018-2.155 1.373-3.518 3.258-3.518Zm.164.773c-1.445 0-2.543 1.013-2.543 2.763 0 1.73 1.098 2.78 2.543 2.78 1.409 0 2.544-1.05 2.544-2.762 0-1.713-1.153-2.781-2.544-2.781ZM189.326 41.91c1.885 0 3.257 1.381 3.257 3.518 0 2.155-1.391 3.554-3.257 3.554-1.373 0-2.306-.718-2.708-1.62v1.51h-.86v-9.32h.86v3.96c.421-.884 1.372-1.602 2.708-1.602Zm-.165.773c-1.391 0-2.543 1.05-2.543 2.763 0 1.713 1.152 2.763 2.543 2.763 1.446 0 2.544-1.05 2.544-2.781 0-1.75-1.116-2.745-2.544-2.745ZM194.195 39.57h.878v9.32h-.878v-9.32ZM200.012 48.982c-1.939 0-3.348-1.363-3.348-3.536 0-2.192 1.39-3.537 3.348-3.537 1.995 0 3.221 1.437 3.221 3.187 0 .276 0 .46-.018.7h-5.673c.073 1.62 1.19 2.45 2.47 2.45 1.172 0 1.958-.627 2.196-1.53h.934c-.311 1.29-1.409 2.266-3.13 2.266Zm-2.452-3.905h4.813c.037-1.602-1.116-2.413-2.379-2.413-1.244 0-2.342.81-2.434 2.413ZM208.284 40.086h.878v8.804h-.878v-8.804ZM210.517 40.086h5.746v.737h-2.434v8.067h-.878v-8.067h-2.434v-.737Z" fill="#fff"/><path d="M39.052 53.104c19.9 0 36.277-14.793 38.474-33.816.27-2.309-1.575-4.352-3.959-4.352H4.537c-2.362 0-4.228 2.023-3.959 4.352 2.198 19.023 18.595 33.816 38.474 33.816Z" fill="#8BB704"/><path d="M66.933 41.437 39.549 14.936v38.168a38.866 38.866 0 0 0 27.384-11.667Z" fill="#AEC90B"/><path d="M39.051 53.104h.477V14.936L11.813 42.05c6.985 6.845 16.625 11.054 27.238 11.054Z" fill="#C7D825"/><path d="M39.55 14.936H4.538c-2.363 0-4.229 2.023-3.96 4.352 1.016 8.868 5.12 16.816 11.236 22.762L39.55 14.936Z" fill="#E0E836"/><path d="M39.55 34.817c11.132 0 20.17-8.909 20.17-19.881H19.38c0 10.993 9.018 19.88 20.17 19.88Z" fill="#243544"/><path d="M39.549 21.535c3.69 0 6.675-2.942 6.675-6.579H32.852c0 3.617 3.006 6.58 6.696 6.58Z" fill="#AEC90B"/><path d="M37.58 15.834a2.365 2.365 0 0 1 3.566-.163l9.35 9.97-12.148-6.374c-1.306-.675-1.659-2.31-.767-3.433ZM25.766 0c-4.291 0-7.794 3.453-7.794 7.683H33.58C33.58 3.453 30.078 0 25.766 0ZM53.313 0c-4.311 0-7.794 3.453-7.794 7.683h15.61c0-4.23-3.504-7.683-7.816-7.683Z" fill="#AEC90B"/></svg>